<svg xmlns="http://www.w3.org/2000/svg" width="1024" height="1024" viewBox="0 0 1024 1024">
<g>
<path d="M 591.00 964.49 C543.80,975.74 542.70,975.97 539.00,975.29 C528.62,973.38 419.21,952.28 362.00,941.14 C347.98,938.41 326.60,934.28 314.50,931.95 C221.26,914.04 225.72,915.23 221.00,906.91 L 218.50 902.50 L 218.22 819.79 L 217.94 737.08 L 214.72 736.56 C210.44,735.88 201.10,734.60 173.50,730.93 C135.09,725.83 133.94,725.58 130.64,721.91 C128.29,719.29 127.88,718.11 128.34,715.27 C129.04,710.97 128.48,711.72 183.51,641.50 C191.70,631.05 200.83,619.35 203.80,615.50 C206.77,611.65 210.42,607.72 211.91,606.78 C214.41,605.18 219.53,604.24 265.00,597.01 C271.33,596.00 286.85,593.52 299.50,591.48 C312.15,589.45 328.57,586.82 335.99,585.64 C346.65,583.94 349.54,583.14 349.79,581.83 C350.04,580.58 348.70,579.78 344.31,578.56 C312.24,569.63 277.29,551.40 248.49,528.59 C229.39,513.46 200.13,482.03 187.84,463.44 L 183.83 457.39 L 174.66 455.69 C143.77,449.97 123.97,425.50 124.01,393.09 C124.02,382.52 125.33,376.38 129.39,367.82 C132.85,360.51 142.04,351.87 149.18,349.21 C152.95,347.80 154.61,346.59 155.10,344.88 C159.56,329.16 171.37,319.33 188.85,316.78 C208.71,313.89 227.85,322.07 239.83,338.60 C243.87,344.16 244.89,345.00 247.67,345.00 C255.03,345.00 255.56,344.27 256.92,332.33 C259.32,311.31 266.63,284.25 274.48,267.40 C278.50,258.77 278.54,257.84 275.62,244.50 C273.17,233.35 272.23,213.22 273.10,190.70 C275.31,133.92 288.89,82.79 306.67,64.35 C315.42,55.27 319.40,53.50 331.00,53.54 C338.44,53.57 341.73,54.07 346.15,55.82 C368.64,64.76 408.00,102.86 432.32,139.24 C436.46,145.44 438.19,148.35 440.69,149.38 C442.86,150.28 445.61,149.78 451.01,148.79 C451.64,148.68 452.30,148.56 453.00,148.43 C464.83,146.30 508.74,145.40 526.11,146.93 C539.45,148.11 554.47,150.68 562.97,153.23 L 567.44 154.57 L 574.85 145.03 C603.67,108.00 641.50,72.50 665.73,59.77 C689.82,47.11 706.99,50.23 719.53,69.55 C731.72,88.34 738.26,123.26 738.25,169.50 C738.24,204.22 735.37,228.57 727.94,256.73 L 724.98 267.96 L 728.50 279.58 C734.34,298.84 738.63,326.22 739.27,348.39 L 739.50 356.27 L 750.50 358.53 C763.77,361.24 766.32,362.19 768.40,365.16 C771.57,369.69 769.55,376.14 764.57,377.39 C763.20,377.74 756.83,376.90 750.40,375.54 C743.97,374.18 738.32,373.30 737.85,373.59 C737.38,373.88 737.00,375.24 737.00,376.60 C737.00,380.88 733.98,394.13 730.87,403.47 C728.07,411.91 727.99,412.52 729.64,413.72 C730.60,414.43 731.80,415.00 732.31,415.00 C734.28,415.00 751.19,425.43 753.05,427.79 C755.83,431.33 755.49,434.67 751.97,438.18 C748.16,441.99 746.70,441.69 734.00,434.49 C728.78,431.53 723.79,428.84 722.91,428.51 C721.75,428.07 720.01,429.98 716.35,435.71 C702.01,458.12 683.99,475.30 658.81,490.57 L 647.04 497.71 L 654.27 501.29 C677.28,512.67 700.84,533.73 714.68,555.30 C722.15,566.93 730.00,586.05 730.00,592.61 C730.00,597.00 731.72,595.07 734.31,587.75 C738.85,574.93 741.87,563.36 745.01,546.74 C754.87,494.66 761.34,474.19 774.23,454.34 C790.93,428.62 817.69,411.11 845.09,407.98 C864.60,405.75 881.71,410.75 893.59,422.16 C904.36,432.50 909.00,443.03 909.00,457.09 C909.00,476.90 899.43,490.81 879.04,500.60 C853.59,512.84 853.13,513.11 847.24,519.41 C838.00,529.31 833.95,539.57 824.49,577.00 C821.33,589.50 816.13,607.38 814.58,611.08 C813.91,612.69 816.00,615.43 863.48,675.00 C889.85,708.09 893.55,712.96 894.41,715.70 C895.26,718.39 892.83,723.42 889.73,725.41 C887.78,726.66 876.14,728.92 829.50,737.11 C823.45,738.17 816.14,739.51 813.25,740.09 L 808.00 741.14 L 807.98 822.32 L 807.97 903.50 L 805.72 907.47 C804.48,909.65 802.03,912.41 800.27,913.60 C800.01,913.77 799.80,913.93 799.59,914.07 C796.61,916.14 792.78,916.97 643.50,952.01 C638.55,953.17 614.92,958.78 591.00,964.49 ZM 575.33 685.95 C577.62,686.40 579.95,686.67 580.50,686.55 C581.06,686.43 581.76,681.08 582.08,674.42 C582.53,665.19 583.15,661.38 584.87,657.53 C587.41,651.82 588.34,651.04 592.60,651.02 C597.42,650.99 599.27,653.77 598.58,660.01 C598.26,662.86 597.71,665.67 597.35,666.25 C596.18,668.13 597.10,681.30 598.60,684.19 C599.82,686.55 600.68,687.00 604.02,687.00 C609.27,687.00 619.74,681.99 624.84,677.04 C627.05,674.90 631.40,669.51 634.51,665.07 C637.63,660.62 640.91,656.98 641.83,656.95 C642.75,656.92 650.47,656.76 659.00,656.59 C673.84,656.30 674.82,656.15 681.96,653.12 C707.28,642.34 718.70,624.37 715.11,600.92 C711.87,579.74 701.19,561.08 681.35,541.92 C667.55,528.60 656.79,521.01 642.00,514.16 C628.02,507.69 625.21,507.31 614.00,510.36 C602.96,513.36 588.40,516.00 582.91,516.00 C578.18,516.00 575.00,512.98 575.00,508.50 C575.00,503.31 576.67,502.21 588.00,499.92 C598.46,497.82 612.89,493.61 620.50,490.45 C636.38,483.86 654.52,473.26 667.52,462.96 C674.17,457.70 687.89,443.72 692.51,437.50 C694.15,435.30 695.72,433.27 695.99,433.00 C697.72,431.29 701.00,425.84 701.49,423.85 C702.04,421.64 701.37,421.25 690.29,417.27 C683.80,414.94 676.36,412.53 673.75,411.90 C671.14,411.27 669.00,410.32 669.00,409.77 C669.00,409.23 668.33,409.05 667.50,409.36 C666.67,409.68 666.00,409.45 666.00,408.86 C666.00,408.27 665.31,408.05 664.48,408.37 C663.64,408.69 662.07,408.07 660.98,406.98 C657.22,403.22 659.18,394.97 663.82,395.02 C669.15,395.08 690.03,399.23 698.32,401.89 C703.66,403.60 708.64,405.00 709.39,405.00 C712.04,405.00 716.69,389.47 718.72,373.86 L 719.19 370.21 L 709.84 370.66 C704.71,370.90 697.35,371.25 693.50,371.44 C689.65,371.63 682.95,372.32 678.61,372.96 C667.19,374.67 662.00,372.76 662.00,366.85 C662.00,363.26 664.78,360.44 669.69,359.04 C675.94,357.25 694.65,354.85 707.89,354.15 L 720.27 353.50 L 720.11 343.00 C719.83,324.57 716.00,302.34 709.90,283.68 C706.12,272.14 704.77,262.00 707.00,262.00 C707.55,262.00 708.00,261.13 708.00,260.07 C708.00,259.01 709.17,253.95 710.60,248.82 C712.04,243.69 713.43,238.15 713.69,236.50 C713.95,234.85 715.04,228.21 716.11,221.75 C718.48,207.39 719.95,185.72 719.98,164.86 C720.04,119.90 709.81,79.12 696.78,72.39 C689.47,68.61 675.78,73.95 657.98,87.52 C640.16,101.11 603.33,138.89 582.71,164.73 C575.96,173.20 574.20,174.33 568.64,173.77 C563.28,173.24 550.69,169.79 549.86,168.64 C549.51,168.15 548.84,167.96 548.36,168.23 C547.89,168.49 542.10,167.86 535.50,166.82 C508.29,162.54 487.87,162.49 457.00,166.63 C443.65,168.42 442.82,168.56 437.50,169.85 C435.30,170.38 430.79,171.12 427.47,171.48 C422.16,172.07 421.22,171.90 419.57,170.08 C417.32,167.59 417.27,162.76 419.47,159.41 C421.45,156.38 421.17,155.80 411.17,142.50 C388.09,111.78 358.44,83.56 339.58,74.37 C332.54,70.94 328.87,70.25 326.71,71.95 C319.50,77.61 316.69,81.00 312.69,88.80 C308.24,97.47 303.71,109.71 302.44,116.46 C302.07,118.42 301.37,120.27 300.87,120.58 C300.37,120.89 300.19,121.49 300.45,121.93 C300.72,122.36 300.48,124.24 299.92,126.11 C299.35,127.97 298.70,130.85 298.46,132.50 C298.23,134.15 297.58,137.75 297.01,140.50 C295.95,145.70 295.73,147.29 294.00,163.00 C293.43,168.23 292.55,175.43 292.05,179.00 C291.54,182.57 291.14,194.56 291.16,205.63 C291.18,223.20 291.51,227.27 293.69,237.63 C295.06,244.16 296.29,250.51 296.42,251.74 C296.55,252.98 296.96,254.29 297.33,254.66 C298.78,256.11 297.84,260.07 294.13,268.11 C292.00,272.72 288.60,281.00 286.58,286.50 C284.56,292.00 282.63,297.17 282.30,298.00 C281.96,298.83 281.64,299.95 281.57,300.50 C281.30,302.65 279.73,308.55 279.19,309.46 C278.88,309.99 278.46,312.00 278.26,313.92 C278.06,315.84 277.48,317.92 276.96,318.55 C276.44,319.17 276.24,319.91 276.51,320.18 C276.78,320.45 276.52,322.88 275.94,325.58 C275.36,328.29 274.91,331.61 274.95,332.96 C274.98,334.32 274.52,336.93 273.92,338.75 C272.47,343.14 273.74,344.59 279.78,345.46 C287.18,346.53 300.55,350.86 303.41,353.10 C306.74,355.73 306.74,359.35 303.42,362.67 C300.93,365.16 300.57,365.22 292.68,364.53 C288.19,364.14 284.07,363.54 283.52,363.21 C282.97,362.87 280.72,362.48 278.51,362.36 L 274.50 362.12 L 274.62 366.44 C274.74,370.82 275.62,378.18 276.64,383.34 C277.18,386.09 277.36,386.17 281.85,385.59 C296.37,383.72 299.43,383.75 301.75,385.77 C302.99,386.85 304.00,388.59 304.00,389.64 C304.00,392.31 301.23,395.99 299.19,396.03 C298.26,396.05 295.70,396.94 293.50,398.00 C291.30,399.06 288.32,399.95 286.87,399.97 C285.43,399.98 283.67,400.69 282.97,401.54 C280.43,404.59 292.58,429.97 302.52,442.35 C322.09,466.75 367.10,492.93 400.00,499.05 C408.23,500.58 413.57,502.55 413.25,503.93 C413.11,504.52 413.45,505.00 414.00,505.00 C416.10,505.00 414.87,509.28 411.93,512.22 L 408.87 515.28 L 400.23 514.62 C395.48,514.26 391.35,513.63 391.05,513.23 C390.75,512.83 388.96,512.40 387.08,512.28 C385.19,512.15 383.39,511.70 383.08,511.26 C382.76,510.83 381.20,510.41 379.62,510.34 C378.04,510.26 376.42,509.69 376.04,509.06 C375.65,508.44 374.59,508.22 373.67,508.57 C372.75,508.93 372.00,508.81 372.00,508.32 C372.00,507.83 371.15,507.36 370.12,507.28 C367.38,507.08 349.73,499.47 341.00,494.73 C333.18,490.48 319.56,481.73 314.65,477.79 C298.88,465.14 289.16,455.36 281.41,444.32 C278.78,440.57 272.53,433.23 267.52,428.00 C257.67,417.71 245.67,403.04 239.30,393.50 C235.61,387.98 235.24,386.79 234.59,378.50 C233.64,366.36 229.75,353.96 225.35,349.05 C220.70,343.87 216.96,340.75 213.00,338.76 C210.52,337.52 208.36,336.19 208.19,335.81 C208.01,335.42 207.22,335.36 206.44,335.66 C205.65,335.97 205.00,335.76 205.00,335.20 C205.00,334.57 201.62,334.29 196.02,334.46 C188.68,334.69 186.04,335.23 181.57,337.42 C173.76,341.24 172.91,345.94 180.02,345.98 C183.79,346.01 194.93,352.97 198.05,357.25 C200.99,361.28 201.42,366.59 199.03,369.46 C197.73,371.03 192.44,371.61 191.83,370.25 C191.43,369.33 186.71,366.46 182.00,364.25 C180.07,363.35 175.09,362.43 170.91,362.21 C161.04,361.68 154.82,364.19 148.47,371.24 C146.01,373.98 144.00,376.59 144.00,377.04 C144.00,377.50 143.50,379.14 142.88,380.68 C140.49,386.71 140.72,396.00 143.27,396.00 C143.95,396.00 146.07,394.64 148.00,392.99 C152.20,389.38 156.60,388.01 164.07,388.01 C172.14,388.00 182.30,391.74 185.72,395.99 C187.32,397.97 187.33,402.83 185.75,404.32 C181.98,407.86 181.17,408.16 178.81,406.92 C177.54,406.25 176.23,405.29 175.90,404.78 C175.57,404.28 171.95,403.61 167.85,403.31 C162.08,402.87 159.69,403.11 157.25,404.37 C152.97,406.58 149.00,412.03 149.00,415.69 C149.00,419.93 153.74,426.01 161.19,431.29 C168.66,436.60 175.01,438.93 183.95,439.62 C194.41,440.43 194.09,440.22 201.54,451.22 C205.37,456.87 209.96,463.08 211.74,465.00 C213.52,466.92 214.99,468.82 214.99,469.20 C215.01,471.05 251.35,508.17 258.59,513.73 C260.19,514.96 264.65,518.39 268.50,521.35 C291.53,539.03 319.71,553.76 346.00,561.84 C353.77,564.23 354.16,563.96 355.95,554.87 C357.14,548.81 360.52,544.00 363.58,544.00 C366.47,544.00 370.09,546.10 371.13,548.38 C372.22,550.78 371.59,555.52 365.50,590.50 C363.81,600.21 363.40,603.05 362.72,610.00 C362.48,612.47 361.96,616.12 361.56,618.10 L 360.83 621.70 L 366.17 622.39 C369.10,622.76 379.15,623.92 388.50,624.97 C397.85,626.01 411.80,627.56 419.50,628.42 C448.83,631.70 479.27,634.86 493.00,636.04 C498.77,636.54 505.37,637.21 507.66,637.52 C511.21,638.01 512.05,637.76 513.41,635.83 C514.28,634.58 515.00,632.94 515.00,632.18 C515.00,630.60 516.95,625.87 520.81,618.06 C523.11,613.41 533.39,601.85 539.35,597.21 C543.08,594.30 556.19,587.82 563.11,585.45 C571.95,582.44 586.79,580.15 600.49,579.69 L 610.49 579.35 L 611.10 575.57 C611.82,571.20 613.21,570.04 617.79,570.02 C621.31,570.00 624.03,572.08 627.91,577.75 C629.66,580.30 630.84,581.00 633.41,581.00 C637.74,581.00 651.78,584.63 654.60,586.48 C656.37,587.63 656.78,588.72 656.55,591.64 C656.23,595.61 653.97,598.01 650.56,597.99 C649.43,597.99 642.65,597.27 635.50,596.39 C619.28,594.41 595.89,594.18 586.00,595.91 C574.78,597.87 561.22,602.48 554.20,606.73 C541.60,614.35 532.57,626.03 530.08,637.95 C529.09,642.67 529.14,645.21 530.36,653.00 C531.11,657.76 538.31,668.00 540.90,668.00 C541.58,668.00 542.00,665.62 542.00,661.75 C542.01,655.31 545.11,644.54 548.40,639.51 C550.73,635.95 554.37,634.39 557.26,635.71 C560.23,637.06 562.49,641.34 561.48,643.68 C561.05,644.68 560.58,645.95 560.44,646.50 C560.30,647.05 559.49,649.11 558.65,651.08 C557.81,653.05 557.02,657.79 556.91,661.61 C556.52,674.92 563.04,683.54 575.33,685.95 ZM 527.50 954.30 C529.15,954.52 531.04,954.77 531.69,954.85 C532.35,954.93 533.60,953.99 534.47,952.75 C535.90,950.72 536.04,937.64 535.95,820.53 C535.88,738.62 535.48,689.89 534.87,688.75 C533.95,687.03 533.74,687.06 531.00,689.22 C529.41,690.47 528.09,691.82 528.06,692.22 C527.96,693.49 521.65,702.00 520.81,702.00 C520.36,702.00 520.00,702.69 520.00,703.53 C520.00,704.37 519.33,705.32 518.50,705.64 C517.67,705.95 517.00,706.88 517.00,707.68 C517.00,708.49 515.65,710.50 514.00,712.15 C512.35,713.80 511.00,715.58 511.00,716.11 C511.00,716.63 510.33,717.32 509.50,717.64 C508.67,717.95 508.00,718.78 508.00,719.46 C508.00,720.15 506.88,721.92 505.50,723.41 C504.12,724.89 503.00,726.54 503.00,727.08 C503.00,727.62 502.33,728.32 501.50,728.64 C500.67,728.95 500.00,729.82 500.00,730.56 C500.00,731.30 499.44,732.26 498.75,732.70 C498.06,733.14 496.88,734.70 496.13,736.16 C495.38,737.62 493.46,740.24 491.88,741.97 C490.30,743.70 489.00,745.48 489.00,745.92 C489.00,746.35 487.88,747.92 486.50,749.41 C485.12,750.89 484.00,752.35 484.00,752.66 C484.00,753.47 478.08,760.96 474.25,765.00 C471.10,768.32 470.61,768.49 464.72,768.34 C458.99,768.19 428.55,764.32 386.50,758.39 C377.15,757.07 367.16,755.80 364.31,755.56 C361.45,755.31 350.65,753.98 340.31,752.59 C269.73,743.13 237.62,739.12 236.75,739.66 C235.87,740.20 235.74,889.79 236.61,895.06 L 237.20 898.62 L 244.85 899.83 C253.83,901.24 261.88,902.76 279.00,906.26 C285.88,907.67 297.80,910.01 305.50,911.46 C313.20,912.91 321.08,914.51 323.00,915.00 C324.92,915.50 329.20,916.35 332.50,916.91 C339.35,918.05 354.11,920.70 361.50,922.10 C364.25,922.63 367.74,923.11 369.25,923.18 C370.76,923.25 372.00,923.63 372.00,924.04 C372.00,924.44 374.14,925.08 376.75,925.45 C379.36,925.83 392.08,928.19 405.00,930.70 C438.32,937.18 444.96,938.44 458.50,940.90 C465.10,942.10 473.20,943.69 476.50,944.45 C479.80,945.21 485.20,946.31 488.50,946.89 C491.80,947.48 501.25,949.29 509.50,950.93 C517.75,952.56 525.85,954.08 527.50,954.30 ZM 551.52 944.25 C552.01,951.12 552.59,954.00 553.49,954.00 C554.19,954.00 562.24,952.20 571.38,950.00 C580.51,947.80 588.90,946.00 590.01,946.00 C591.12,946.00 592.81,945.59 593.76,945.09 C594.72,944.59 598.20,943.65 601.50,943.01 C604.80,942.36 609.30,941.39 611.50,940.84 C613.70,940.29 625.85,937.37 638.50,934.36 C651.15,931.35 662.95,928.44 664.73,927.89 C666.50,927.34 670.10,926.49 672.73,926.00 C678.33,924.96 685.15,923.42 693.50,921.33 C696.80,920.50 701.75,919.36 704.50,918.80 C707.25,918.25 710.28,917.39 711.24,916.89 C712.19,916.40 713.99,915.99 715.24,915.99 C716.48,915.98 719.30,915.34 721.50,914.58 C723.70,913.81 728.65,912.52 732.50,911.70 C743.34,909.40 759.13,905.93 763.00,905.00 C764.92,904.54 768.53,903.71 771.00,903.17 C773.47,902.63 778.42,901.35 782.00,900.33 L 788.50 898.47 L 788.76 821.73 C788.90,779.53 788.67,745.00 788.26,745.00 C787.84,745.01 780.08,746.41 771.00,748.11 C761.92,749.82 753.15,751.24 751.50,751.26 C749.85,751.28 748.28,751.60 748.00,751.97 C747.46,752.68 723.15,757.31 719.00,757.50 C717.62,757.56 715.83,757.89 715.00,758.24 C712.32,759.37 703.59,760.86 702.74,760.34 C702.28,760.06 701.37,760.25 700.71,760.77 C699.22,761.93 687.68,764.20 683.25,764.20 C681.46,764.20 679.74,764.61 679.43,765.12 C679.12,765.62 678.40,765.75 677.84,765.40 C677.27,765.05 675.84,765.24 674.65,765.83 C671.87,767.20 635.92,774.00 631.43,774.00 C629.54,774.00 628.00,773.55 628.00,773.00 C628.00,772.45 627.31,772.00 626.48,772.00 C625.64,772.00 624.55,770.94 624.05,769.64 C623.56,768.34 622.44,767.00 621.58,766.67 C620.71,766.34 620.00,765.60 620.00,765.03 C620.00,764.46 619.21,763.17 618.25,762.16 C617.29,761.16 615.83,759.29 615.00,758.01 C614.17,756.73 612.71,754.98 611.75,754.12 C610.79,753.26 610.00,752.03 610.00,751.38 C610.00,750.74 609.33,749.95 608.50,749.64 C607.67,749.32 606.99,748.49 606.97,747.78 C606.96,747.08 605.61,745.19 603.97,743.58 C602.34,741.98 601.00,740.08 601.00,739.37 C601.00,738.65 600.10,737.59 599.00,737.00 C597.90,736.41 597.00,735.27 597.00,734.46 C597.00,733.66 596.55,733.00 596.00,733.00 C595.45,733.00 595.00,732.42 595.00,731.72 C595.00,731.02 594.21,729.74 593.25,728.88 C592.29,728.02 590.83,726.27 590.00,724.99 C589.17,723.71 587.71,721.84 586.75,720.84 C585.79,719.83 585.00,718.70 585.00,718.33 C585.00,717.67 583.12,715.49 579.75,712.24 C578.79,711.31 578.00,710.03 578.00,709.38 C578.00,708.74 577.33,707.95 576.50,707.64 C575.67,707.32 575.00,706.56 575.00,705.94 C575.00,704.28 570.90,701.19 567.75,700.47 C566.24,700.12 565.00,699.44 565.00,698.95 C565.00,698.46 564.38,698.30 563.63,698.59 C562.87,698.88 561.53,698.39 560.64,697.49 C559.74,696.60 558.56,696.15 558.01,696.50 C557.45,696.84 557.00,696.61 557.00,696.00 C557.00,695.39 556.55,695.16 556.00,695.50 C555.45,695.84 555.00,695.74 555.00,695.27 C555.00,694.81 554.21,694.37 553.25,694.29 C551.59,694.17 551.48,700.62 551.16,814.33 C550.97,880.42 551.14,938.89 551.52,944.25 ZM 456.00 749.97 C459.02,750.39 462.03,750.80 462.68,750.87 C463.97,751.01 465.69,749.45 468.00,746.02 C471.33,741.09 476.93,733.40 478.30,731.86 C479.11,730.97 480.83,728.73 482.14,726.89 C483.44,725.06 485.08,722.93 485.79,722.16 C486.50,721.40 488.58,718.46 490.41,715.64 C492.24,712.81 494.69,709.38 495.85,708.00 C497.01,706.62 498.42,704.96 498.98,704.29 C499.54,703.63 500.00,702.79 500.00,702.42 C500.00,702.06 501.35,700.23 503.00,698.35 C504.65,696.47 506.00,694.50 506.00,693.97 C506.00,693.43 506.79,692.20 507.75,691.22 C508.71,690.24 510.62,687.94 512.00,686.12 C513.38,684.30 515.45,681.61 516.60,680.15 C521.20,674.35 521.37,673.28 518.65,667.67 C517.27,664.83 515.63,660.85 515.02,658.83 C513.78,654.76 513.41,654.64 499.50,653.52 C495.65,653.21 490.25,652.76 487.50,652.51 C477.01,651.56 415.65,644.91 386.50,641.57 C374.40,640.18 362.02,638.80 359.00,638.51 C355.98,638.21 341.12,636.38 326.00,634.45 C310.88,632.51 297.60,630.88 296.50,630.84 C294.98,630.78 243.33,624.98 223.71,622.66 C221.48,622.40 220.28,623.12 217.71,626.25 C215.94,628.40 213.71,631.02 212.75,632.08 C211.79,633.14 211.00,634.41 211.00,634.90 C211.00,635.72 207.05,640.65 202.92,644.99 C202.06,645.91 201.06,647.41 200.70,648.33 C200.35,649.25 199.60,650.00 199.03,650.00 C198.46,650.00 198.00,650.67 198.00,651.49 C198.00,652.31 197.10,653.55 196.00,654.23 C194.90,654.92 194.00,656.25 194.00,657.19 C194.00,658.13 193.34,659.27 192.54,659.72 C191.73,660.17 189.37,662.80 187.29,665.57 C183.40,670.74 181.80,672.71 178.75,676.07 C177.79,677.13 177.00,678.34 177.00,678.75 C176.99,679.16 175.42,681.21 173.50,683.31 C171.57,685.40 170.00,687.53 170.00,688.05 C170.00,688.56 169.10,689.55 168.00,690.23 C166.90,690.92 166.00,692.06 166.00,692.77 C166.00,693.48 165.32,694.32 164.50,694.64 C163.68,694.95 163.00,695.75 163.00,696.41 C163.00,697.06 161.25,699.41 159.12,701.64 C155.33,705.58 153.05,709.92 154.68,710.08 C155.13,710.12 156.40,710.33 157.50,710.54 C161.84,711.39 173.93,713.09 182.00,713.99 C186.68,714.51 197.48,715.86 206.00,716.98 C214.52,718.10 235.45,720.85 252.50,723.07 C269.55,725.30 286.65,727.56 290.50,728.09 C294.35,728.63 302.90,729.71 309.50,730.51 C316.10,731.30 326.45,732.64 332.50,733.47 C338.55,734.30 352.27,736.12 363.00,737.51 C373.73,738.90 389.02,740.92 397.00,742.00 C404.98,743.07 420.27,745.14 431.00,746.58 C441.73,748.02 452.98,749.55 456.00,749.97 ZM 628.79 749.00 C631.67,752.85 634.58,756.00 635.26,756.00 C635.94,755.99 645.95,754.24 657.50,752.11 C669.05,749.97 684.12,747.24 691.00,746.05 C697.88,744.85 704.85,743.50 706.50,743.05 C708.15,742.60 715.12,741.25 722.00,740.04 C728.88,738.84 735.85,737.46 737.50,736.98 C739.15,736.50 744.78,735.37 750.00,734.47 C755.22,733.56 761.08,732.42 763.00,731.94 C764.92,731.45 777.30,728.99 790.50,726.48 C803.70,723.96 816.75,721.45 819.50,720.90 C822.25,720.35 834.17,718.00 845.99,715.69 C861.91,712.57 867.55,711.10 867.75,709.99 C867.90,709.17 865.77,706.03 863.02,703.00 C860.26,699.97 858.01,697.21 858.00,696.86 C858.00,696.51 856.44,694.48 854.52,692.36 C852.61,690.24 851.04,688.18 851.02,687.79 C851.01,687.40 850.17,686.27 849.15,685.29 C848.14,684.31 844.52,679.90 841.11,675.50 C837.70,671.10 833.92,666.34 832.71,664.91 C831.49,663.49 829.83,661.31 829.00,660.07 C828.17,658.84 826.60,656.80 825.50,655.54 C824.40,654.29 822.60,651.99 821.50,650.44 C820.40,648.88 818.49,646.72 817.25,645.63 C816.01,644.53 815.00,643.08 815.00,642.40 C815.00,641.72 814.65,641.02 814.23,640.83 C813.81,640.65 811.49,638.14 809.07,635.25 C805.83,631.37 804.00,630.00 802.07,630.00 C800.63,630.00 787.31,631.98 772.48,634.40 C757.64,636.83 740.44,639.58 734.25,640.52 C728.06,641.47 723.00,642.65 723.00,643.16 C723.00,644.94 706.14,660.93 703.58,661.57 C702.16,661.93 701.00,662.56 701.00,662.98 C701.00,663.40 698.41,664.86 695.25,666.23 C684.57,670.85 668.55,673.94 655.00,673.99 L 647.50 674.02 L 645.10 678.21 C642.32,683.08 631.08,694.98 629.25,694.99 C628.56,695.00 628.00,695.37 628.00,695.81 C628.00,696.74 621.56,700.00 619.72,700.01 C619.05,700.01 617.15,700.75 615.50,701.64 C613.73,702.61 609.13,703.48 604.25,703.76 C599.71,704.03 596.00,704.64 596.00,705.11 C596.00,705.58 598.92,709.76 602.50,714.39 C606.08,719.02 609.00,723.10 609.00,723.46 C609.00,723.82 610.35,725.55 612.00,727.30 C613.64,729.06 614.99,730.81 615.00,731.19 C615.00,731.58 616.57,733.60 618.50,735.69 C620.42,737.79 621.99,740.06 622.00,740.75 C622.00,741.44 622.35,742.00 622.78,742.00 C623.20,742.00 625.91,745.15 628.79,749.00 ZM 735.52 621.88 C734.82,624.13 734.97,624.23 738.14,623.68 C739.99,623.36 745.33,622.57 750.00,621.94 C754.67,621.31 760.75,620.36 763.50,619.83 C766.25,619.30 771.65,618.47 775.50,617.98 C789.13,616.25 796.00,613.81 796.00,610.69 C796.00,609.61 796.86,606.87 797.91,604.61 C801.92,595.97 803.00,593.13 803.00,591.23 C803.00,590.15 803.93,586.39 805.07,582.88 C806.86,577.40 811.66,560.05 815.14,546.50 C815.71,544.30 816.55,541.60 817.01,540.50 C817.47,539.40 818.61,536.25 819.53,533.50 C821.62,527.32 825.24,520.09 829.58,513.42 C834.94,505.18 846.99,495.46 857.29,491.08 C882.32,480.43 890.93,471.79 890.98,457.29 C891.02,444.60 883.68,433.67 872.22,429.37 C869.62,428.40 867.27,427.27 866.99,426.87 C866.70,426.47 865.80,426.22 864.99,426.30 C864.17,426.39 860.58,426.12 857.00,425.69 C845.16,424.29 829.30,428.37 816.35,436.15 C808.84,440.66 798.26,450.55 792.17,458.77 C785.85,467.29 775.84,486.54 774.45,492.83 C774.29,493.56 773.83,494.91 773.43,495.83 C773.03,496.75 772.58,498.10 772.43,498.83 C772.28,499.56 771.83,500.91 771.44,501.83 C771.04,502.75 770.62,504.17 770.50,505.00 C770.02,508.31 765.82,527.60 765.27,529.00 C764.95,529.83 764.76,530.84 764.84,531.26 C764.93,531.68 764.54,533.93 763.97,536.26 C763.40,538.59 762.69,542.27 762.40,544.44 C762.11,546.61 761.51,549.08 761.07,549.94 C760.63,550.80 760.48,552.08 760.73,552.78 C760.98,553.49 760.70,554.66 760.10,555.38 C759.51,556.09 758.82,558.22 758.58,560.09 C758.33,561.97 758.05,563.72 757.95,564.00 C757.85,564.28 757.83,564.88 757.92,565.36 C758.00,565.83 757.59,566.79 757.00,567.50 C756.41,568.21 756.00,569.17 756.08,569.64 C756.17,570.12 756.15,570.72 756.04,571.00 C755.92,571.28 755.72,572.40 755.58,573.50 C755.04,577.66 753.82,582.00 753.17,582.00 C752.80,582.00 752.43,583.18 752.35,584.63 C752.26,586.08 751.59,587.65 750.85,588.12 C750.11,588.59 749.89,588.98 750.37,588.98 C750.85,588.99 750.74,589.60 750.13,590.34 C749.52,591.08 749.31,591.98 749.68,592.34 C750.04,592.70 749.78,593.00 749.11,593.00 C748.43,593.00 748.16,593.45 748.50,594.00 C749.16,595.08 741.40,612.20 738.19,616.77 C737.13,618.27 735.93,620.57 735.52,621.88 ZM 501.75 473.95 C497.74,475.64 494.02,476.24 486.00,476.50 C474.69,476.87 471.00,476.46 471.00,474.82 C471.00,474.25 470.38,474.02 469.63,474.31 C468.29,474.83 458.07,470.63 457.02,469.14 C456.74,468.73 454.80,467.36 452.73,466.10 C450.65,464.84 446.94,461.26 444.47,458.15 C442.00,455.04 439.51,451.92 438.92,451.22 C435.83,447.48 431.46,434.93 430.16,426.03 C429.51,421.65 429.40,421.53 425.07,420.80 C422.64,420.38 420.33,419.53 419.93,418.89 C419.54,418.26 418.78,418.02 418.24,418.35 C416.51,419.42 406.19,411.12 402.03,405.31 C397.46,398.92 396.65,393.53 399.83,390.65 C403.61,387.23 406.07,388.38 413.57,397.09 C415.35,399.16 419.01,401.64 422.28,403.00 C427.54,405.18 428.32,405.25 433.71,404.06 C438.49,403.01 440.30,401.96 444.12,398.03 C447.08,394.99 448.90,392.14 449.20,390.08 C449.63,387.18 449.23,386.57 445.09,383.75 C435.75,377.39 429.62,368.99 428.86,361.50 C428.28,355.87 430.03,346.92 431.83,346.33 C432.75,346.03 435.08,345.05 437.00,344.14 C442.14,341.73 464.72,341.90 475.50,344.43 C490.25,347.89 493.62,351.91 490.57,362.39 C488.89,368.19 480.99,379.00 478.45,379.00 C477.65,379.00 477.00,379.39 477.00,379.88 C477.00,380.36 474.79,381.70 472.09,382.87 L 467.18 384.98 L 468.28 388.57 C469.89,393.81 476.29,400.52 482.47,403.44 C486.93,405.55 489.34,406.00 496.27,406.00 C503.77,406.00 505.41,405.64 511.61,402.62 C516.02,400.48 519.81,397.73 522.02,395.08 C530.31,385.15 530.85,384.72 534.29,385.38 C536.06,385.72 538.79,387.42 540.37,389.15 C542.99,392.03 543.20,392.79 542.70,397.63 C542.40,400.55 541.80,403.51 541.37,404.21 C540.94,404.90 540.54,406.15 540.46,406.98 C538.28,432.29 531.87,449.00 519.59,461.45 C515.54,465.55 511.05,469.20 509.61,469.56 C508.17,469.92 507.00,470.56 507.00,470.98 C507.00,471.39 504.64,472.73 501.75,473.95 ZM 577.43 362.90 C558.68,368.10 544.35,350.51 547.24,325.81 C549.53,306.16 564.63,292.16 579.31,296.07 C585.01,297.59 592.06,304.98 595.10,312.62 C598.46,321.09 598.44,335.96 595.05,344.49 C592.05,352.06 583.21,361.29 577.43,362.90 ZM 403.52 357.13 C398.75,359.30 394.89,359.41 389.62,357.53 C374.68,352.20 368.60,327.57 377.56,308.65 C383.12,296.91 390.02,292.00 400.97,292.00 C407.28,292.00 407.32,292.02 412.51,297.25 C419.71,304.51 422.43,312.62 421.76,324.86 C421.46,330.37 420.50,335.56 419.09,339.20 C416.43,346.10 409.02,354.63 403.52,357.13 ZM 676.45 223.45 C673.34,226.57 670.92,226.68 668.40,223.85 C667.36,222.67 662.45,218.32 657.50,214.20 C652.55,210.07 648.35,206.32 648.17,205.85 C647.98,205.38 647.23,205.00 646.50,205.00 C645.77,205.00 645.02,204.65 644.83,204.21 C644.65,203.78 640.67,201.21 636.00,198.50 C631.33,195.79 627.35,193.22 627.17,192.79 C626.98,192.35 626.22,192.00 625.46,192.00 C624.71,192.00 622.95,190.85 621.55,189.45 C617.39,185.30 618.08,181.47 624.69,171.81 C627.81,167.24 630.85,162.95 631.44,162.28 C632.71,160.83 633.48,159.86 637.97,154.00 C644.78,145.11 660.14,128.18 666.18,122.89 C674.30,115.77 677.02,114.01 679.88,114.01 C682.63,114.00 686.00,117.42 686.00,120.21 C686.00,121.27 681.07,127.26 674.84,133.75 C656.57,152.82 637.32,178.08 638.58,181.35 C638.94,182.29 642.44,185.12 646.37,187.65 C655.43,193.49 669.15,204.98 672.13,209.23 C673.40,211.03 674.79,212.65 675.23,212.84 C676.21,213.25 679.00,218.49 679.00,219.90 C679.00,220.46 677.85,222.05 676.45,223.45 ZM 329.25 218.87 C328.08,219.49 326.45,220.00 325.62,220.00 C323.77,220.00 321.00,216.22 321.00,213.71 C321.00,210.73 326.72,203.26 332.32,198.93 C335.17,196.72 338.40,194.14 339.50,193.18 C341.82,191.17 355.32,182.52 362.25,178.60 C364.86,177.12 367.00,175.40 367.00,174.77 C367.00,170.70 350.93,146.56 333.62,124.63 C330.34,120.46 329.96,116.81 332.53,113.97 C334.71,111.56 337.26,111.47 340.64,113.69 C348.32,118.72 376.35,156.78 383.44,171.79 C387.58,180.57 386.80,182.34 376.53,187.50 C372.14,189.70 368.04,191.97 367.42,192.53 C366.80,193.10 364.10,194.68 361.43,196.03 C358.76,197.39 355.76,199.22 354.77,200.09 C353.78,200.96 351.74,202.31 350.23,203.09 C348.73,203.86 347.27,204.78 347.00,205.12 C345.96,206.41 331.27,217.78 329.25,218.87 ZM 478.50 463.00 C481.56,464.31 485.67,464.15 491.35,462.50 C504.42,458.68 515.42,447.24 519.49,433.23 C520.53,429.64 514.70,427.66 503.50,427.82 C493.29,427.96 491.69,428.16 487.50,429.84 C478.95,433.25 476.15,434.86 472.02,438.73 C469.53,441.06 467.16,442.97 466.75,442.98 C466.34,442.99 466.00,443.59 466.00,444.31 C466.00,445.03 465.21,446.50 464.25,447.56 C463.29,448.63 462.36,450.71 462.19,452.19 C461.93,454.42 462.71,455.50 466.69,458.42 C469.33,460.36 472.62,461.99 474.00,462.05 C475.38,462.10 477.40,462.53 478.50,463.00 ZM 607.25 243.23 C603.87,246.20 601.68,245.96 593.87,241.81 C583.83,236.47 576.08,235.74 563.55,238.93 C554.11,241.34 551.30,241.04 550.42,237.55 C549.04,232.06 550.23,229.78 556.00,226.88 C564.40,222.66 568.76,221.76 579.08,222.15 C587.29,222.45 589.37,222.92 595.28,225.79 C607.18,231.58 612.20,238.88 607.25,243.23 ZM 371.00 238.44 C361.34,242.55 359.68,242.68 357.16,239.47 C353.41,234.70 357.19,227.71 365.50,224.05 C373.98,220.31 375.34,220.00 383.36,220.00 C392.14,220.00 396.97,221.58 403.75,226.66 C407.58,229.54 408.23,234.57 405.14,237.37 C403.22,239.11 396.33,239.03 395.09,237.26 C394.77,236.79 392.92,236.22 391.00,235.99 C382.98,235.05 377.36,235.73 371.00,238.44 ZM 309.50 616.90 C322.15,618.50 335.30,619.85 338.73,619.90 C338.99,619.91 339.23,619.91 339.47,619.92 C342.02,619.96 343.51,619.99 344.43,619.27 C345.82,618.19 345.89,615.42 346.30,608.45 C346.66,602.17 346.50,601.39 344.87,601.27 C343.86,601.19 342.79,601.53 342.48,602.03 C342.17,602.53 340.64,602.68 339.08,602.37 C337.48,602.05 335.95,602.28 335.56,602.90 C335.18,603.51 333.83,603.74 332.55,603.42 C331.27,603.10 329.92,603.33 329.55,603.92 C329.18,604.52 327.83,604.74 326.55,604.42 C325.27,604.10 323.93,604.31 323.57,604.89 C323.21,605.46 321.64,605.68 320.08,605.37 C318.48,605.05 316.95,605.28 316.56,605.90 C316.18,606.51 314.83,606.74 313.55,606.42 C312.27,606.10 310.93,606.31 310.57,606.89 C310.21,607.46 308.64,607.68 307.08,607.37 C305.52,607.05 303.95,607.27 303.59,607.86 C303.23,608.44 302.28,608.66 301.47,608.35 C300.66,608.04 299.21,608.13 298.25,608.54 C297.29,608.96 295.53,609.20 294.35,609.09 C293.16,608.98 291.90,609.36 291.54,609.94 C291.18,610.52 289.59,611.00 288.00,611.00 C284.92,611.00 283.01,612.69 285.19,613.50 C285.91,613.77 296.85,615.30 309.50,616.90 ZM 255.80 388.75 C257.14,390.54 258.63,392.00 259.12,392.00 C259.17,392.00 259.22,392.00 259.26,392.00 C259.47,392.01 259.63,392.01 259.74,391.93 C260.12,391.68 259.87,390.48 258.73,385.09 C258.66,384.75 258.58,384.38 258.50,384.01 C257.68,380.09 256.71,373.08 256.35,368.44 L 255.70 360.00 L 252.41 360.00 C250.60,360.00 248.90,360.36 248.63,360.79 C248.02,361.78 251.47,382.31 252.55,384.14 C253.00,384.89 254.46,386.96 255.80,388.75 Z" fill="rgb(47,24,4)"/>
<path d="M 551.19 803.17 C551.49,700.19 551.65,694.17 553.25,694.29 C554.21,694.37 555.00,694.81 555.00,695.27 C555.00,695.74 555.45,695.84 556.00,695.50 C556.55,695.16 557.00,695.39 557.00,696.00 C557.00,696.61 557.45,696.84 558.01,696.50 C558.56,696.15 559.74,696.60 560.64,697.49 C561.53,698.39 562.87,698.88 563.63,698.59 C564.38,698.30 565.00,698.46 565.00,698.95 C565.00,699.44 566.24,700.12 567.75,700.47 C570.90,701.19 575.00,704.28 575.00,705.94 C575.00,706.56 575.67,707.32 576.50,707.64 C577.33,707.95 578.00,708.74 578.00,709.38 C578.00,710.03 578.79,711.31 579.75,712.24 C583.12,715.49 585.00,717.67 585.00,718.33 C585.00,718.70 585.79,719.83 586.75,720.84 C587.71,721.84 589.17,723.71 590.00,724.99 C590.83,726.27 592.29,728.02 593.25,728.88 C594.21,729.74 595.00,731.02 595.00,731.72 C595.00,732.42 595.45,733.00 596.00,733.00 C596.55,733.00 597.00,733.66 597.00,734.46 C597.00,735.27 597.90,736.41 599.00,737.00 C600.10,737.59 601.00,738.65 601.00,739.37 C601.00,740.08 602.34,741.98 603.97,743.58 C605.61,745.19 606.96,747.08 606.97,747.78 C606.99,748.49 607.67,749.32 608.50,749.64 C609.33,749.95 610.00,750.74 610.00,751.38 C610.00,752.03 610.79,753.26 611.75,754.12 C612.71,754.98 614.17,756.73 615.00,758.01 C615.83,759.29 617.29,761.16 618.25,762.16 C619.21,763.17 620.00,764.46 620.00,765.03 C620.00,765.60 620.71,766.34 621.58,766.67 C622.44,767.00 623.56,768.34 624.05,769.64 C624.55,770.94 625.64,772.00 626.48,772.00 C627.31,772.00 628.00,772.45 628.00,773.00 C628.00,773.55 629.54,774.00 631.43,774.00 C635.92,774.00 671.87,767.20 674.65,765.83 C675.84,765.24 677.27,765.05 677.84,765.40 C678.40,765.75 679.12,765.62 679.43,765.12 C679.74,764.61 681.46,764.20 683.25,764.20 C687.68,764.20 699.22,761.93 700.71,760.77 C701.37,760.25 702.28,760.06 702.74,760.34 C703.59,760.86 712.32,759.37 715.00,758.24 C715.83,757.89 717.62,757.56 719.00,757.50 C723.15,757.31 747.46,752.68 748.00,751.97 C748.28,751.60 749.85,751.28 751.50,751.26 C753.15,751.24 761.92,749.82 771.00,748.11 C780.08,746.41 787.84,745.01 788.26,745.00 C788.57,745.00 788.77,764.36 788.80,791.79 C788.70,775.21 788.39,769.95 787.76,769.89 C784.77,769.64 779.86,770.30 770.50,772.19 C765.00,773.30 756.90,774.85 752.50,775.64 C741.08,777.67 737.06,778.44 723.00,781.30 C716.12,782.70 704.24,784.80 696.60,785.96 C688.95,787.12 682.36,788.28 681.96,788.53 C680.27,789.57 620.24,799.07 617.05,798.80 C616.43,798.74 615.93,798.72 615.45,798.60 C613.05,798.02 611.23,795.05 597.59,773.74 C594.34,768.66 583.90,752.71 574.39,738.29 C564.87,723.87 556.31,710.60 555.35,708.79 C554.01,706.28 553.51,705.91 553.23,707.25 C553.02,708.21 552.55,709.00 552.18,709.00 C551.75,709.00 551.39,753.13 551.19,803.17 ZM 309.50 616.90 C300.06,615.70 291.58,614.55 287.57,613.93 C289.84,613.87 292.50,613.08 292.50,612.00 C292.50,611.03 291.81,610.68 289.90,610.78 C290.70,610.58 291.33,610.28 291.54,609.94 C291.90,609.36 293.16,608.98 294.35,609.09 C295.53,609.20 297.29,608.96 298.25,608.54 C299.21,608.13 300.66,608.04 301.47,608.35 C302.28,608.66 303.23,608.44 303.59,607.86 C303.95,607.27 305.52,607.05 307.08,607.37 C308.64,607.68 310.21,607.46 310.57,606.89 C310.93,606.31 312.27,606.10 313.55,606.42 C314.83,606.74 316.18,606.51 316.56,605.90 C316.95,605.28 318.48,605.05 320.08,605.37 C321.64,605.68 323.21,605.46 323.57,604.89 C323.93,604.31 325.27,604.10 326.55,604.42 C327.83,604.74 329.18,604.52 329.55,603.92 C329.92,603.33 331.27,603.10 332.55,603.42 C333.83,603.74 335.18,603.51 335.56,602.90 C335.95,602.28 337.48,602.05 339.08,602.37 C340.64,602.68 342.17,602.53 342.48,602.03 C342.79,601.53 343.86,601.19 344.87,601.27 C346.50,601.39 346.66,602.17 346.30,608.45 C345.89,615.42 345.82,618.19 344.43,619.27 C343.51,619.99 342.02,619.96 339.47,619.92 C339.23,619.91 338.99,619.91 338.73,619.90 C335.30,619.85 322.15,618.50 309.50,616.90 ZM 534.46 166.66 C519.65,164.56 485.10,164.16 465.32,165.59 C491.34,162.58 510.27,162.93 534.46,166.66 ZM 284.58 613.12 C284.60,613.16 284.63,613.20 284.66,613.24 C284.25,612.96 284.17,612.63 284.33,612.31 C284.30,612.54 284.38,612.81 284.58,613.12 ZM 287.59 611.01 C286.80,611.12 286.17,611.23 285.68,611.37 C286.21,611.18 286.86,611.05 287.59,611.01 ZM 444.11 168.45 C442.86,168.67 441.92,168.84 441.03,169.03 C441.99,168.83 442.95,168.65 444.11,168.45 Z" fill="rgb(197,134,61)"/>
<path d="M 824.13 501.17 C827.41,505.47 830.58,509.00 831.18,509.00 C831.78,509.00 834.16,507.31 836.47,505.25 C836.78,504.97 837.09,504.70 837.39,504.43 C834.20,507.41 831.47,510.51 829.58,513.42 C825.24,520.09 821.62,527.32 819.53,533.50 C818.61,536.25 817.47,539.40 817.01,540.50 C816.55,541.60 815.71,544.30 815.14,546.50 C813.40,553.28 811.33,561.01 809.47,567.72 C809.96,565.86 810.48,563.85 811.04,561.68 L 814.31 548.86 L 806.41 540.84 C794.69,528.96 784.91,521.29 776.56,517.43 C772.51,515.56 769.00,514.02 768.71,514.00 C769.58,509.92 770.32,506.28 770.50,505.00 C770.62,504.17 771.04,502.75 771.44,501.83 C771.83,500.91 772.28,499.56 772.43,498.83 C772.58,498.10 773.03,496.75 773.43,495.83 C773.83,494.91 774.29,493.56 774.45,492.83 C775.39,488.56 780.31,478.31 785.35,469.51 C785.19,470.05 785.14,470.49 785.21,470.84 C785.37,471.66 786.85,472.78 788.50,473.33 C793.65,475.05 807.38,483.64 812.89,488.59 C815.79,491.20 820.85,496.86 824.13,501.17 ZM 797.75 584.54 C799.26,586.36 801.17,587.88 802.00,587.92 C802.90,587.96 803.95,586.15 805.48,581.61 C805.33,582.09 805.20,582.51 805.07,582.88 C803.93,586.39 803.00,590.15 803.00,591.23 C803.00,593.13 801.92,595.97 797.91,604.61 C796.86,606.87 796.00,609.61 796.00,610.69 C796.00,613.81 789.13,616.25 775.50,617.98 C773.02,618.30 769.88,618.76 767.24,619.18 C769.65,618.29 770.33,617.10 769.15,615.68 C768.44,614.83 763.29,611.54 757.68,608.36 C752.08,605.18 747.12,602.12 746.66,601.54 C746.15,600.92 746.04,601.21 746.37,602.25 C746.68,603.21 746.51,604.00 745.99,604.00 C745.46,604.00 743.84,606.36 742.39,609.25 C742.01,610.01 741.59,610.81 741.16,611.60 C744.69,604.80 749.00,594.81 748.50,594.00 C748.16,593.45 748.43,593.00 749.11,593.00 C749.78,593.00 750.04,592.70 749.68,592.34 C749.31,591.98 749.52,591.08 750.13,590.34 C750.74,589.60 750.85,588.99 750.37,588.98 C749.89,588.98 750.11,588.59 750.85,588.12 C751.59,587.65 752.26,586.08 752.35,584.63 C752.43,583.18 752.80,582.00 753.17,582.00 C753.82,582.00 755.04,577.66 755.58,573.50 C755.72,572.40 755.92,571.28 756.04,571.00 C756.15,570.72 756.17,570.12 756.08,569.64 C756.00,569.17 756.41,568.21 757.00,567.50 C757.59,566.79 758.00,565.83 757.92,565.36 C757.83,564.88 757.85,564.28 757.95,564.00 C758.05,563.72 758.33,561.97 758.58,560.09 C758.67,559.36 758.83,558.59 759.03,557.88 C759.01,558.08 759.00,558.28 759.00,558.48 C759.00,560.33 759.70,560.99 762.25,561.55 C770.57,563.35 791.32,576.79 797.75,584.54 ZM 509.92 164.98 C509.54,166.26 507.89,171.53 505.93,177.70 C503.70,184.74 500.56,195.58 498.97,201.79 C495.84,214.01 491.83,223.94 488.99,226.51 C485.25,229.90 478.32,228.50 475.54,223.80 C472.26,218.24 471.82,194.93 474.56,171.09 L 475.25 165.06 C485.92,164.67 498.56,164.64 509.92,164.98 ZM 478.50 463.00 C477.40,462.53 475.38,462.10 474.00,462.05 C472.62,461.99 469.33,460.36 466.69,458.42 C462.71,455.50 461.93,454.42 462.19,452.19 C462.36,450.71 463.29,448.63 464.25,447.56 C465.21,446.50 466.00,445.03 466.00,444.31 C466.00,443.59 466.34,442.99 466.75,442.98 C467.16,442.97 469.53,441.06 472.02,438.73 C476.15,434.86 478.95,433.25 487.50,429.84 C491.69,428.16 493.29,427.96 503.50,427.82 C514.70,427.66 520.53,429.64 519.49,433.23 C515.42,447.24 504.42,458.68 491.35,462.50 C490.20,462.83 489.13,463.10 488.11,463.31 C488.30,463.22 488.43,463.11 488.50,463.00 C488.88,462.39 487.34,462.00 484.56,462.00 C482.05,462.00 480.00,462.45 480.00,463.00 C480.00,463.31 480.56,463.58 481.43,463.77 C480.36,463.64 479.38,463.38 478.50,463.00 ZM 562.00 172.56 C559.44,172.11 558.04,173.96 555.03,180.59 C550.87,189.76 540.27,206.59 536.84,209.49 C533.29,212.47 528.04,212.83 525.78,210.25 C522.24,206.20 523.18,192.19 528.08,176.09 C530.16,169.26 530.04,166.97 526.98,165.86 C529.81,166.09 532.34,166.36 534.46,166.66 C534.80,166.71 535.15,166.77 535.50,166.82 C542.10,167.86 547.89,168.49 548.36,168.23 C548.84,167.96 549.51,168.15 549.86,168.64 C550.43,169.43 556.51,171.29 562.00,172.56 ZM 459.41 166.32 C459.15,167.17 458.33,173.31 457.51,180.54 C454.89,203.77 451.99,212.00 446.41,212.00 C440.72,212.00 436.02,200.74 433.97,182.17 L 432.72 170.84 L 430.61 171.08 C433.23,170.71 435.94,170.23 437.50,169.85 C438.88,169.52 439.96,169.26 441.03,169.03 C441.92,168.84 442.86,168.67 444.11,168.45 C446.66,168.03 450.21,167.54 457.00,166.63 C457.81,166.53 458.61,166.42 459.41,166.32 ZM 284.58 613.12 C284.38,612.81 284.30,612.54 284.33,612.31 C284.51,611.95 284.99,611.61 285.68,611.37 C286.17,611.23 286.80,611.12 287.59,611.01 C287.73,611.00 287.86,611.00 288.00,611.00 C288.66,611.00 289.32,610.92 289.90,610.78 C291.81,610.68 292.50,611.03 292.50,612.00 C292.50,613.08 289.84,613.87 287.57,613.93 C286.21,613.72 285.37,613.57 285.19,613.50 C284.97,613.42 284.80,613.33 284.66,613.24 C284.63,613.20 284.60,613.16 284.58,613.12 ZM 790.89 460.57 C791.33,459.93 791.76,459.33 792.17,458.77 C797.12,452.09 805.04,444.30 811.87,439.19 C805.03,444.52 796.45,453.43 790.89,460.57 ZM 571.03 173.89 C568.52,174.11 565.66,173.82 563.44,172.98 C563.14,172.86 562.85,172.76 562.57,172.69 C564.90,173.21 567.08,173.61 568.64,173.77 C569.52,173.86 570.30,173.90 571.03,173.89 ZM 761.48 548.84 C761.41,549.09 761.34,549.32 761.28,549.50 C760.92,550.60 760.72,552.25 760.86,553.16 C760.99,554.08 760.62,555.11 760.05,555.47 C760.04,555.48 760.03,555.48 760.01,555.49 C760.04,555.45 760.07,555.41 760.10,555.38 C760.70,554.66 760.98,553.49 760.73,552.78 C760.48,552.08 760.63,550.80 761.07,549.94 C761.19,549.69 761.33,549.31 761.48,548.84 ZM 586.31 160.30 C585.20,161.66 584.14,162.98 583.13,164.26 C580.21,167.98 576.86,171.69 575.68,172.51 C575.18,172.86 574.52,173.16 573.77,173.38 C576.23,172.44 578.50,170.01 582.71,164.73 C583.86,163.29 585.06,161.81 586.31,160.30 ZM 618.48 124.53 C633.49,108.96 648.45,94.79 657.98,87.52 C648.58,94.68 633.45,109.03 618.48,124.53 ZM 756.17 621.05 C754.10,621.36 751.93,621.68 750.00,621.94 C748.81,622.10 747.58,622.27 746.38,622.44 C749.46,621.97 753.10,621.45 756.17,621.05 ZM 737.84 623.73 C735.82,624.08 735.16,624.10 735.18,623.33 C735.19,623.40 735.21,623.46 735.24,623.52 C735.45,623.87 736.15,623.92 737.84,623.73 ZM 766.67 523.28 C766.33,525.06 765.95,526.65 765.61,527.80 C765.87,526.76 766.25,525.16 766.67,523.28 ZM 848.69 495.69 C851.60,493.80 854.41,492.30 857.29,491.08 C854.49,492.26 851.57,493.85 848.69,495.69 ZM 764.11 535.66 C764.07,535.83 764.03,536.01 763.99,536.19 C763.81,536.94 763.61,537.81 763.42,538.70 C763.61,537.81 763.79,536.97 763.97,536.26 C764.02,536.06 764.07,535.86 764.11,535.66 Z" fill="rgb(221,111,14)"/>
<path d="M 551.52 944.25 C551.14,938.89 550.97,880.42 551.16,814.33 C551.17,810.49 551.18,806.77 551.19,803.17 C551.39,753.13 551.75,709.00 552.18,709.00 C552.55,709.00 553.02,708.21 553.23,707.25 C553.51,705.91 554.01,706.28 555.35,708.79 C556.31,710.60 564.87,723.87 574.39,738.29 C583.90,752.71 594.34,768.66 597.59,773.74 C611.23,795.05 613.05,798.02 615.45,798.60 C615.93,798.72 616.43,798.74 617.05,798.80 C620.24,799.07 680.27,789.57 681.96,788.53 C682.36,788.28 688.95,787.12 696.60,785.96 C704.24,784.80 716.12,782.70 723.00,781.30 C737.06,778.44 741.08,777.67 752.50,775.64 C756.90,774.85 765.00,773.30 770.50,772.19 C779.86,770.30 784.77,769.64 787.76,769.89 C788.39,769.95 788.70,775.21 788.80,791.79 L 788.80 791.79 C788.80,801.00 788.79,811.13 788.76,821.73 L 788.50 898.47 L 782.00 900.33 C778.42,901.35 773.47,902.63 771.00,903.17 C768.53,903.71 764.92,904.54 763.00,905.00 C759.13,905.93 743.34,909.40 732.50,911.70 C728.65,912.52 723.70,913.81 721.50,914.58 C719.30,915.34 716.48,915.98 715.24,915.99 C713.99,915.99 712.19,916.40 711.24,916.89 C710.28,917.39 707.25,918.25 704.50,918.80 C701.75,919.36 696.80,920.50 693.50,921.33 C685.15,923.42 678.33,924.96 672.73,926.00 C670.10,926.49 666.50,927.34 664.73,927.89 C662.95,928.44 651.15,931.35 638.50,934.36 C625.85,937.37 613.70,940.29 611.50,940.84 C609.30,941.39 604.80,942.36 601.50,943.01 C598.20,943.65 594.72,944.59 593.76,945.09 C592.81,945.59 591.12,946.00 590.01,946.00 C588.90,946.00 580.51,947.80 571.38,950.00 C562.24,952.20 554.19,954.00 553.49,954.00 L 553.49 954.00 C552.72,954.00 552.19,951.89 551.74,946.99 L 551.74 946.98 C551.66,946.15 551.59,945.24 551.52,944.25 ZM 628.79 749.00 C625.91,745.15 623.20,742.00 622.78,742.00 C622.35,742.00 622.00,741.44 622.00,740.75 C621.99,740.06 620.42,737.79 618.50,735.69 C616.57,733.60 615.00,731.58 615.00,731.19 C614.99,730.81 613.64,729.06 612.00,727.30 C610.35,725.55 609.00,723.82 609.00,723.46 C609.00,723.10 606.08,719.02 602.50,714.39 C598.92,709.76 596.00,705.58 596.00,705.11 C596.00,704.64 599.71,704.03 604.25,703.76 C609.13,703.48 613.73,702.61 615.50,701.64 C617.15,700.75 619.05,700.01 619.72,700.01 C621.56,700.00 628.00,696.74 628.00,695.81 C628.00,695.37 628.56,695.00 629.25,694.99 C631.08,694.98 642.32,683.08 645.10,678.21 L 647.50 674.02 L 655.00 673.99 C668.55,673.94 684.57,670.85 695.25,666.23 C698.41,664.86 701.00,663.40 701.00,662.98 C701.00,662.56 702.16,661.93 703.58,661.57 C706.14,660.93 723.00,644.94 723.00,643.16 C723.00,642.65 728.06,641.47 734.25,640.52 C740.44,639.58 757.64,636.83 772.48,634.40 C787.31,631.98 800.63,630.00 802.07,630.00 C804.00,630.00 805.83,631.37 809.07,635.25 C811.49,638.14 813.81,640.65 814.23,640.83 C814.65,641.02 815.00,641.72 815.00,642.40 C815.00,643.08 816.01,644.53 817.25,645.63 C818.49,646.72 820.40,648.88 821.50,650.44 C822.60,651.99 824.40,654.29 825.50,655.54 C826.60,656.80 828.17,658.84 829.00,660.07 C829.83,661.31 831.49,663.49 832.71,664.91 C833.92,666.34 837.70,671.10 841.11,675.50 C844.52,679.90 848.14,684.31 849.15,685.29 C850.17,686.27 851.01,687.40 851.02,687.79 C851.04,688.18 852.61,690.24 854.52,692.36 C856.44,694.48 858.00,696.51 858.00,696.86 C858.01,697.21 860.26,699.97 863.02,703.00 C865.77,706.03 867.90,709.17 867.75,709.99 C867.55,711.10 861.91,712.57 845.99,715.69 C834.17,718.00 822.25,720.35 819.50,720.90 C816.75,721.45 803.70,723.96 790.50,726.48 C777.30,728.99 764.92,731.45 763.00,731.94 C761.08,732.42 755.22,733.56 750.00,734.47 C744.78,735.37 739.15,736.50 737.50,736.98 C735.85,737.46 728.88,738.84 722.00,740.04 C715.12,741.25 708.15,742.60 706.50,743.05 C704.85,743.50 697.88,744.85 691.00,746.05 C684.12,747.24 669.05,749.97 657.50,752.11 C645.95,754.24 635.94,755.99 635.26,756.00 C634.58,756.00 631.67,752.85 628.79,749.00 ZM 365.50 756.00 C365.16,756.55 365.81,757.00 366.94,757.00 C368.02,757.00 368.92,756.59 368.99,756.07 C373.50,756.62 380.15,757.50 386.50,758.39 C428.55,764.32 458.99,768.19 464.72,768.34 C470.61,768.49 471.10,768.32 474.25,765.00 C478.08,760.96 484.00,753.47 484.00,752.66 C484.00,752.35 485.12,750.89 486.50,749.41 C487.88,747.92 489.00,746.35 489.00,745.92 C489.00,745.48 490.30,743.70 491.88,741.97 C493.46,740.24 495.38,737.62 496.13,736.16 C496.88,734.70 498.06,733.14 498.75,732.70 C499.44,732.26 500.00,731.30 500.00,730.56 C500.00,729.82 500.67,728.95 501.50,728.64 C502.33,728.32 503.00,727.62 503.00,727.08 C503.00,726.54 504.12,724.89 505.50,723.41 C506.88,721.92 508.00,720.15 508.00,719.46 C508.00,718.78 508.67,717.95 509.50,717.64 C510.33,717.32 511.00,716.63 511.00,716.11 C511.00,715.58 512.35,713.80 514.00,712.15 C515.65,710.50 517.00,708.49 517.00,707.68 C517.00,706.88 517.67,705.95 518.50,705.64 C519.33,705.32 520.00,704.37 520.00,703.53 C520.00,702.69 520.36,702.00 520.81,702.00 C521.65,702.00 527.96,693.49 528.06,692.22 C528.09,691.82 529.41,690.47 531.00,689.22 C533.74,687.06 533.95,687.03 534.87,688.75 C535.41,689.76 535.78,727.79 535.91,792.97 C535.77,759.48 535.46,744.00 534.95,744.00 C534.24,744.00 533.94,752.85 534.00,771.25 C534.01,772.97 534.02,774.59 534.02,776.12 C534.10,797.18 534.12,800.97 533.71,801.02 C533.62,801.03 533.51,800.86 533.38,800.65 C533.33,800.58 533.28,800.51 533.23,800.44 C532.55,799.45 513.96,796.62 458.00,789.00 C445.62,787.32 432.58,785.49 429.00,784.95 C425.42,784.40 415.98,783.08 408.00,782.00 C400.02,780.92 389.00,779.41 383.50,778.63 C378.00,777.85 369.45,776.69 364.50,776.04 C359.55,775.40 348.52,773.79 340.00,772.48 C331.48,771.16 316.17,768.94 306.00,767.54 C295.83,766.15 279.23,763.87 269.13,762.48 C259.02,761.09 247.44,759.67 243.38,759.33 L 236.28 758.73 C236.40,747.19 236.56,739.78 236.75,739.66 C237.62,739.12 269.73,743.13 340.31,752.59 C350.65,753.98 361.45,755.31 364.31,755.56 C364.68,755.59 365.16,755.64 365.75,755.70 C365.65,755.79 365.56,755.90 365.50,756.00 ZM 292.98 171.80 C291.45,190.07 291.06,215.28 292.27,229.00 C292.37,230.09 292.52,231.38 292.72,232.76 C291.40,225.48 291.18,220.19 291.16,205.63 C291.14,194.56 291.54,182.57 292.05,179.00 C292.29,177.25 292.63,174.63 292.98,171.80 ZM 719.22 190.93 C719.85,173.23 719.56,137.69 718.35,137.29 C717.63,137.04 717.39,135.48 717.72,133.07 C717.91,131.67 717.80,129.37 717.48,126.50 C719.10,138.38 720.00,151.43 719.98,164.86 C719.97,173.61 719.70,182.50 719.22,190.93 ZM 339.93 74.54 C337.22,73.43 334.61,73.00 331.04,73.00 C327.15,73.00 325.58,73.15 323.73,74.38 C324.63,73.61 325.62,72.81 326.71,71.95 C328.87,70.25 332.54,70.94 339.58,74.37 C339.70,74.43 339.82,74.49 339.93,74.54 ZM 362.47 612.21 C362.40,614.65 362.62,616.92 363.13,618.63 C363.88,621.10 364.06,621.94 370.90,622.96 C368.77,622.71 367.10,622.51 366.17,622.39 L 360.83 621.70 L 361.56 618.10 C361.85,616.66 362.20,614.33 362.47,612.21 ZM 570.53 583.40 C573.76,582.49 576.75,581.82 579.25,581.50 C581.86,581.16 584.00,580.57 584.00,580.19 C584.00,579.81 589.96,579.50 597.23,579.50 L 606.15 579.50 L 600.49 579.69 C590.13,580.04 579.11,581.43 570.53,583.40 ZM 700.81 371.09 C698.59,371.26 697.08,371.45 696.84,371.60 C696.14,372.03 685.07,372.89 676.43,373.26 C677.13,373.17 677.85,373.08 678.61,372.96 C682.95,372.32 689.65,371.63 693.50,371.44 C695.34,371.35 697.99,371.22 700.81,371.09 ZM 577.02 513.78 C576.71,513.51 576.39,513.22 576.05,512.89 L 572.80 509.79 L 574.65 506.29 C576.81,502.21 577.56,501.87 589.50,499.56 C590.71,499.33 592.03,499.05 593.41,498.73 C591.53,499.18 589.71,499.58 588.00,499.92 C576.67,502.21 575.00,503.31 575.00,508.50 C575.00,510.66 575.74,512.47 577.02,513.78 ZM 493.00 636.04 C484.84,635.34 470.75,633.94 454.51,632.23 C474.16,634.26 483.59,634.95 484.98,634.51 C486.02,634.18 487.69,634.35 488.69,634.90 C489.33,635.26 491.88,635.77 495.16,636.23 C494.44,636.17 493.71,636.10 493.00,636.04 ZM 234.59 378.50 C234.92,382.65 235.17,385.03 235.81,387.05 C233.70,382.41 233.23,378.67 233.72,374.41 C233.82,373.48 233.80,372.36 233.66,371.09 C234.08,373.53 234.40,376.02 234.59,378.50 ZM 718.72 373.86 C716.69,389.47 712.04,405.00 709.39,405.00 C712.19,405.00 717.88,384.90 717.74,375.50 C717.72,374.40 718.03,372.76 718.42,371.86 C718.92,370.71 718.41,370.38 713.50,370.48 L 719.19 370.21 ZM 274.93 333.64 C274.83,335.73 274.84,338.10 274.91,341.14 C274.96,343.17 275.02,344.07 275.92,344.60 C273.25,343.61 272.86,341.97 273.92,338.75 C274.43,337.20 274.84,335.08 274.93,333.64 ZM 367.03 581.67 C365.74,590.18 364.71,597.75 364.76,599.00 C364.79,599.83 364.35,602.03 363.78,603.91 C363.48,604.90 363.22,605.96 363.02,607.03 C363.56,602.01 364.07,598.71 365.50,590.50 C366.05,587.31 366.56,584.38 367.03,581.67 ZM 697.88 401.75 C690.77,399.54 675.62,396.40 667.67,395.37 C668.06,395.38 668.48,395.39 668.90,395.41 C672.67,395.59 676.15,395.97 676.63,396.27 C677.11,396.57 680.13,397.29 683.35,397.89 C686.41,398.45 692.80,400.16 697.88,401.75 ZM 756.17 621.05 L 756.17 621.05 C753.10,621.45 749.46,621.97 746.38,622.44 L 746.38 622.44 C742.84,622.94 739.52,623.44 738.14,623.68 C739.99,623.36 745.21,622.54 749.75,621.87 C754.29,621.20 758.00,620.29 758.00,619.85 C758.00,619.40 759.91,619.29 762.25,619.60 C762.87,619.68 763.46,619.72 764.03,619.73 C763.84,619.76 763.67,619.80 763.50,619.83 C761.88,620.14 759.12,620.59 756.17,621.05 ZM 760.86 553.88 C760.87,553.99 760.88,554.09 760.89,554.19 C761.03,555.67 760.66,557.77 760.08,558.86 C759.66,559.63 759.48,560.12 759.65,560.49 C759.17,560.02 759.00,559.40 759.00,558.48 C759.00,558.28 759.01,558.08 759.03,557.88 C759.32,556.86 759.68,555.97 760.01,555.49 C760.03,555.48 760.04,555.48 760.05,555.47 C760.48,555.21 760.79,554.57 760.86,553.88 ZM 603.36 686.99 C604.84,686.93 606.00,686.46 606.00,685.88 C606.00,685.23 606.90,685.00 608.17,685.33 C609.45,685.67 611.78,685.07 614.40,683.92 C610.52,685.77 606.63,687.00 604.02,687.00 C603.79,687.00 603.57,687.00 603.36,686.99 ZM 716.80 217.20 C717.54,211.57 717.93,206.54 717.71,204.91 C717.40,202.56 717.63,200.96 718.32,200.73 C718.43,200.69 718.53,200.38 718.62,199.82 C718.13,206.12 717.52,212.01 716.80,217.20 ZM 371.00 548.13 C371.63,549.04 372.00,550.01 372.00,550.92 C372.00,551.74 371.34,556.03 370.47,560.95 C371.82,552.05 371.78,549.81 371.13,548.38 C371.09,548.30 371.05,548.21 371.00,548.13 ZM 368.44 95.40 C382.67,108.24 397.99,124.96 411.17,142.50 C398.43,125.54 382.72,108.43 368.44,95.40 ZM 715.83 116.09 C714.23,107.84 711.87,98.53 709.52,92.00 C708.40,88.87 707.27,86.13 706.11,83.76 C710.06,91.65 713.41,102.88 715.83,116.09 ZM 317.66 80.62 C314.97,84.47 312.02,89.95 309.40,95.80 C310.47,93.34 311.58,90.96 312.69,88.80 C314.42,85.43 315.93,82.88 317.66,80.62 ZM 539.35 597.21 C538.89,597.56 538.40,597.96 537.90,598.40 C538.42,597.95 538.92,597.53 539.39,597.16 C542.20,594.97 546.88,592.44 552.24,590.06 C546.81,592.64 541.51,595.52 539.35,597.21 ZM 507.57 637.51 C511.46,637.74 512.05,637.30 513.25,635.87 C513.64,635.40 514.01,634.85 514.30,634.31 C514.05,634.82 513.74,635.35 513.41,635.83 C512.05,637.76 511.21,638.01 507.66,637.52 ZM 660.75 396.49 C659.66,397.74 659.03,399.64 659.00,401.57 C659.00,399.03 659.44,397.43 660.75,396.49 ZM 236.05 848.94 C236.14,874.41 236.36,893.55 236.61,895.06 C236.31,893.21 236.12,873.62 236.05,848.94 ZM 359.99 546.00 C358.21,547.96 356.67,551.18 355.95,554.87 C356.76,550.71 358.15,547.72 359.99,546.00 ZM 259.43 419.12 C256.21,415.48 253.07,411.77 250.87,409.00 C249.22,406.93 247.72,405.01 246.35,403.22 C250.29,408.35 254.87,413.92 259.43,419.12 ZM 275.94 325.58 C276.52,322.89 276.78,320.46 276.51,320.18 C276.78,320.46 276.54,322.89 275.98,325.58 C275.41,328.30 275.09,330.59 274.94,333.38 C274.95,333.23 274.95,333.09 274.95,332.96 C274.91,331.61 275.36,328.29 275.94,325.58 ZM 520.13 165.40 C522.56,165.53 524.85,165.69 526.98,165.86 C527.02,165.87 527.05,165.89 527.09,165.90 C524.54,165.76 522.20,165.59 520.13,165.40 ZM 230.38 358.44 C228.88,354.50 227.07,350.96 225.35,349.05 C227.17,351.08 228.91,354.40 230.38,358.44 ZM 295.53 246.72 C296.13,249.32 296.51,251.52 296.53,252.51 C296.48,252.26 296.45,252.00 296.42,251.74 C296.36,251.13 296.02,249.26 295.53,246.72 ZM 661.25 407.23 C662.32,408.16 663.71,408.67 664.48,408.37 C663.43,408.77 662.25,408.26 661.25,407.23 ZM 529.45 168.69 C529.64,170.26 529.15,172.57 528.08,176.09 C529.08,172.80 529.54,170.36 529.45,168.69 ZM 296.94 140.88 C296.39,143.63 295.75,147.64 295.48,150.00 C295.37,150.99 295.20,152.45 295.00,154.10 C295.85,146.60 296.17,144.62 296.94,140.88 ZM 761.48 548.84 C761.50,548.77 761.52,548.69 761.54,548.62 C761.45,548.96 761.37,549.26 761.29,549.50 C761.02,550.34 760.85,551.76 760.84,553.05 C760.74,552.11 760.93,550.55 761.28,549.50 C761.34,549.32 761.41,549.09 761.48,548.84 ZM 710.60 248.82 C709.23,253.75 708.09,258.62 708.01,259.93 C708.09,258.62 709.22,253.75 710.59,248.82 C710.89,247.76 711.15,246.81 711.39,245.96 C711.13,246.91 710.87,247.87 710.60,248.82 ZM 600.68 686.56 C599.80,686.17 599.25,685.45 598.60,684.19 C599.23,685.40 599.85,686.15 600.68,686.56 ZM 534.47 952.75 C534.21,953.12 533.91,953.47 533.60,953.77 C533.90,953.48 534.19,953.14 534.44,952.78 C534.82,952.24 535.11,950.99 535.32,947.62 C535.11,951.03 534.83,952.24 534.47,952.75 ZM 581.91 515.95 C581.42,515.91 580.96,515.83 580.52,515.72 C580.96,515.83 581.43,515.91 581.91,515.95 ZM 769.64 616.53 C769.55,616.25 769.39,615.97 769.15,615.68 C769.39,615.97 769.56,616.26 769.64,616.53 Z" fill="rgb(231,157,70)"/>
<path d="M 575.33 685.95 C563.04,683.54 556.52,674.92 556.91,661.61 C557.02,657.79 557.81,653.05 558.65,651.08 C559.49,649.11 560.30,647.05 560.44,646.50 C560.58,645.95 561.05,644.68 561.48,643.68 C562.49,641.34 560.23,637.06 557.26,635.71 C554.37,634.39 550.73,635.95 548.40,639.51 C545.11,644.54 542.01,655.31 542.00,661.75 C542.00,665.62 541.58,668.00 540.90,668.00 C538.31,668.00 531.11,657.76 530.36,653.00 C529.14,645.21 529.09,642.67 530.08,637.95 C532.57,626.03 541.60,614.35 554.20,606.73 C561.22,602.48 574.78,597.87 586.00,595.91 C595.89,594.18 619.28,594.41 635.50,596.39 C642.65,597.27 649.43,597.99 650.56,597.99 C653.97,598.01 656.23,595.61 656.55,591.64 C656.78,588.72 656.37,587.63 654.60,586.48 C651.78,584.63 637.74,581.00 633.41,581.00 C630.84,581.00 629.66,580.30 627.91,577.75 C624.03,572.08 621.31,570.00 617.79,570.02 C613.21,570.04 611.82,571.20 611.10,575.57 L 610.49 579.35 L 606.15 579.50 L 597.23 579.50 C589.96,579.50 584.00,579.81 584.00,580.19 C584.00,580.57 581.86,581.16 579.25,581.50 C576.75,581.82 573.76,582.49 570.53,583.40 C567.77,584.03 565.26,584.72 563.11,585.45 C560.20,586.45 556.18,588.17 552.24,590.06 C546.88,592.44 542.20,594.97 539.39,597.16 C538.92,597.53 538.42,597.95 537.90,598.40 C531.85,603.59 522.93,613.77 520.81,618.06 C516.95,625.87 515.00,630.60 515.00,632.18 C515.00,632.65 514.72,633.46 514.30,634.31 C514.01,634.85 513.64,635.40 513.25,635.87 C512.05,637.30 511.46,637.74 507.57,637.51 C505.50,637.23 500.26,636.69 495.16,636.23 C491.88,635.77 489.33,635.26 488.69,634.90 C487.69,634.35 486.02,634.18 484.98,634.51 C483.59,634.95 474.16,634.26 454.51,632.23 C443.44,631.06 431.38,629.75 419.50,628.42 C411.80,627.56 397.85,626.01 388.50,624.97 C382.14,624.26 375.45,623.49 370.90,622.96 C364.06,621.94 363.88,621.10 363.13,618.63 C362.62,616.92 362.40,614.65 362.47,612.21 C362.57,611.43 362.66,610.67 362.72,610.00 C362.83,608.93 362.93,607.95 363.02,607.03 C363.22,605.96 363.48,604.90 363.78,603.91 C364.35,602.03 364.79,599.83 364.76,599.00 C364.71,597.75 365.74,590.18 367.03,581.67 C368.65,572.30 369.76,565.69 370.47,560.95 C371.34,556.03 372.00,551.74 372.00,550.92 C372.00,550.01 371.63,549.04 371.00,548.13 C369.82,545.95 366.36,544.00 363.58,544.00 C362.38,544.00 361.14,544.74 359.99,546.00 C358.15,547.72 356.76,550.71 355.95,554.87 C354.16,563.96 353.77,564.23 346.00,561.84 C319.71,553.76 291.53,539.03 268.50,521.35 C264.65,518.39 260.19,514.96 258.59,513.73 C251.35,508.17 215.01,471.05 214.99,469.20 C214.99,468.82 213.52,466.92 211.74,465.00 C209.96,463.08 205.37,456.87 201.54,451.22 C194.09,440.22 194.41,440.43 183.95,439.62 C175.01,438.93 168.66,436.60 161.19,431.29 C153.74,426.01 149.00,419.93 149.00,415.69 C149.00,412.03 152.97,406.58 157.25,404.37 C159.69,403.11 162.08,402.87 167.85,403.31 C171.95,403.61 175.57,404.28 175.90,404.78 C176.23,405.29 177.54,406.25 178.81,406.92 C181.17,408.16 181.98,407.86 185.75,404.32 C187.33,402.83 187.32,397.97 185.72,395.99 C182.30,391.74 172.14,388.00 164.07,388.01 C156.60,388.01 152.20,389.38 148.00,392.99 C146.07,394.64 143.95,396.00 143.27,396.00 C140.72,396.00 140.49,386.71 142.88,380.68 C143.50,379.14 144.00,377.50 144.00,377.04 C144.00,376.59 146.01,373.98 148.47,371.24 C154.82,364.19 161.04,361.68 170.91,362.21 C175.09,362.43 180.07,363.35 182.00,364.25 C186.71,366.46 191.43,369.33 191.83,370.25 C192.44,371.61 197.73,371.03 199.03,369.46 C201.42,366.59 200.99,361.28 198.05,357.25 C194.93,352.97 183.79,346.01 180.02,345.98 C172.91,345.94 173.76,341.24 181.57,337.42 C186.04,335.23 188.68,334.69 196.02,334.46 C201.62,334.29 205.00,334.57 205.00,335.20 C205.00,335.76 205.65,335.97 206.44,335.66 C207.22,335.36 208.01,335.42 208.19,335.81 C208.36,336.19 210.52,337.52 213.00,338.76 C216.96,340.75 220.70,343.87 225.35,349.05 C227.07,350.96 228.88,354.50 230.38,358.44 C231.74,362.18 232.88,366.54 233.66,371.09 C233.80,372.36 233.82,373.48 233.72,374.41 C233.23,378.67 233.70,382.41 235.81,387.05 C236.45,389.07 237.46,390.75 239.30,393.50 C241.21,396.36 243.63,399.69 246.35,403.22 C247.72,405.01 249.22,406.93 250.87,409.00 C253.07,411.77 256.21,415.48 259.43,419.12 L 259.43 419.12 C262.18,422.27 264.93,425.29 267.52,428.00 C272.53,433.23 278.78,440.57 281.41,444.32 C289.16,455.36 298.88,465.14 314.65,477.79 C319.56,481.73 333.18,490.48 341.00,494.73 C349.73,499.47 367.38,507.08 370.12,507.28 C371.15,507.36 372.00,507.83 372.00,508.32 C372.00,508.81 372.75,508.93 373.67,508.57 C374.59,508.22 375.65,508.44 376.04,509.06 C376.42,509.69 378.04,510.26 379.62,510.34 C381.20,510.41 382.76,510.83 383.08,511.26 C383.39,511.70 385.19,512.15 387.08,512.28 C388.96,512.40 390.75,512.83 391.05,513.23 C391.35,513.63 395.48,514.26 400.23,514.62 L 408.87 515.28 L 411.93 512.22 C414.87,509.28 416.10,505.00 414.00,505.00 C413.45,505.00 413.11,504.52 413.25,503.93 C413.57,502.55 408.23,500.58 400.00,499.05 C367.10,492.93 322.09,466.75 302.52,442.35 C292.58,429.97 280.43,404.59 282.97,401.54 C283.67,400.69 285.43,399.98 286.87,399.97 C288.32,399.95 291.30,399.06 293.50,398.00 C295.70,396.94 298.26,396.05 299.19,396.03 C301.23,395.99 304.00,392.31 304.00,389.64 C304.00,388.59 302.99,386.85 301.75,385.77 C299.43,383.75 296.37,383.72 281.85,385.59 C277.36,386.17 277.18,386.09 276.64,383.34 C275.62,378.18 274.74,370.82 274.62,366.44 L 274.50 362.12 L 278.51 362.36 C280.72,362.48 282.97,362.87 283.52,363.21 C284.07,363.54 288.19,364.14 292.68,364.53 C300.57,365.22 300.93,365.16 303.42,362.67 C306.74,359.35 306.74,355.73 303.41,353.10 C300.55,350.86 287.18,346.53 279.78,345.46 C278.17,345.23 276.89,344.96 275.92,344.60 C275.02,344.07 274.96,343.17 274.91,341.14 C274.84,338.10 274.83,335.73 274.93,333.64 C274.94,333.55 274.94,333.46 274.94,333.38 C275.09,330.59 275.41,328.30 275.98,325.58 C276.54,322.89 276.78,320.46 276.51,320.18 L 276.51 320.18 L 276.51 320.18 C276.24,319.91 276.44,319.17 276.96,318.55 C277.48,317.92 278.06,315.84 278.26,313.92 C278.46,312.00 278.88,309.99 279.19,309.46 C279.73,308.55 281.30,302.65 281.57,300.50 C281.64,299.95 281.96,298.83 282.30,298.00 C282.63,297.17 284.56,292.00 286.58,286.50 C288.60,281.00 292.00,272.72 294.13,268.11 C297.84,260.07 298.78,256.11 297.33,254.66 C297.03,254.37 296.72,253.48 296.53,252.51 C296.51,251.52 296.13,249.32 295.53,246.72 C295.03,244.16 294.38,240.92 293.69,237.63 C293.31,235.86 292.99,234.27 292.72,232.76 C292.52,231.38 292.37,230.09 292.27,229.00 C291.06,215.28 291.45,190.07 292.98,171.80 C293.34,168.85 293.71,165.67 294.00,163.00 C294.41,159.34 294.73,156.45 295.00,154.10 C295.20,152.45 295.37,150.99 295.48,150.00 C295.75,147.64 296.39,143.63 296.94,140.88 L 296.94 140.88 C296.96,140.75 296.99,140.63 297.01,140.50 C297.58,137.75 298.23,134.15 298.46,132.50 C298.70,130.85 299.35,127.97 299.92,126.11 C300.48,124.24 300.72,122.36 300.45,121.93 C300.19,121.49 300.37,120.89 300.87,120.58 C301.37,120.27 302.07,118.42 302.44,116.46 C303.39,111.39 306.19,103.23 309.40,95.80 C312.02,89.95 314.97,84.47 317.66,80.62 C319.34,78.44 321.22,76.52 323.73,74.38 C325.58,73.15 327.15,73.00 331.04,73.00 C334.61,73.00 337.22,73.43 339.93,74.54 C347.96,78.53 357.90,85.90 368.44,95.40 C382.72,108.43 398.43,125.54 411.17,142.50 C421.17,155.80 421.45,156.38 419.47,159.41 C417.27,162.76 417.32,167.59 419.57,170.08 C421.22,171.90 422.16,172.07 427.47,171.48 C428.44,171.38 429.52,171.24 430.61,171.08 L 432.72 170.84 L 433.97 182.17 C436.02,200.74 440.72,212.00 446.41,212.00 C451.99,212.00 454.89,203.77 457.51,180.54 C458.33,173.31 459.15,167.17 459.41,166.32 C461.42,166.06 463.39,165.81 465.32,165.59 C468.33,165.37 471.68,165.20 475.25,165.06 L 474.56 171.09 C471.82,194.93 472.26,218.24 475.54,223.80 C478.32,228.50 485.25,229.90 488.99,226.51 C491.83,223.94 495.84,214.01 498.97,201.79 C500.56,195.58 503.70,184.74 505.93,177.70 C507.89,171.53 509.54,166.26 509.92,164.98 C513.48,165.08 516.92,165.23 520.13,165.40 C522.20,165.59 524.54,165.76 527.09,165.90 C528.51,166.44 529.26,167.25 529.45,168.69 C529.54,170.36 529.08,172.80 528.08,176.09 C523.18,192.19 522.24,206.20 525.78,210.25 C528.04,212.83 533.29,212.47 536.84,209.49 C540.27,206.59 550.87,189.76 555.03,180.59 C558.04,173.96 559.44,172.11 562.00,172.56 C562.19,172.60 562.38,172.65 562.57,172.69 C562.85,172.76 563.14,172.86 563.44,172.98 C565.66,173.82 568.52,174.11 571.03,173.89 C572.02,173.86 572.91,173.71 573.77,173.38 C574.52,173.16 575.18,172.86 575.68,172.51 C576.86,171.69 580.21,167.98 583.13,164.26 C584.14,162.98 585.20,161.66 586.31,160.30 L 586.31 160.30 C595.45,149.22 606.98,136.47 618.48,124.53 C618.48,124.53 618.48,124.53 618.49,124.53 C618.58,124.43 618.67,124.34 618.76,124.24 C633.64,108.86 648.64,94.64 657.98,87.52 C675.78,73.95 689.47,68.61 696.78,72.39 C700.12,74.11 703.27,78.07 706.11,83.76 C707.27,86.13 708.40,88.87 709.52,92.00 C711.87,98.53 714.23,107.84 715.83,116.09 C716.44,119.44 716.99,122.92 717.48,126.50 C717.80,129.37 717.91,131.67 717.72,133.07 C717.39,135.48 717.63,137.04 718.35,137.29 C719.56,137.69 719.85,173.23 719.22,190.93 C719.05,193.96 718.85,196.93 718.62,199.82 C718.53,200.38 718.43,200.69 718.32,200.73 C717.63,200.96 717.40,202.56 717.71,204.91 C717.93,206.53 717.54,211.57 716.80,217.19 L 716.80 217.20 C716.58,218.78 716.35,220.30 716.11,221.75 C715.04,228.21 713.95,234.85 713.69,236.50 C713.47,237.84 712.51,241.77 711.39,245.96 C711.15,246.81 710.89,247.76 710.59,248.82 C709.22,253.75 708.09,258.62 708.01,259.93 C708.00,259.98 708.00,260.03 708.00,260.07 C708.00,261.13 707.55,262.00 707.00,262.00 C704.77,262.00 706.12,272.14 709.90,283.68 C716.00,302.34 719.83,324.57 720.11,343.00 L 720.27 353.50 L 707.89 354.15 C694.65,354.85 675.94,357.25 669.69,359.04 C664.78,360.44 662.00,363.26 662.00,366.85 C662.00,372.37 666.53,374.40 676.43,373.26 C685.07,372.89 696.14,372.03 696.84,371.60 C697.08,371.45 698.59,371.26 700.81,371.09 C703.89,370.94 707.17,370.78 709.84,370.66 L 713.50 370.48 C718.41,370.38 718.92,370.71 718.42,371.86 C718.03,372.76 717.72,374.40 717.74,375.50 C717.88,384.90 712.19,405.00 709.39,405.00 C708.64,405.00 703.66,403.60 698.32,401.89 C698.18,401.85 698.03,401.80 697.88,401.75 C692.80,400.16 686.41,398.45 683.35,397.89 C680.13,397.29 677.11,396.57 676.63,396.27 C676.15,395.97 672.67,395.59 668.90,395.41 C668.48,395.39 668.06,395.38 667.67,395.37 C666.04,395.15 664.71,395.03 663.82,395.02 C662.59,395.00 661.55,395.57 660.75,396.49 C659.44,397.43 659.00,399.03 659.00,401.57 C659.00,401.58 659.00,401.59 659.00,401.60 L 659.00 401.60 C658.98,403.57 659.58,405.58 660.98,406.98 C661.07,407.07 661.16,407.15 661.25,407.23 C662.25,408.26 663.43,408.77 664.48,408.37 C665.31,408.05 666.00,408.27 666.00,408.86 C666.00,409.45 666.67,409.68 667.50,409.36 C668.33,409.05 669.00,409.23 669.00,409.77 C669.00,410.32 671.14,411.27 673.75,411.90 C676.36,412.53 683.80,414.94 690.29,417.27 C701.37,421.25 702.04,421.64 701.49,423.85 C701.00,425.84 697.72,431.29 695.99,433.00 C695.72,433.27 694.15,435.30 692.51,437.50 C687.89,443.72 674.17,457.70 667.52,462.96 C654.52,473.26 636.38,483.86 620.50,490.45 C614.13,493.09 603.00,496.47 593.41,498.73 C592.03,499.05 590.71,499.33 589.50,499.56 C577.56,501.87 576.81,502.21 574.65,506.29 L 572.80 509.79 L 576.05 512.89 C576.39,513.22 576.71,513.51 577.02,513.78 C577.94,514.70 579.12,515.36 580.52,515.72 L 580.52 515.72 C580.96,515.83 581.42,515.91 581.91,515.95 C582.24,515.98 582.57,516.00 582.91,516.00 L 582.96 516.00 C582.98,516.00 583.00,516.00 583.02,516.00 C583.32,516.00 583.66,515.99 584.02,515.97 C586.83,515.85 591.30,515.23 596.31,514.32 C596.67,514.25 597.03,514.18 597.39,514.12 L 597.45 514.11 C602.87,513.09 608.82,511.76 614.00,510.36 C625.21,507.31 628.02,507.69 642.00,514.16 C656.79,521.01 667.55,528.60 681.35,541.92 C701.19,561.08 711.87,579.74 715.11,600.92 C718.70,624.37 707.28,642.34 681.96,653.12 C674.82,656.15 673.84,656.30 659.00,656.59 C650.47,656.76 642.75,656.92 641.83,656.95 C640.91,656.98 637.63,660.62 634.51,665.07 C631.40,669.51 627.05,674.90 624.84,677.04 C622.27,679.53 618.34,682.04 614.40,683.92 C611.78,685.07 609.45,685.67 608.17,685.33 C606.90,685.00 606.00,685.23 606.00,685.88 C606.00,686.46 604.84,686.93 603.36,686.99 C602.17,686.97 601.33,686.85 600.68,686.56 C599.85,686.15 599.23,685.40 598.60,684.19 C597.10,681.30 596.18,668.13 597.35,666.25 C597.71,665.67 598.26,662.86 598.58,660.01 C599.27,653.77 597.42,650.99 592.60,651.02 C588.34,651.04 587.41,651.82 584.87,657.53 C583.15,661.38 582.53,665.19 582.08,674.42 C581.76,681.08 581.06,686.43 580.50,686.55 C579.95,686.67 577.62,686.40 575.33,685.95 ZM 501.75 473.95 C504.64,472.73 507.00,471.39 507.00,470.98 C507.00,470.56 508.17,469.92 509.61,469.56 C511.05,469.20 515.54,465.55 519.59,461.45 C531.87,449.00 538.28,432.29 540.46,406.98 C540.54,406.15 540.94,404.90 541.37,404.21 C541.80,403.51 542.40,400.55 542.70,397.63 C543.20,392.79 542.99,392.03 540.37,389.15 C538.79,387.42 536.06,385.72 534.29,385.38 C530.85,384.72 530.31,385.15 522.02,395.08 C519.81,397.73 516.02,400.48 511.61,402.62 C505.41,405.64 503.77,406.00 496.27,406.00 C489.34,406.00 486.93,405.55 482.47,403.44 C476.29,400.52 469.89,393.81 468.28,388.57 L 467.18 384.98 L 472.09 382.87 C474.79,381.70 477.00,380.36 477.00,379.88 C477.00,379.39 477.65,379.00 478.45,379.00 C480.99,379.00 488.89,368.19 490.57,362.39 C493.62,351.91 490.25,347.89 475.50,344.43 C464.72,341.90 442.14,341.73 437.00,344.14 C435.08,345.05 432.75,346.03 431.83,346.33 C430.03,346.92 428.28,355.87 428.86,361.50 C429.62,368.99 435.75,377.39 445.09,383.75 C449.23,386.57 449.63,387.18 449.20,390.08 C448.90,392.14 447.08,394.99 444.12,398.03 C440.30,401.96 438.49,403.01 433.71,404.06 C428.32,405.25 427.54,405.18 422.28,403.00 C419.01,401.64 415.35,399.16 413.57,397.09 C406.07,388.38 403.61,387.23 399.83,390.65 C396.65,393.53 397.46,398.92 402.03,405.31 C406.19,411.12 416.51,419.42 418.24,418.35 C418.78,418.02 419.54,418.26 419.93,418.89 C420.33,419.53 422.64,420.38 425.07,420.80 C429.40,421.53 429.51,421.65 430.16,426.03 C431.46,434.93 435.83,447.48 438.92,451.22 C439.51,451.92 442.00,455.04 444.47,458.15 C446.94,461.26 450.65,464.84 452.73,466.10 C454.80,467.36 456.74,468.73 457.02,469.14 C458.07,470.63 468.29,474.83 469.63,474.31 C470.38,474.02 471.00,474.25 471.00,474.82 C471.00,476.46 474.69,476.87 486.00,476.50 C494.02,476.24 497.74,475.64 501.75,473.95 ZM 566.60 383.26 C568.51,385.17 588.00,383.03 588.00,380.92 C588.00,380.41 588.82,380.00 589.83,380.00 C594.03,380.00 605.71,370.83 611.47,363.00 C615.08,358.10 621.16,346.65 620.86,345.33 C620.76,344.87 621.25,343.15 621.96,341.50 C622.72,339.72 623.29,333.84 623.37,327.00 C623.50,315.16 622.84,309.17 620.84,304.30 C620.21,302.76 619.58,300.94 619.44,300.26 C619.29,299.57 617.60,296.20 615.67,292.76 C603.93,271.80 581.46,262.47 560.11,269.69 C555.26,271.33 545.78,277.47 542.18,281.31 C539.02,284.67 531.02,297.20 531.01,298.79 C531.00,299.49 530.38,301.07 529.61,302.29 C527.06,306.36 525.57,315.39 525.54,327.00 C525.50,340.00 527.65,348.86 533.30,358.89 C539.62,370.12 554.56,381.96 562.93,382.38 C564.54,382.46 566.19,382.86 566.60,383.26 ZM 370.94 376.01 C375.01,377.19 388.03,376.36 393.49,374.58 C404.35,371.04 416.53,359.70 422.88,347.25 C424.07,344.91 424.80,343.00 424.50,343.00 C424.20,343.00 424.69,341.88 425.59,340.50 C426.49,339.12 426.90,338.00 426.49,338.00 C426.09,338.00 426.30,337.35 426.96,336.55 C428.63,334.53 429.29,329.21 429.38,317.00 C429.45,306.50 428.76,300.02 427.32,297.72 C426.90,297.05 426.47,295.90 426.35,295.17 C425.98,292.69 420.86,283.00 419.93,283.00 C419.42,283.00 419.00,282.42 419.00,281.71 C419.00,279.38 410.64,272.17 403.84,268.63 C399.92,266.60 394.88,264.88 391.61,264.47 C380.07,263.03 366.02,267.88 357.18,276.36 C353.13,280.25 344.00,293.57 344.00,295.58 C344.00,296.09 343.13,298.30 342.07,300.50 C337.21,310.51 336.78,332.89 341.21,344.50 C344.52,353.18 349.26,360.90 354.19,365.66 C358.58,369.90 366.30,374.67 370.94,376.01 ZM 824.13 501.17 C820.85,496.86 815.79,491.20 812.89,488.59 C807.38,483.64 793.65,475.05 788.50,473.33 C786.85,472.78 785.37,471.66 785.21,470.84 C785.14,470.49 785.19,470.05 785.35,469.51 C787.25,466.19 789.16,463.08 790.89,460.57 C796.45,453.43 805.03,444.52 811.87,439.19 C813.44,438.02 814.95,436.99 816.35,436.15 C829.30,428.37 845.16,424.29 857.00,425.69 C860.58,426.12 864.17,426.39 864.99,426.30 C865.80,426.22 866.70,426.47 866.99,426.87 C867.27,427.27 869.62,428.40 872.22,429.37 C883.68,433.67 891.02,444.60 890.98,457.29 C890.93,471.79 882.32,480.43 857.29,491.08 C854.50,492.26 851.57,493.85 848.69,495.68 L 848.69 495.69 C844.70,498.23 840.78,501.27 837.39,504.43 C837.09,504.70 836.78,504.97 836.47,505.25 C834.16,507.31 831.78,509.00 831.18,509.00 C830.58,509.00 827.41,505.47 824.13,501.17 ZM 797.75 584.54 C793.12,578.96 781.11,570.46 771.62,565.44 C770.54,564.87 769.49,564.34 768.48,563.87 C766.48,562.93 764.68,562.21 763.18,561.78 C762.86,561.69 762.55,561.61 762.26,561.55 L 762.25 561.55 L 762.21 561.54 C760.94,561.26 760.14,560.95 759.65,560.49 C759.48,560.12 759.66,559.63 760.08,558.86 C760.66,557.77 761.03,555.67 760.89,554.19 C760.88,554.09 760.87,553.99 760.86,553.88 C760.89,553.64 760.89,553.40 760.86,553.16 C760.85,553.12 760.85,553.09 760.84,553.05 C760.85,551.76 761.02,550.34 761.29,549.50 C761.37,549.26 761.45,548.96 761.54,548.62 C761.87,547.47 762.20,545.89 762.40,544.44 C762.60,542.94 763.00,540.71 763.42,538.70 L 763.42 538.69 C763.61,537.80 763.81,536.94 763.99,536.19 C764.03,536.01 764.07,535.83 764.11,535.66 C764.60,533.55 764.93,531.64 764.84,531.26 C764.76,530.84 764.95,529.83 765.27,529.00 C765.33,528.83 765.45,528.41 765.61,527.80 C765.95,526.65 766.33,525.06 766.67,523.28 C767.30,520.52 768.05,517.13 768.71,514.00 C769.00,514.02 772.51,515.56 776.56,517.43 C784.91,521.29 794.69,528.96 806.41,540.84 L 814.31 548.86 L 811.04 561.68 C810.48,563.85 809.96,565.86 809.47,567.72 C807.86,573.53 806.41,578.58 805.48,581.61 L 805.48 581.61 C803.95,586.15 802.90,587.96 802.00,587.92 C801.17,587.88 799.26,586.36 797.75,584.54 ZM 676.45 223.45 C677.85,222.05 679.00,220.46 679.00,219.90 C679.00,218.49 676.21,213.25 675.23,212.84 C674.79,212.65 673.40,211.03 672.13,209.23 C669.15,204.98 655.43,193.49 646.37,187.65 C642.44,185.12 638.94,182.29 638.58,181.35 C637.32,178.08 656.57,152.82 674.84,133.75 C681.07,127.26 686.00,121.27 686.00,120.21 C686.00,117.42 682.63,114.00 679.88,114.01 C677.02,114.01 674.30,115.77 666.18,122.89 C660.14,128.18 644.78,145.11 637.97,154.00 C633.48,159.86 632.71,160.83 631.44,162.28 C630.85,162.95 627.81,167.24 624.69,171.81 C618.08,181.47 617.39,185.30 621.55,189.45 C622.95,190.85 624.71,192.00 625.46,192.00 C626.22,192.00 626.98,192.35 627.17,192.79 C627.35,193.22 631.33,195.79 636.00,198.50 C640.67,201.21 644.65,203.78 644.83,204.21 C645.02,204.65 645.77,205.00 646.50,205.00 C647.23,205.00 647.98,205.38 648.17,205.85 C648.35,206.32 652.55,210.07 657.50,214.20 C662.45,218.32 667.36,222.67 668.40,223.85 C670.92,226.68 673.34,226.57 676.45,223.45 ZM 329.25 218.87 C331.27,217.78 345.96,206.41 347.00,205.12 C347.27,204.78 348.73,203.86 350.23,203.09 C351.74,202.31 353.78,200.96 354.77,200.09 C355.76,199.22 358.76,197.39 361.43,196.03 C364.10,194.68 366.80,193.10 367.42,192.53 C368.04,191.97 372.14,189.70 376.53,187.50 C386.80,182.34 387.58,180.57 383.44,171.79 C376.35,156.78 348.32,118.72 340.64,113.69 C337.26,111.47 334.71,111.56 332.53,113.97 C329.96,116.81 330.34,120.46 333.62,124.63 C350.93,146.56 367.00,170.70 367.00,174.77 C367.00,175.40 364.86,177.12 362.25,178.60 C355.32,182.52 341.82,191.17 339.50,193.18 C338.40,194.14 335.17,196.72 332.32,198.93 C326.72,203.26 321.00,210.73 321.00,213.71 C321.00,216.22 323.77,220.00 325.62,220.00 C326.45,220.00 328.08,219.49 329.25,218.87 ZM 607.25 243.23 C612.20,238.88 607.18,231.58 595.28,225.79 C589.37,222.92 587.29,222.45 579.08,222.15 C568.76,221.76 564.40,222.66 556.00,226.88 C550.23,229.78 549.04,232.06 550.42,237.55 C551.30,241.04 554.11,241.34 563.55,238.93 C576.08,235.74 583.83,236.47 593.87,241.81 C601.68,245.96 603.87,246.20 607.25,243.23 ZM 371.00 238.44 C377.36,235.73 382.98,235.05 391.00,235.99 C392.92,236.22 394.77,236.79 395.09,237.26 C396.33,239.03 403.22,239.11 405.14,237.37 C408.23,234.57 407.58,229.54 403.75,226.66 C396.97,221.58 392.14,220.00 383.36,220.00 C375.34,220.00 373.98,220.31 365.50,224.05 C357.19,227.71 353.41,234.70 357.16,239.47 C359.68,242.68 361.34,242.55 371.00,238.44 ZM 735.52 621.88 C735.53,621.86 735.54,621.83 735.55,621.80 L 735.55 621.79 L 735.55 621.79 C735.99,620.46 737.15,618.24 738.19,616.77 C738.97,615.65 740.03,613.79 741.16,611.60 C741.59,610.81 742.01,610.01 742.39,609.25 C743.84,606.36 745.46,604.00 745.99,604.00 C746.51,604.00 746.68,603.21 746.37,602.25 C746.04,601.21 746.15,600.92 746.66,601.54 C747.12,602.12 752.08,605.18 757.68,608.36 C763.29,611.54 768.44,614.83 769.15,615.68 L 769.15 615.68 C769.39,615.97 769.56,616.26 769.64,616.53 C769.98,617.58 769.16,618.47 767.24,619.18 C766.03,619.38 764.93,619.56 764.03,619.73 C763.46,619.72 762.87,619.68 762.25,619.60 C759.91,619.29 758.00,619.40 758.00,619.85 C758.00,620.29 754.29,621.20 749.75,621.87 C745.21,622.54 739.99,623.36 738.14,623.68 C738.04,623.70 737.94,623.71 737.84,623.73 C736.15,623.92 735.45,623.87 735.24,623.52 C735.21,623.46 735.19,623.40 735.18,623.33 C735.19,623.01 735.31,622.56 735.50,621.94 L 735.50 621.94 ZM 488.50 463.00 C488.43,463.11 488.30,463.22 488.11,463.31 C485.52,463.85 483.32,464.00 481.43,463.77 C480.56,463.58 480.00,463.31 480.00,463.00 C480.00,462.45 482.05,462.00 484.56,462.00 C487.34,462.00 488.88,462.39 488.50,463.00 Z" fill="rgb(250,136,24)"/>
<path d="M 527.50 954.30 C525.85,954.08 517.75,952.56 509.50,950.93 C501.25,949.29 491.80,947.48 488.50,946.89 C485.20,946.31 479.80,945.21 476.50,944.45 C473.20,943.69 465.10,942.10 458.50,940.90 C444.96,938.44 438.32,937.18 405.00,930.70 C392.08,928.19 379.36,925.83 376.75,925.45 C374.14,925.08 372.00,924.44 372.00,924.04 C372.00,923.63 370.76,923.25 369.25,923.18 C367.74,923.11 364.25,922.63 361.50,922.10 C354.11,920.70 339.35,918.05 332.50,916.91 C329.20,916.35 324.92,915.50 323.00,915.00 C321.08,914.51 313.20,912.91 305.50,911.46 C297.80,910.01 285.88,907.67 279.00,906.26 C261.88,902.76 253.83,901.24 244.85,899.83 L 237.20 898.62 L 236.61 895.06 C236.31,893.21 236.12,873.62 236.05,848.94 C235.97,818.79 236.05,781.05 236.28,758.73 L 243.38 759.33 C247.44,759.67 259.02,761.09 269.13,762.48 C279.23,763.87 295.83,766.15 306.00,767.54 C316.17,768.94 331.48,771.16 340.00,772.48 C348.52,773.79 359.55,775.40 364.50,776.04 C369.45,776.69 378.00,777.85 383.50,778.63 C389.00,779.41 400.02,780.92 408.00,782.00 C415.98,783.08 425.42,784.40 429.00,784.95 C432.58,785.49 445.62,787.32 458.00,789.00 C513.96,796.62 532.55,799.45 533.23,800.44 C533.28,800.51 533.33,800.58 533.38,800.65 C533.51,800.86 533.62,801.03 533.71,801.02 C534.12,800.97 534.10,797.18 534.02,776.12 L 534.02 776.12 C534.02,774.59 534.01,772.97 534.00,771.25 C533.94,752.85 534.24,744.00 534.95,744.00 C535.46,744.00 535.77,759.48 535.91,792.97 C535.93,801.68 535.94,810.88 535.95,820.53 C536.02,908.12 535.96,937.52 535.32,947.62 C535.11,950.99 534.82,952.24 534.44,952.78 C534.19,953.14 533.90,953.48 533.60,953.77 C532.90,954.47 532.15,954.91 531.69,954.85 C531.04,954.77 529.15,954.52 527.50,954.30 ZM 456.00 749.97 C452.98,749.55 441.73,748.02 431.00,746.58 C420.27,745.14 404.98,743.07 397.00,742.00 C389.02,740.92 373.73,738.90 363.00,737.51 C352.27,736.12 338.55,734.30 332.50,733.47 C326.45,732.64 316.10,731.30 309.50,730.51 C302.90,729.71 294.35,728.63 290.50,728.09 C286.65,727.56 269.55,725.30 252.50,723.07 C235.45,720.85 214.52,718.10 206.00,716.98 C197.48,715.86 186.68,714.51 182.00,713.99 C173.93,713.09 161.84,711.39 157.50,710.54 C156.40,710.33 155.13,710.12 154.68,710.08 C153.05,709.92 155.33,705.58 159.12,701.64 C161.25,699.41 163.00,697.06 163.00,696.41 C163.00,695.75 163.68,694.95 164.50,694.64 C165.32,694.32 166.00,693.48 166.00,692.77 C166.00,692.06 166.90,690.92 168.00,690.23 C169.10,689.55 170.00,688.56 170.00,688.05 C170.00,687.53 171.57,685.40 173.50,683.31 C175.42,681.21 176.99,679.16 177.00,678.75 C177.00,678.34 177.79,677.13 178.75,676.07 C181.80,672.71 183.40,670.74 187.29,665.57 C189.37,662.80 191.73,660.17 192.54,659.72 C193.34,659.27 194.00,658.13 194.00,657.19 C194.00,656.25 194.90,654.92 196.00,654.23 C197.10,653.55 198.00,652.31 198.00,651.49 C198.00,650.67 198.46,650.00 199.03,650.00 C199.60,650.00 200.35,649.25 200.70,648.33 C201.06,647.41 202.06,645.91 202.92,644.99 C207.05,640.65 211.00,635.72 211.00,634.90 C211.00,634.41 211.79,633.14 212.75,632.08 C213.71,631.02 215.94,628.40 217.71,626.25 C220.28,623.12 221.48,622.40 223.71,622.66 C243.33,624.98 294.98,630.78 296.50,630.84 C297.60,630.88 310.88,632.51 326.00,634.45 C341.12,636.38 355.98,638.21 359.00,638.51 C362.02,638.80 374.40,640.18 386.50,641.57 C415.65,644.91 477.01,651.56 487.50,652.51 C490.25,652.76 495.65,653.21 499.50,653.52 C513.41,654.64 513.78,654.76 515.02,658.83 C515.63,660.85 517.27,664.83 518.65,667.67 C521.37,673.28 521.20,674.35 516.60,680.15 C515.45,681.61 513.38,684.30 512.00,686.12 C510.62,687.94 508.71,690.24 507.75,691.22 C506.79,692.20 506.00,693.43 506.00,693.97 C506.00,694.50 504.65,696.47 503.00,698.35 C501.35,700.23 500.00,702.06 500.00,702.42 C500.00,702.79 499.54,703.63 498.98,704.29 C498.42,704.96 497.01,706.62 495.85,708.00 C494.69,709.38 492.24,712.81 490.41,715.64 C488.58,718.46 486.50,721.40 485.79,722.16 C485.08,722.93 483.44,725.06 482.14,726.89 C480.83,728.73 479.11,730.97 478.30,731.86 C476.93,733.40 471.33,741.09 468.00,746.02 C465.69,749.45 463.97,751.01 462.68,750.87 C462.03,750.80 459.02,750.39 456.00,749.97 ZM 365.50 756.00 C365.56,755.90 365.65,755.79 365.75,755.70 C366.63,755.79 367.73,755.92 368.99,756.07 C368.92,756.59 368.02,757.00 366.94,757.00 C365.81,757.00 365.16,756.55 365.50,756.00 Z" fill="rgb(246,173,84)"/>
<path d="M 0.00 512.00 L 0.00 0.00 L 512.00 0.00 L 1024.00 0.00 L 1024.00 512.00 L 1024.00 1024.00 L 512.00 1024.00 L 0.00 1024.00 L 0.00 512.00 ZM 591.00 964.49 C614.92,958.78 638.55,953.17 643.50,952.01 C803.49,914.46 796.42,916.19 800.27,913.60 C802.03,912.41 804.48,909.65 805.72,907.47 L 807.97 903.50 L 807.98 822.32 L 808.00 741.14 L 813.25 740.09 C816.14,739.51 823.45,738.17 829.50,737.11 C876.14,728.92 887.78,726.66 889.73,725.41 C892.83,723.42 895.26,718.39 894.41,715.70 C893.55,712.96 889.85,708.09 863.48,675.00 C816.00,615.43 813.91,612.69 814.58,611.08 C816.13,607.38 821.33,589.50 824.49,577.00 C833.95,539.57 838.00,529.31 847.24,519.41 C853.13,513.11 853.59,512.84 879.04,500.60 C899.43,490.81 909.00,476.90 909.00,457.09 C909.00,443.03 904.36,432.50 893.59,422.16 C881.71,410.75 864.60,405.75 845.09,407.98 C817.69,411.11 790.93,428.62 774.23,454.34 C761.34,474.19 754.87,494.66 745.01,546.74 C741.87,563.36 738.85,574.93 734.31,587.75 C731.72,595.07 730.00,597.00 730.00,592.61 C730.00,586.05 722.15,566.93 714.68,555.30 C700.84,533.73 677.28,512.67 654.27,501.29 L 647.04 497.71 L 658.81 490.57 C683.99,475.30 702.01,458.12 716.35,435.71 C720.01,429.98 721.75,428.07 722.91,428.51 C723.79,428.84 728.78,431.53 734.00,434.49 C746.70,441.69 748.16,441.99 751.97,438.18 C755.49,434.67 755.83,431.33 753.05,427.79 C751.19,425.43 734.28,415.00 732.31,415.00 C731.80,415.00 730.60,414.43 729.64,413.72 C727.99,412.52 728.07,411.91 730.87,403.47 C733.98,394.13 737.00,380.88 737.00,376.60 C737.00,375.24 737.38,373.88 737.85,373.59 C738.32,373.30 743.97,374.18 750.40,375.54 C756.83,376.90 763.20,377.74 764.57,377.39 C769.55,376.14 771.57,369.69 768.40,365.16 C766.32,362.19 763.77,361.24 750.50,358.53 L 739.50 356.27 L 739.27 348.39 C738.63,326.22 734.34,298.84 728.50,279.58 L 724.98 267.96 L 727.94 256.73 C735.37,228.57 738.24,204.22 738.25,169.50 C738.26,123.26 731.72,88.34 719.53,69.55 C706.99,50.23 689.82,47.11 665.73,59.77 C641.50,72.50 603.67,108.00 574.85,145.03 L 567.44 154.57 L 562.97 153.23 C554.47,150.68 539.45,148.11 526.11,146.93 C508.74,145.40 464.83,146.30 453.00,148.43 C439.28,150.90 440.46,151.42 432.32,139.24 C408.00,102.86 368.64,64.76 346.15,55.82 C341.73,54.07 338.44,53.57 331.00,53.54 C319.40,53.50 315.42,55.27 306.67,64.35 C288.89,82.79 275.31,133.92 273.10,190.70 C272.23,213.22 273.17,233.35 275.62,244.50 C278.54,257.84 278.50,258.77 274.48,267.40 C266.63,284.25 259.32,311.31 256.92,332.33 C255.56,344.27 255.03,345.00 247.67,345.00 C244.89,345.00 243.87,344.16 239.83,338.60 C227.85,322.07 208.71,313.89 188.85,316.78 C171.37,319.33 159.56,329.16 155.10,344.88 C154.61,346.59 152.95,347.80 149.18,349.21 C142.04,351.87 132.85,360.51 129.39,367.82 C125.33,376.38 124.02,382.52 124.01,393.09 C123.97,425.50 143.77,449.97 174.66,455.69 L 183.83 457.39 L 187.84 463.44 C200.13,482.03 229.39,513.46 248.49,528.59 C277.29,551.40 312.24,569.63 344.31,578.56 C348.70,579.78 350.04,580.58 349.79,581.83 C349.54,583.14 346.65,583.94 335.99,585.64 C328.57,586.82 312.15,589.45 299.50,591.48 C286.85,593.52 271.33,596.00 265.00,597.01 C219.53,604.24 214.41,605.18 211.91,606.78 C210.42,607.72 206.77,611.65 203.80,615.50 C200.83,619.35 191.70,631.05 183.51,641.50 C128.48,711.72 129.04,710.97 128.34,715.27 C127.88,718.11 128.29,719.29 130.64,721.91 C133.94,725.58 135.09,725.83 173.50,730.93 C201.10,734.60 210.44,735.88 214.72,736.56 L 217.94 737.08 L 218.22 819.79 L 218.50 902.50 L 221.00 906.91 C225.72,915.23 221.26,914.04 314.50,931.95 C326.60,934.28 347.98,938.41 362.00,941.14 C419.21,952.28 528.62,973.38 539.00,975.29 C542.70,975.97 543.80,975.74 591.00,964.49 ZM 255.80 388.75 C254.46,386.96 253.00,384.89 252.55,384.14 C251.47,382.31 248.02,361.78 248.63,360.79 C248.90,360.36 250.60,360.00 252.41,360.00 L 255.70 360.00 L 256.35 368.44 C256.71,373.08 257.68,380.09 258.50,384.01 C260.27,392.40 260.24,392.00 259.12,392.00 C258.63,392.00 257.14,390.54 255.80,388.75 ZM 566.60 383.26 C566.19,382.86 564.54,382.46 562.93,382.38 C554.56,381.96 539.62,370.12 533.30,358.89 C527.65,348.86 525.50,340.00 525.54,327.00 C525.57,315.39 527.06,306.36 529.61,302.29 C530.38,301.07 531.00,299.49 531.01,298.79 C531.02,297.20 539.02,284.67 542.18,281.31 C545.78,277.47 555.26,271.33 560.11,269.69 C581.46,262.47 603.93,271.80 615.67,292.76 C617.60,296.20 619.29,299.57 619.44,300.26 C619.58,300.94 620.21,302.76 620.84,304.30 C622.84,309.17 623.50,315.16 623.37,327.00 C623.29,333.84 622.72,339.72 621.96,341.50 C621.25,343.15 620.76,344.87 620.86,345.33 C621.16,346.65 615.08,358.10 611.47,363.00 C605.71,370.83 594.03,380.00 589.83,380.00 C588.82,380.00 588.00,380.41 588.00,380.92 C588.00,383.03 568.51,385.17 566.60,383.26 ZM 577.43 362.90 C583.21,361.29 592.05,352.06 595.05,344.49 C598.44,335.96 598.46,321.09 595.10,312.62 C592.06,304.98 585.01,297.59 579.31,296.07 C564.63,292.16 549.53,306.16 547.24,325.81 C544.35,350.51 558.68,368.10 577.43,362.90 ZM 370.94 376.01 C366.30,374.67 358.58,369.90 354.19,365.66 C349.26,360.90 344.52,353.18 341.21,344.50 C336.78,332.89 337.21,310.51 342.07,300.50 C343.13,298.30 344.00,296.09 344.00,295.58 C344.00,293.57 353.13,280.25 357.18,276.36 C366.02,267.88 380.07,263.03 391.61,264.47 C394.88,264.88 399.92,266.60 403.84,268.63 C410.64,272.17 419.00,279.38 419.00,281.71 C419.00,282.42 419.42,283.00 419.93,283.00 C420.86,283.00 425.98,292.69 426.35,295.17 C426.47,295.90 426.90,297.05 427.32,297.72 C428.76,300.02 429.45,306.50 429.38,317.00 C429.29,329.21 428.63,334.53 426.96,336.55 C426.30,337.35 426.09,338.00 426.49,338.00 C426.90,338.00 426.49,339.12 425.59,340.50 C424.69,341.88 424.20,343.00 424.50,343.00 C424.80,343.00 424.07,344.91 422.88,347.25 C416.53,359.70 404.35,371.04 393.49,374.58 C388.03,376.36 375.01,377.19 370.94,376.01 ZM 403.52 357.13 C409.02,354.63 416.43,346.10 419.09,339.20 C420.50,335.56 421.46,330.37 421.76,324.86 C422.43,312.62 419.71,304.51 412.51,297.25 C407.32,292.02 407.28,292.00 400.97,292.00 C390.02,292.00 383.12,296.91 377.56,308.65 C368.60,327.57 374.68,352.20 389.62,357.53 C394.89,359.41 398.75,359.30 403.52,357.13 Z" fill="rgb(254,254,254)"/>
</g>
</svg>