<svg height="1024" viewBox="0 0 1024 1024" width="1024" xmlns="http://www.w3.org/2000/svg"><path d="m591 964.49c-47.2 11.25-48.3 11.48-52 10.8-10.38-1.91-119.79-23.01-177-34.15-14.02-2.73-35.4-6.86-47.5-9.19-93.24-17.91-88.78-16.72-93.5-25.04l-2.5-4.41-.28-82.71-.28-82.71-3.22-.52c-4.28-.68-13.62-1.96-41.22-5.63-38.41-5.1-39.56-5.35-42.86-9.02-2.35-2.62-2.76-3.8-2.3-6.64.7-4.3.14-3.55 55.17-73.77 8.19-10.45 17.32-22.15 20.29-26s6.62-7.78 8.11-8.72c2.5-1.6 7.62-2.54 53.09-9.77 6.33-1.01 21.85-3.49 34.5-5.53 12.65-2.03 29.07-4.66 36.49-5.84 10.66-1.7 13.55-2.5 13.8-3.81.25-1.25-1.09-2.05-5.48-3.27-32.07-8.93-67.02-27.16-95.82-49.97-19.1-15.13-48.36-46.56-60.65-65.15l-4.01-6.05-9.17-1.7c-30.89-5.72-50.69-30.19-50.65-62.6.01-10.57 1.32-16.71 5.38-25.27 3.46-7.31 12.65-15.95 19.79-18.61 3.77-1.41 5.43-2.62 5.92-4.33 4.46-15.72 16.27-25.55 33.75-28.1 19.86-2.89 39 5.29 50.98 21.82 4.04 5.56 5.06 6.4 7.84 6.4 7.36 0 7.89-.73 9.25-12.67 2.4-21.02 9.71-48.08 17.56-64.93 4.02-8.63 4.06-9.56 1.14-22.9-2.45-11.15-3.39-31.28-2.52-53.8 2.21-56.78 15.79-107.91 33.57-126.35 8.75-9.08 12.73-10.85 24.33-10.81 7.44.03 10.73.53 15.15 2.28 22.49 8.94 61.85 47.04 86.17 83.42 4.14 6.2 5.87 9.11 8.37 10.14 2.17.9 4.92.4 10.32-.59.63-.11 1.29-.23 1.99-.36 11.83-2.13 55.74-3.03 73.11-1.5 13.34 1.18 28.36 3.75 36.86 6.3l4.47 1.34 7.41-9.54c28.82-37.03 66.65-72.53 90.88-85.26 24.09-12.66 41.26-9.54 53.8 9.78 12.19 18.79 18.73 53.71 18.72 99.95-.01 34.72-2.88 59.07-10.31 87.23l-2.96 11.23 3.52 11.62c5.84 19.26 10.13 46.64 10.77 68.81l.23 7.88 11 2.26c13.27 2.71 15.82 3.66 17.9 6.63 3.17 4.53 1.15 10.98-3.83 12.23-1.37.35-7.74-.49-14.17-1.85s-12.08-2.24-12.55-1.95-.85 1.65-.85 3.01c0 4.28-3.02 17.53-6.13 26.87-2.8 8.44-2.88 9.05-1.23 10.25.96.71 2.16 1.28 2.67 1.28 1.97 0 18.88 10.43 20.74 12.79 2.78 3.54 2.44 6.88-1.08 10.39-3.81 3.81-5.27 3.51-17.97-3.69-5.22-2.96-10.21-5.65-11.09-5.98-1.16-.44-2.9 1.47-6.56 7.2-14.34 22.41-32.36 39.59-57.54 54.86l-11.77 7.14 7.23 3.58c23.01 11.38 46.57 32.44 60.41 54.01 7.47 11.63 15.32 30.75 15.32 37.31 0 4.39 1.72 2.46 4.31-4.86 4.54-12.82 7.56-24.39 10.7-41.01 9.86-52.08 16.33-72.55 29.22-92.4 16.7-25.72 43.46-43.23 70.86-46.36 19.51-2.23 36.62 2.77 48.5 14.18 10.77 10.34 15.41 20.87 15.41 34.93 0 19.81-9.57 33.72-29.96 43.51-25.45 12.24-25.91 12.51-31.8 18.81-9.24 9.9-13.29 20.16-22.75 57.59-3.16 12.5-8.36 30.38-9.91 34.08-.67 1.61 1.42 4.35 48.9 63.92 26.37 33.09 30.07 37.96 30.93 40.7.85 2.69-1.58 7.72-4.68 9.71-1.95 1.25-13.59 3.51-60.23 11.7-6.05 1.06-13.36 2.4-16.25 2.98l-5.25 1.05-.02 81.18-.01 81.18-2.25 3.97c-1.24 2.18-3.69 4.94-5.45 6.13-.26.17-.47.33-.68.47-2.98 2.07-6.81 2.9-156.09 37.94-4.95 1.16-28.58 6.77-52.5 12.48zm-15.67-278.54c2.29.45 4.62.72 5.17.6.56-.12 1.26-5.47 1.58-12.13.45-9.23 1.07-13.04 2.79-16.89 2.54-5.71 3.47-6.49 7.73-6.51 4.82-.03 6.67 2.75 5.98 8.99-.32 2.85-.87 5.66-1.23 6.24-1.17 1.88-.25 15.05 1.25 17.94 1.22 2.36 2.08 2.81 5.42 2.81 5.25 0 15.72-5.01 20.82-9.96 2.21-2.14 6.56-7.53 9.67-11.97 3.12-4.45 6.4-8.09 7.32-8.12s8.64-.19 17.17-.36c14.84-.29 15.82-.44 22.96-3.47 25.32-10.78 36.74-28.75 33.15-52.2-3.24-21.18-13.92-39.84-33.76-59-13.8-13.32-24.56-20.91-39.35-27.76-13.98-6.47-16.79-6.85-28-3.8-11.04 3-25.6 5.64-31.09 5.64-4.73 0-7.91-3.02-7.91-7.5 0-5.19 1.67-6.29 13-8.58 10.46-2.1 24.89-6.31 32.5-9.47 15.88-6.59 34.02-17.19 47.02-27.49 6.65-5.26 20.37-19.24 24.99-25.46 1.64-2.2 3.21-4.23 3.48-4.5 1.73-1.71 5.01-7.16 5.5-9.15.55-2.21-.12-2.6-11.2-6.58-6.49-2.33-13.93-4.74-16.54-5.37s-4.75-1.58-4.75-2.13c0-.54-.67-.72-1.5-.41-.83.32-1.5.09-1.5-.5s-.69-.81-1.52-.49c-.84.32-2.41-.3-3.5-1.39-3.76-3.76-1.8-12.01 2.84-11.96 5.33.06 26.21 4.21 34.5 6.87 5.34 1.71 10.32 3.11 11.07 3.11 2.65 0 7.3-15.53 9.33-31.14l.47-3.65-9.35.45c-5.13.24-12.49.59-16.34.78s-10.55.88-14.89 1.52c-11.42 1.71-16.61-.2-16.61-6.11 0-3.59 2.78-6.41 7.69-7.81 6.25-1.79 24.96-4.19 38.2-4.89l12.38-.65-.16-10.5c-.28-18.43-4.11-40.66-10.21-59.32-3.78-11.54-5.13-21.68-2.9-21.68.55 0 1-.87 1-1.93s1.17-6.12 2.6-11.25c1.44-5.13 2.83-10.67 3.09-12.32s1.35-8.29 2.42-14.75c2.37-14.36 3.84-36.03 3.87-56.89.06-44.96-10.17-85.74-23.2-92.47-7.31-3.78-21 1.56-38.8 15.13-17.82 13.59-54.65 51.37-75.27 77.21-6.75 8.47-8.51 9.6-14.07 9.04-5.36-.53-17.95-3.98-18.78-5.13-.35-.49-1.02-.68-1.5-.41-.47.26-6.26-.37-12.86-1.41-27.21-4.28-47.63-4.33-78.5-.19-13.35 1.79-14.18 1.93-19.5 3.22-2.2.53-6.71 1.27-10.03 1.63-5.31.59-6.25.42-7.9-1.4-2.25-2.49-2.3-7.32-.1-10.67 1.98-3.03 1.7-3.61-8.3-16.91-23.08-30.72-52.73-58.94-71.59-68.13-7.04-3.43-10.71-4.12-12.87-2.42-7.21 5.66-10.02 9.05-14.02 16.85-4.45 8.67-8.98 20.91-10.25 27.66-.37 1.96-1.07 3.81-1.57 4.12s-.68.91-.42 1.35c.27.43.03 2.31-.53 4.18-.57 1.86-1.22 4.74-1.46 6.39-.23 1.65-.88 5.25-1.45 8-1.06 5.2-1.28 6.79-3.01 22.5-.57 5.23-1.45 12.43-1.95 16-.51 3.57-.91 15.56-.89 26.63.02 17.57.35 21.64 2.53 32 1.37 6.53 2.6 12.88 2.73 14.11.13 1.24.54 2.55.91 2.92 1.45 1.45.51 5.41-3.2 13.45-2.13 4.61-5.53 12.89-7.55 18.39s-3.95 10.67-4.28 11.5c-.34.83-.66 1.95-.73 2.5-.27 2.15-1.84 8.05-2.38 8.96-.31.53-.73 2.54-.93 4.46s-.78 4-1.3 4.63c-.52.62-.72 1.36-.45 1.63s.01 2.7-.57 5.4c-.58 2.71-1.03 6.03-.99 7.38.03 1.36-.43 3.97-1.03 5.79-1.45 4.39-.18 5.84 5.86 6.71 7.4 1.07 20.77 5.4 23.63 7.64 3.33 2.63 3.33 6.25.01 9.57-2.49 2.49-2.85 2.55-10.74 1.86-4.49-.39-8.61-.99-9.16-1.32-.55-.34-2.8-.73-5.01-.85l-4.01-.24.12 4.32c.12 4.38 1 11.74 2.02 16.9.54 2.75.72 2.83 5.21 2.25 14.52-1.87 17.58-1.84 19.9.18 1.24 1.08 2.25 2.82 2.25 3.87 0 2.67-2.77 6.35-4.81 6.39-.93.02-3.49.91-5.69 1.97s-5.18 1.95-6.63 1.97c-1.44.01-3.2.72-3.9 1.57-2.54 3.05 9.61 28.43 19.55 40.81 19.57 24.4 64.58 50.58 97.48 56.7 8.23 1.53 13.57 3.5 13.25 4.88-.14.59.2 1.07.75 1.07 2.1 0 .87 4.28-2.07 7.22l-3.06 3.06-8.64-.66c-4.75-.36-8.88-.99-9.18-1.39s-2.09-.83-3.97-.95c-1.89-.13-3.69-.58-4-1.02-.32-.43-1.88-.85-3.46-.92-1.58-.08-3.2-.65-3.58-1.28-.39-.62-1.45-.84-2.37-.49-.92.36-1.67.24-1.67-.25s-.85-.96-1.88-1.04c-2.74-.2-20.39-7.81-29.12-12.55-7.82-4.25-21.44-13-26.35-16.94-15.77-12.65-25.49-22.43-33.24-33.47-2.63-3.75-8.88-11.09-13.89-16.32-9.85-10.29-21.85-24.96-28.22-34.5-3.69-5.52-4.06-6.71-4.71-15-.95-12.14-4.84-24.54-9.24-29.45-4.65-5.18-8.39-8.3-12.35-10.29-2.48-1.24-4.64-2.57-4.81-2.95-.18-.39-.97-.45-1.75-.15-.79.31-1.44.1-1.44-.46 0-.63-3.38-.91-8.98-.74-7.34.23-9.98.77-14.45 2.96-7.81 3.82-8.66 8.52-1.55 8.56 3.77.03 14.91 6.99 18.03 11.27 2.94 4.03 3.37 9.34.98 12.21-1.3 1.57-6.59 2.15-7.2.79-.4-.92-5.12-3.79-9.83-6-1.93-.9-6.91-1.82-11.09-2.04-9.87-.53-16.09 1.98-22.44 9.03-2.46 2.74-4.47 5.35-4.47 5.8 0 .46-.5 2.1-1.12 3.64-2.39 6.03-2.16 15.32.39 15.32.68 0 2.8-1.36 4.73-3.01 4.2-3.61 8.6-4.98 16.07-4.98 8.07-.01 18.23 3.73 21.65 7.98 1.6 1.98 1.61 6.84.03 8.33-3.77 3.54-4.58 3.84-6.94 2.6-1.27-.67-2.58-1.63-2.91-2.14-.33-.5-3.95-1.17-8.05-1.47-5.77-.44-8.16-.2-10.6 1.06-4.28 2.21-8.25 7.66-8.25 11.32 0 4.24 4.74 10.32 12.19 15.6 7.47 5.31 13.82 7.64 22.76 8.33 10.46.81 10.14.6 17.59 11.6 3.83 5.65 8.42 11.86 10.2 13.78s3.25 3.82 3.25 4.2c.02 1.85 36.36 38.97 43.6 44.53 1.6 1.23 6.06 4.66 9.91 7.62 23.03 17.68 51.21 32.41 77.5 40.49 7.77 2.39 8.16 2.12 9.95-6.97 1.19-6.06 4.57-10.87 7.63-10.87 2.89 0 6.51 2.1 7.55 4.38 1.09 2.4.46 7.14-5.63 42.12-1.69 9.71-2.1 12.55-2.78 19.5-.24 2.47-.76 6.12-1.16 8.1l-.73 3.6 5.34.69c2.93.37 12.98 1.53 22.33 2.58 9.35 1.04 23.3 2.59 31 3.45 29.33 3.28 59.77 6.44 73.5 7.62 5.77.5 12.37 1.17 14.66 1.48 3.55.49 4.39.24 5.75-1.69.87-1.25 1.59-2.89 1.59-3.65 0-1.58 1.95-6.31 5.81-14.12 2.3-4.65 12.58-16.21 18.54-20.85 3.73-2.91 16.84-9.39 23.76-11.76 8.84-3.01 23.68-5.3 37.38-5.76l10-.34.61-3.78c.72-4.37 2.11-5.53 6.69-5.55 3.52-.02 6.24 2.06 10.12 7.73 1.75 2.55 2.93 3.25 5.5 3.25 4.33 0 18.37 3.63 21.19 5.48 1.77 1.15 2.18 2.24 1.95 5.16-.32 3.97-2.58 6.37-5.99 6.35-1.13 0-7.91-.72-15.06-1.6-16.22-1.98-39.61-2.21-49.5-.48-11.22 1.96-24.78 6.57-31.8 10.82-12.6 7.62-21.63 19.3-24.12 31.22-.99 4.72-.94 7.26.28 15.05.75 4.76 7.95 15 10.54 15 .68 0 1.1-2.38 1.1-6.25.01-6.44 3.11-17.21 6.4-22.24 2.33-3.56 5.97-5.12 8.86-3.8 2.97 1.35 5.23 5.63 4.22 7.97-.43 1-.9 2.27-1.04 2.82s-.95 2.61-1.79 4.58-1.63 6.71-1.74 10.53c-.39 13.31 6.13 21.93 18.42 24.34zm-47.83 268.35c1.65.22 3.54.47 4.19.55.66.08 1.91-.86 2.78-2.1 1.43-2.03 1.57-15.11 1.48-132.22-.07-81.91-.47-130.64-1.08-131.78-.92-1.72-1.13-1.69-3.87.47-1.59 1.25-2.91 2.6-2.94 3-.1 1.27-6.41 9.78-7.25 9.78-.45 0-.81.69-.81 1.53s-.67 1.79-1.5 2.11c-.83.31-1.5 1.24-1.5 2.04 0 .81-1.35 2.82-3 4.47s-3 3.43-3 3.96c0 .52-.67 1.21-1.5 1.53-.83.31-1.5 1.14-1.5 1.82 0 .69-1.12 2.46-2.5 3.95-1.38 1.48-2.5 3.13-2.5 3.67s-.67 1.24-1.5 1.56c-.83.31-1.5 1.18-1.5 1.92s-.56 1.7-1.25 2.14-1.87 2-2.62 3.46-2.67 4.08-4.25 5.81-2.88 3.51-2.88 3.95c0 .43-1.12 2-2.5 3.49-1.38 1.48-2.5 2.94-2.5 3.25 0 .81-5.92 8.3-9.75 12.34-3.15 3.32-3.64 3.49-9.53 3.34-5.73-.15-36.17-4.02-78.22-9.95-9.35-1.32-19.34-2.59-22.19-2.83-2.86-.25-13.66-1.58-24-2.97-70.58-9.46-102.69-13.47-103.56-12.93-.88.54-1.01 150.13-.14 155.4l.59 3.56 7.65 1.21c8.98 1.41 17.03 2.93 34.15 6.43 6.88 1.41 18.8 3.75 26.5 5.2s15.58 3.05 17.5 3.54c1.92.5 6.2 1.35 9.5 1.91 6.85 1.14 21.61 3.79 29 5.19 2.75.53 6.24 1.01 7.75 1.08s2.75.45 2.75.86c0 .4 2.14 1.04 4.75 1.41 2.61.38 15.33 2.74 28.25 5.25 33.32 6.48 39.96 7.74 53.5 10.2 6.6 1.2 14.7 2.79 18 3.55s8.7 1.86 12 2.44c3.3.59 12.75 2.4 21 4.04 8.25 1.63 16.35 3.15 18 3.37zm24.02-10.05c.49 6.87 1.07 9.75 1.97 9.75.7 0 8.75-1.8 17.89-4 9.13-2.2 17.52-4 18.63-4s2.8-.41 3.75-.91c.96-.5 4.44-1.44 7.74-2.08 3.3-.65 7.8-1.62 10-2.17s14.35-3.47 27-6.48 24.45-5.92 26.23-6.47c1.77-.55 5.37-1.4 8-1.89 5.6-1.04 12.42-2.58 20.77-4.67 3.3-.83 8.25-1.97 11-2.53 2.75-.55 5.78-1.41 6.74-1.91.95-.49 2.75-.9 4-.9 1.24-.01 4.06-.65 6.26-1.41 2.2-.77 7.15-2.06 11-2.88 10.84-2.3 26.63-5.77 30.5-6.7 1.92-.46 5.53-1.29 8-1.83s7.42-1.82 11-2.84l6.5-1.86.26-76.74c.14-42.2-.09-76.73-.5-76.73-.42.01-8.18 1.41-17.26 3.11-9.08 1.71-17.85 3.13-19.5 3.15s-3.22.34-3.5.71c-.54.71-24.85 5.34-29 5.53-1.38.06-3.17.39-4 .74-2.68 1.13-11.41 2.62-12.26 2.1-.46-.28-1.37-.09-2.03.43-1.49 1.16-13.03 3.43-17.46 3.43-1.79 0-3.51.41-3.82.92-.31.5-1.03.63-1.59.28-.57-.35-2-.16-3.19.43-2.78 1.37-38.73 8.17-43.22 8.17-1.89 0-3.43-.45-3.43-1s-.69-1-1.52-1c-.84 0-1.93-1.06-2.43-2.36-.49-1.3-1.61-2.64-2.47-2.97-.87-.33-1.58-1.07-1.58-1.64s-.79-1.86-1.75-2.87c-.96-1-2.42-2.87-3.25-4.15s-2.29-3.03-3.25-3.89-1.75-2.09-1.75-2.74c0-.64-.67-1.43-1.5-1.74-.83-.32-1.51-1.15-1.53-1.86-.01-.7-1.36-2.59-3-4.2-1.63-1.6-2.97-3.5-2.97-4.21 0-.72-.9-1.78-2-2.37s-2-1.73-2-2.54c0-.8-.45-1.46-1-1.46s-1-.58-1-1.28-.79-1.98-1.75-2.84-2.42-2.61-3.25-3.89-2.29-3.15-3.25-4.15c-.96-1.01-1.75-2.14-1.75-2.51 0-.66-1.88-2.84-5.25-6.09-.96-.93-1.75-2.21-1.75-2.86 0-.64-.67-1.43-1.5-1.74-.83-.32-1.5-1.08-1.5-1.7 0-1.66-4.1-4.75-7.25-5.47-1.51-.35-2.75-1.03-2.75-1.52s-.62-.65-1.37-.36c-.76.29-2.1-.2-2.99-1.1-.9-.89-2.08-1.34-2.63-.99-.56.34-1.01.11-1.01-.5s-.45-.84-1-.5-1 .24-1-.23c0-.46-.79-.9-1.75-.98-1.66-.12-1.77 6.33-2.09 120.04-.19 66.09-.02 124.56.36 129.92zm-95.52-194.28c3.02.42 6.03.83 6.68.9 1.29.14 3.01-1.42 5.32-4.85 3.33-4.93 8.93-12.62 10.3-14.16.81-.89 2.53-3.13 3.84-4.97 1.3-1.83 2.94-3.96 3.65-4.73.71-.76 2.79-3.7 4.62-6.52 1.83-2.83 4.28-6.26 5.44-7.64s2.57-3.04 3.13-3.71c.56-.66 1.02-1.5 1.02-1.87 0-.36 1.35-2.19 3-4.07s3-3.85 3-4.38c0-.54.79-1.77 1.75-2.75s2.87-3.28 4.25-5.1 3.45-4.51 4.6-5.97c4.6-5.8 4.77-6.87 2.05-12.48-1.38-2.84-3.02-6.82-3.63-8.84-1.24-4.07-1.61-4.19-15.52-5.31-3.85-.31-9.25-.76-12-1.01-10.49-.95-71.85-7.6-101-10.94-12.1-1.39-24.48-2.77-27.5-3.06-3.02-.3-17.88-2.13-33-4.06-15.12-1.94-28.4-3.57-29.5-3.61-1.52-.06-53.17-5.86-72.79-8.18-2.23-.26-3.43.46-6 3.59-1.77 2.15-4 4.77-4.96 5.83s-1.75 2.33-1.75 2.82c0 .82-3.95 5.75-8.08 10.09-.86.92-1.86 2.42-2.22 3.34-.35.92-1.1 1.67-1.67 1.67s-1.03.67-1.03 1.49-.9 2.06-2 2.74c-1.1.69-2 2.02-2 2.96s-.66 2.08-1.46 2.53c-.81.45-3.17 3.08-5.25 5.85-3.89 5.17-5.49 7.14-8.54 10.5-.96 1.06-1.75 2.27-1.75 2.68-.01.41-1.58 2.46-3.5 4.56-1.93 2.09-3.5 4.22-3.5 4.74 0 .51-.9 1.5-2 2.18-1.1.69-2 1.83-2 2.54s-.68 1.55-1.5 1.87c-.82.31-1.5 1.11-1.5 1.77 0 .65-1.75 3-3.88 5.23-3.79 3.94-6.07 8.28-4.44 8.44.45.04 1.72.25 2.82.46 4.34.85 16.43 2.55 24.5 3.45 4.68.52 15.48 1.87 24 2.99s29.45 3.87 46.5 6.09c17.05 2.23 34.15 4.49 38 5.02 3.85.54 12.4 1.62 19 2.42 6.6.79 16.95 2.13 23 2.96s19.77 2.65 30.5 4.04 26.02 3.41 34 4.49c7.98 1.07 23.27 3.14 34 4.58s21.98 2.97 25 3.39zm172.79-.97c2.88 3.85 5.79 7 6.47 7 .68-.01 10.69-1.76 22.24-3.89 11.55-2.14 26.62-4.87 33.5-6.06 6.88-1.2 13.85-2.55 15.5-3s8.62-1.8 15.5-3.01c6.88-1.2 13.85-2.58 15.5-3.06s7.28-1.61 12.5-2.51c5.22-.91 11.08-2.05 13-2.53 1.92-.49 14.3-2.95 27.5-5.46 13.2-2.52 26.25-5.03 29-5.58s14.67-2.9 26.49-5.21c15.92-3.12 21.56-4.59 21.76-5.7.15-.82-1.98-3.96-4.73-6.99-2.76-3.03-5.01-5.79-5.02-6.14 0-.35-1.56-2.38-3.48-4.5-1.91-2.12-3.48-4.18-3.5-4.57-.01-.39-.85-1.52-1.87-2.5-1.01-.98-4.63-5.39-8.04-9.79s-7.19-9.16-8.4-10.59c-1.22-1.42-2.88-3.6-3.71-4.84-.83-1.23-2.4-3.27-3.5-4.53-1.1-1.25-2.9-3.55-4-5.1-1.1-1.56-3.01-3.72-4.25-4.81-1.24-1.1-2.25-2.55-2.25-3.23s-.35-1.38-.77-1.57c-.42-.18-2.74-2.69-5.16-5.58-3.24-3.88-5.07-5.25-7-5.25-1.44 0-14.76 1.98-29.59 4.4-14.84 2.43-32.04 5.18-38.23 6.12-6.19.95-11.25 2.13-11.25 2.64 0 1.78-16.86 17.77-19.42 18.41-1.42.36-2.58.99-2.58 1.41s-2.59 1.88-5.75 3.25c-10.68 4.62-26.7 7.71-40.25 7.76l-7.5.03-2.4 4.19c-2.78 4.87-14.02 16.77-15.85 16.78-.69.01-1.25.38-1.25.82 0 .93-6.44 4.19-8.28 4.2-.67 0-2.57.74-4.22 1.63-1.77.97-6.37 1.84-11.25 2.12-4.54.27-8.25.88-8.25 1.35s2.92 4.65 6.5 9.28 6.5 8.71 6.5 9.07 1.35 2.09 3 3.84c1.64 1.76 2.99 3.51 3 3.89 0 .39 1.57 2.41 3.5 4.5 1.92 2.1 3.49 4.37 3.5 5.06 0 .69.35 1.25.78 1.25.42 0 3.13 3.15 6.01 7zm106.73-127.12c-.7 2.25-.55 2.35 2.62 1.8 1.85-.32 7.19-1.11 11.86-1.74s10.75-1.58 13.5-2.11 8.15-1.36 12-1.85c13.63-1.73 20.5-4.17 20.5-7.29 0-1.08.86-3.82 1.91-6.08 4.01-8.64 5.09-11.48 5.09-13.38 0-1.08.93-4.84 2.07-8.35 1.79-5.48 6.59-22.83 10.07-36.38.57-2.2 1.41-4.9 1.87-6s1.6-4.25 2.52-7c2.09-6.18 5.71-13.41 10.05-20.08 5.36-8.24 17.41-17.96 27.71-22.34 25.03-10.65 33.64-19.29 33.69-33.79.04-12.69-7.3-23.62-18.76-27.92-2.6-.97-4.95-2.1-5.23-2.5-.29-.4-1.19-.65-2-.57-.82.09-4.41-.18-7.99-.61-11.84-1.4-27.7 2.68-40.65 10.46-7.51 4.51-18.09 14.4-24.18 22.62-6.32 8.52-16.33 27.77-17.72 34.06-.16.73-.62 2.08-1.02 3s-.85 2.27-1 3-.6 2.08-.99 3c-.4.92-.82 2.34-.94 3.17-.48 3.31-4.68 22.6-5.23 24-.32.83-.51 1.84-.43 2.26.09.42-.3 2.67-.87 5s-1.28 6.01-1.57 8.18-.89 4.64-1.33 5.5-.59 2.14-.34 2.84c.25.71-.03 1.88-.63 2.6-.59.71-1.28 2.84-1.52 4.71-.25 1.88-.53 3.63-.63 3.91s-.12.88-.03 1.36c.08.47-.33 1.43-.92 2.14s-1 1.67-.92 2.14c.09.48.07 1.08-.04 1.36-.12.28-.32 1.4-.46 2.5-.54 4.16-1.76 8.5-2.41 8.5-.37 0-.74 1.18-.82 2.63-.09 1.45-.76 3.02-1.5 3.49s-.96.86-.48.86c.48.01.37.62-.24 1.36s-.82 1.64-.45 2c.36.36.1.66-.57.66-.68 0-.95.45-.61 1 .66 1.08-7.1 18.2-10.31 22.77-1.06 1.5-2.26 3.8-2.67 5.11zm-233.77-147.93c-4.01 1.69-7.73 2.29-15.75 2.55-11.31.37-15-.04-15-1.68 0-.57-.62-.8-1.37-.51-1.34.52-11.56-3.68-12.61-5.17-.28-.41-2.22-1.78-4.29-3.04-2.08-1.26-5.79-4.84-8.26-7.95s-4.96-6.23-5.55-6.93c-3.09-3.74-7.46-16.29-8.76-25.19-.65-4.38-.76-4.5-5.09-5.23-2.43-.42-4.74-1.27-5.14-1.91-.39-.63-1.15-.87-1.69-.54-1.73 1.07-12.05-7.23-16.21-13.04-4.57-6.39-5.38-11.78-2.2-14.66 3.78-3.42 6.24-2.27 13.74 6.44 1.78 2.07 5.44 4.55 8.71 5.91 5.26 2.18 6.04 2.25 11.43 1.06 4.78-1.05 6.59-2.1 10.41-6.03 2.96-3.04 4.78-5.89 5.08-7.95.43-2.9.03-3.51-4.11-6.33-9.34-6.36-15.47-14.76-16.23-22.25-.58-5.63 1.17-14.58 2.97-15.17.92-.3 3.25-1.28 5.17-2.19 5.14-2.41 27.72-2.24 38.5.29 14.75 3.46 18.12 7.48 15.07 17.96-1.68 5.8-9.58 16.61-12.12 16.61-.8 0-1.45.39-1.45.88 0 .48-2.21 1.82-4.91 2.99l-4.91 2.11 1.1 3.59c1.61 5.24 8.01 11.95 14.19 14.87 4.46 2.11 6.87 2.56 13.8 2.56 7.5 0 9.14-.36 15.34-3.38 4.41-2.14 8.2-4.89 10.41-7.54 8.29-9.93 8.83-10.36 12.27-9.7 1.77.34 4.5 2.04 6.08 3.77 2.62 2.88 2.83 3.64 2.33 8.48-.3 2.92-.9 5.88-1.33 6.58-.43.69-.83 1.94-.91 2.77-2.18 25.31-8.59 42.02-20.87 54.47-4.05 4.1-8.54 7.75-9.98 8.11s-2.61 1-2.61 1.42c0 .41-2.36 1.75-5.25 2.97zm75.68-111.05c-18.75 5.2-33.08-12.39-30.19-37.09 2.29-19.65 17.39-33.65 32.07-29.74 5.7 1.52 12.75 8.91 15.79 16.55 3.36 8.47 3.34 23.34-.05 31.87-3 7.57-11.84 16.8-17.62 18.41zm-173.91-5.77c-4.77 2.17-8.63 2.28-13.9.4-14.94-5.33-21.02-29.96-12.06-48.88 5.56-11.74 12.46-16.65 23.41-16.65 6.31 0 6.35.02 11.54 5.25 7.2 7.26 9.92 15.37 9.25 27.61-.3 5.51-1.26 10.7-2.67 14.34-2.66 6.9-10.07 15.43-15.57 17.93zm272.93-133.68c-3.11 3.12-5.53 3.23-8.05.4-1.04-1.18-5.95-5.53-10.9-9.65-4.95-4.13-9.15-7.88-9.33-8.35-.19-.47-.94-.85-1.67-.85s-1.48-.35-1.67-.79c-.18-.43-4.16-3-8.83-5.71s-8.65-5.28-8.83-5.71c-.19-.44-.95-.79-1.71-.79-.75 0-2.51-1.15-3.91-2.55-4.16-4.15-3.47-7.98 3.14-17.64 3.12-4.57 6.16-8.86 6.75-9.53 1.27-1.45 2.04-2.42 6.53-8.28 6.81-8.89 22.17-25.82 28.21-31.11 8.12-7.12 10.84-8.88 13.7-8.88 2.75-.01 6.12 3.41 6.12 6.2 0 1.06-4.93 7.05-11.16 13.54-18.27 19.07-37.52 44.33-36.26 47.6.36.94 3.86 3.77 7.79 6.3 9.06 5.84 22.78 17.33 25.76 21.58 1.27 1.8 2.66 3.42 3.1 3.61.98.41 3.77 5.65 3.77 7.06 0 .56-1.15 2.15-2.55 3.55zm-347.2-4.58c-1.17.62-2.8 1.13-3.63 1.13-1.85 0-4.62-3.78-4.62-6.29 0-2.98 5.72-10.45 11.32-14.78 2.85-2.21 6.08-4.79 7.18-5.75 2.32-2.01 15.82-10.66 22.75-14.58 2.61-1.48 4.75-3.2 4.75-3.83 0-4.07-16.07-28.21-33.38-50.14-3.28-4.17-3.66-7.82-1.09-10.66 2.18-2.41 4.73-2.5 8.11-.28 7.68 5.03 35.71 43.09 42.8 58.1 4.14 8.78 3.36 10.55-6.91 15.71-4.39 2.2-8.49 4.47-9.11 5.03-.62.57-3.32 2.15-5.99 3.5-2.67 1.36-5.67 3.19-6.66 4.06s-3.03 2.22-4.54 3c-1.5.77-2.96 1.69-3.23 2.03-1.04 1.29-15.73 12.66-17.75 13.75zm149.25 244.13c3.06 1.31 7.17 1.15 12.85-.5 13.07-3.82 24.07-15.26 28.14-29.27 1.04-3.59-4.79-5.57-15.99-5.41-10.21.14-11.81.34-16 2.02-8.55 3.41-11.35 5.02-15.48 8.89-2.49 2.33-4.86 4.24-5.27 4.25s-.75.61-.75 1.33-.79 2.19-1.75 3.25c-.96 1.07-1.89 3.15-2.06 4.63-.26 2.23.52 3.31 4.5 6.23 2.64 1.94 5.93 3.57 7.31 3.63 1.38.05 3.4.48 4.5.95zm128.75-219.77c-3.38 2.97-5.57 2.73-13.38-1.42-10.04-5.34-17.79-6.07-30.32-2.88-9.44 2.41-12.25 2.11-13.13-1.38-1.38-5.49-.19-7.77 5.58-10.67 8.4-4.22 12.76-5.12 23.08-4.73 8.21.3 10.29.77 16.2 3.64 11.9 5.79 16.92 13.09 11.97 17.44zm-236.25-4.79c-9.66 4.11-11.32 4.24-13.84 1.03-3.75-4.77.03-11.76 8.34-15.42 8.48-3.74 9.84-4.05 17.86-4.05 8.78 0 13.61 1.58 20.39 6.66 3.83 2.88 4.48 7.91 1.39 10.71-1.92 1.74-8.81 1.66-10.05-.11-.32-.47-2.17-1.04-4.09-1.27-8.02-.94-13.64-.26-20 2.45zm-61.5 378.46c12.65 1.6 25.8 2.95 29.23 3 .26.01.5.01.74.02 2.55.04 4.04.07 4.96-.65 1.39-1.08 1.46-3.85 1.87-10.82.36-6.28.2-7.06-1.43-7.18-1.01-.08-2.08.26-2.39.76s-1.84.65-3.4.34c-1.6-.32-3.13-.09-3.52.53-.38.61-1.73.84-3.01.52s-2.63-.09-3 .5c-.37.6-1.72.82-3 .5s-2.62-.11-2.98.47c-.36.57-1.93.79-3.49.48-1.6-.32-3.13-.09-3.52.53-.38.61-1.73.84-3.01.52s-2.62-.11-2.98.47c-.36.57-1.93.79-3.49.48-1.56-.32-3.13-.1-3.49.49-.36.58-1.31.8-2.12.49s-2.26-.22-3.22.19c-.96.42-2.72.66-3.9.55-1.19-.11-2.45.27-2.81.85s-1.95 1.06-3.54 1.06c-3.08 0-4.99 1.69-2.81 2.5.72.27 11.66 1.8 24.31 3.4zm-53.7-228.15c1.34 1.79 2.83 3.25 3.32 3.25h.14c.21.01.37.01.48-.07.38-.25.13-1.45-1.01-6.84-.07-.34-.15-.71-.23-1.08-.82-3.92-1.79-10.93-2.15-15.57l-.65-8.44h-3.29c-1.81 0-3.51.36-3.78.79-.61.99 2.84 21.52 3.92 23.35.45.75 1.91 2.82 3.25 4.61z" fill="#2f1804"/><path d="m551.19 803.17c.3-102.98.46-109 2.06-108.88.96.08 1.75.52 1.75.98 0 .47.45.57 1 .23s1-.11 1 .5.45.84 1.01.5c.55-.35 1.73.1 2.63.99.89.9 2.23 1.39 2.99 1.1.75-.29 1.37-.13 1.37.36s1.24 1.17 2.75 1.52c3.15.72 7.25 3.81 7.25 5.47 0 .62.67 1.38 1.5 1.7.83.31 1.5 1.1 1.5 1.74 0 .65.79 1.93 1.75 2.86 3.37 3.25 5.25 5.43 5.25 6.09 0 .37.79 1.5 1.75 2.51.96 1 2.42 2.87 3.25 4.15s2.29 3.03 3.25 3.89 1.75 2.14 1.75 2.84.45 1.28 1 1.28 1 .66 1 1.46c0 .81.9 1.95 2 2.54s2 1.65 2 2.37c0 .71 1.34 2.61 2.97 4.21 1.64 1.61 2.99 3.5 3 4.2.02.71.7 1.54 1.53 1.86.83.31 1.5 1.1 1.5 1.74 0 .65.79 1.88 1.75 2.74s2.42 2.61 3.25 3.89 2.29 3.15 3.25 4.15c.96 1.01 1.75 2.3 1.75 2.87s.71 1.31 1.58 1.64c.86.33 1.98 1.67 2.47 2.97.5 1.3 1.59 2.36 2.43 2.36.83 0 1.52.45 1.52 1s1.54 1 3.43 1c4.49 0 40.44-6.8 43.22-8.17 1.19-.59 2.62-.78 3.19-.43.56.35 1.28.22 1.59-.28.31-.51 2.03-.92 3.82-.92 4.43 0 15.97-2.27 17.46-3.43.66-.52 1.57-.71 2.03-.43.85.52 9.58-.97 12.26-2.1.83-.35 2.62-.68 4-.74 4.15-.19 28.46-4.82 29-5.53.28-.37 1.85-.69 3.5-.71s10.42-1.44 19.5-3.15c9.08-1.7 16.84-3.1 17.26-3.11.31 0 .51 19.36.54 46.79-.1-16.58-.41-21.84-1.04-21.9-2.99-.25-7.9.41-17.26 2.3-5.5 1.11-13.6 2.66-18 3.45-11.42 2.03-15.44 2.8-29.5 5.66-6.88 1.4-18.76 3.5-26.4 4.66-7.65 1.16-14.24 2.32-14.64 2.57-1.69 1.04-61.72 10.54-64.91 10.27-.62-.06-1.12-.08-1.6-.2-2.4-.58-4.22-3.55-17.86-24.86-3.25-5.08-13.69-21.03-23.2-35.45-9.52-14.42-18.08-27.69-19.04-29.5-1.34-2.51-1.84-2.88-2.12-1.54-.21.96-.68 1.75-1.05 1.75-.43 0-.79 44.13-.99 94.17zm-241.69-186.27c-9.44-1.2-17.92-2.35-21.93-2.97 2.27-.06 4.93-.85 4.93-1.93 0-.97-.69-1.32-2.6-1.22.8-.2 1.43-.5 1.64-.84.36-.58 1.62-.96 2.81-.85 1.18.11 2.94-.13 3.9-.55.96-.41 2.41-.5 3.22-.19s1.76.09 2.12-.49c.36-.59 1.93-.81 3.49-.49 1.56.31 3.13.09 3.49-.48.36-.58 1.7-.79 2.98-.47s2.63.09 3.01-.52c.39-.62 1.92-.85 3.52-.53 1.56.31 3.13.09 3.49-.48.36-.58 1.7-.79 2.98-.47s2.63.1 3-.5c.37-.59 1.72-.82 3-.5s2.63.09 3.01-.52c.39-.62 1.92-.85 3.52-.53 1.56.31 3.09.16 3.4-.34s1.38-.84 2.39-.76c1.63.12 1.79.9 1.43 7.18-.41 6.97-.48 9.74-1.87 10.82-.92.72-2.41.69-4.96.65-.24-.01-.48-.01-.74-.02-3.43-.05-16.58-1.4-29.23-3zm224.96-450.24c-14.81-2.1-49.36-2.5-69.14-1.07 26.02-3.01 44.95-2.66 69.14 1.07zm-249.88 446.46c.02.04.05.08.08.12-.41-.28-.49-.61-.33-.93-.03.23.05.5.25.81zm3.01-2.11c-.79.11-1.42.22-1.91.36.53-.19 1.18-.32 1.91-.36zm156.52-442.56c-1.25.22-2.19.39-3.08.58.96-.2 1.92-.38 3.08-.58z" fill="#c5863d"/><path d="m824.13 501.17c3.28 4.3 6.45 7.83 7.05 7.83s2.98-1.69 5.29-3.75c.31-.28.62-.55.92-.82-3.19 2.98-5.92 6.08-7.81 8.99-4.34 6.67-7.96 13.9-10.05 20.08-.92 2.75-2.06 5.9-2.52 7s-1.3 3.8-1.87 6c-1.74 6.78-3.81 14.51-5.67 21.22.49-1.86 1.01-3.87 1.57-6.04l3.27-12.82-7.9-8.02c-11.72-11.88-21.5-19.55-29.85-23.41-4.05-1.87-7.56-3.41-7.85-3.43.87-4.08 1.61-7.72 1.79-9 .12-.83.54-2.25.94-3.17.39-.92.84-2.27.99-3s.6-2.08 1-3 .86-2.27 1.02-3c.94-4.27 5.86-14.52 10.9-23.32-.16.54-.21.98-.14 1.33.16.82 1.64 1.94 3.29 2.49 5.15 1.72 18.88 10.31 24.39 15.26 2.9 2.61 7.96 8.27 11.24 12.58zm-26.38 83.37c1.51 1.82 3.42 3.34 4.25 3.38.9.04 1.95-1.77 3.48-6.31-.15.48-.28.9-.41 1.27-1.14 3.51-2.07 7.27-2.07 8.35 0 1.9-1.08 4.74-5.09 13.38-1.05 2.26-1.91 5-1.91 6.08 0 3.12-6.87 5.56-20.5 7.29-2.48.32-5.62.78-8.26 1.2 2.41-.89 3.09-2.08 1.91-3.5-.71-.85-5.86-4.14-11.47-7.32-5.6-3.18-10.56-6.24-11.02-6.82-.51-.62-.62-.33-.29.71.31.96.14 1.75-.38 1.75-.53 0-2.15 2.36-3.6 5.25-.38.76-.8 1.56-1.23 2.35 3.53-6.8 7.84-16.79 7.34-17.6-.34-.55-.07-1 .61-1 .67 0 .93-.3.57-.66-.37-.36-.16-1.26.45-2s.72-1.35.24-1.36c-.48 0-.26-.39.48-.86s1.41-2.04 1.5-3.49c.08-1.45.45-2.63.82-2.63.65 0 1.87-4.34 2.41-8.5.14-1.1.34-2.22.46-2.5.11-.28.13-.88.04-1.36-.08-.47.33-1.43.92-2.14s1-1.67.92-2.14c-.09-.48-.07-1.08.03-1.36s.38-2.03.63-3.91c.09-.73.25-1.5.45-2.21-.02.2-.03.4-.03.6 0 1.85.7 2.51 3.25 3.07 8.32 1.8 29.07 15.24 35.5 22.99zm-287.83-419.56c-.38 1.28-2.03 6.55-3.99 12.72-2.23 7.04-5.37 17.88-6.96 24.09-3.13 12.22-7.14 22.15-9.98 24.72-3.74 3.39-10.67 1.99-13.45-2.71-3.28-5.56-3.72-28.87-.98-52.71l.69-6.03c10.67-.39 23.31-.42 34.67-.08zm-31.42 298.02c-1.1-.47-3.12-.9-4.5-.95-1.38-.06-4.67-1.69-7.31-3.63-3.98-2.92-4.76-4-4.5-6.23.17-1.48 1.1-3.56 2.06-4.63.96-1.06 1.75-2.53 1.75-3.25s.34-1.32.75-1.33 2.78-1.92 5.27-4.25c4.13-3.87 6.93-5.48 15.48-8.89 4.19-1.68 5.79-1.88 16-2.02 11.2-.16 17.03 1.82 15.99 5.41-4.07 14.01-15.07 25.45-28.14 29.27-1.15.33-2.22.6-3.24.81.19-.09.32-.2.39-.31.38-.61-1.16-1-3.94-1-2.51 0-4.56.45-4.56 1 0 .31.56.58 1.43.77-1.07-.13-2.05-.39-2.93-.77zm83.5-290.44c-2.56-.45-3.96 1.4-6.97 8.03-4.16 9.17-14.76 26-18.19 28.9-3.55 2.98-8.8 3.34-11.06.76-3.54-4.05-2.6-18.06 2.3-34.16 2.08-6.83 1.96-9.12-1.1-10.23 2.83.23 5.36.5 7.48.8.34.05.69.11 1.04.16 6.6 1.04 12.39 1.67 12.86 1.41.48-.27 1.15-.08 1.5.41.57.79 6.65 2.65 12.14 3.92zm-102.59-6.24c-.26.85-1.08 6.99-1.9 14.22-2.62 23.23-5.52 31.46-11.1 31.46-5.69 0-10.39-11.26-12.44-29.83l-1.25-11.33-2.11.24c2.62-.37 5.33-.85 6.89-1.23 1.38-.33 2.46-.59 3.53-.82.89-.19 1.83-.36 3.08-.58 2.55-.42 6.1-.91 12.89-1.82.81-.1 1.61-.21 2.41-.31zm-174.83 446.8c-.2-.31-.28-.58-.25-.81.18-.36.66-.7 1.35-.94.49-.14 1.12-.25 1.91-.36.14-.01.27-.01.41-.01.66 0 1.32-.08 1.9-.22 1.91-.1 2.6.25 2.6 1.22 0 1.08-2.66 1.87-4.93 1.93-1.36-.21-2.2-.36-2.38-.43-.22-.08-.39-.17-.53-.26-.03-.04-.06-.08-.08-.12zm506.31-152.55c.44-.64.87-1.24 1.28-1.8 4.95-6.68 12.87-14.47 19.7-19.58-6.84 5.33-15.42 14.24-20.98 21.38zm-219.86-286.68c-2.51.22-5.37-.07-7.59-.91-.3-.12-.59-.22-.87-.29 2.33.52 4.51.92 6.07 1.08.88.09 1.66.13 2.39.12zm190.45 374.95c-.07.25-.14.48-.2.66-.36 1.1-.56 2.75-.42 3.66.13.92-.24 1.95-.81 2.31-.01.01-.02.01-.04.02.03-.04.06-.08.09-.11.6-.72.88-1.89.63-2.6-.25-.7-.1-1.98.34-2.84.12-.25.26-.63.41-1.1zm-175.17-388.54c-1.11 1.36-2.17 2.68-3.18 3.96-2.92 3.72-6.27 7.43-7.45 8.25-.5.35-1.16.65-1.91.87 2.46-.94 4.73-3.37 8.94-8.65 1.15-1.44 2.35-2.92 3.6-4.43zm32.17-35.77c15.01-15.57 29.97-29.74 39.5-37.01-9.4 7.16-24.53 21.51-39.5 37.01zm137.69 496.52c-2.07.31-4.24.63-6.17.89-1.19.16-2.42.33-3.62.5 3.08-.47 6.72-.99 9.79-1.39zm-18.33 2.68c-2.02.35-2.68.37-2.66-.4.01.07.03.13.06.19.21.35.91.4 2.6.21zm28.83-100.45c-.34 1.78-.72 3.37-1.06 4.52.26-1.04.64-2.64 1.06-4.52zm82.02-27.59c2.91-1.89 5.72-3.39 8.6-4.61-2.8 1.18-5.72 2.77-8.6 4.61zm-84.58 39.97c-.04.17-.08.35-.12.53-.18.75-.38 1.62-.57 2.51.19-.89.37-1.73.55-2.44.05-.2.1-.4.14-.6z" fill="#dd6f0e"/><path d="m551.52 944.25c-.38-5.36-.55-63.83-.36-129.92.01-3.84.02-7.56.03-11.16.2-50.04.56-94.17.99-94.17.37 0 .84-.79 1.05-1.75.28-1.34.78-.97 2.12 1.54.96 1.81 9.52 15.08 19.04 29.5 9.51 14.42 19.95 30.37 23.2 35.45 13.64 21.31 15.46 24.28 17.86 24.86.48.12.98.14 1.6.2 3.19.27 63.22-9.23 64.91-10.27.4-.25 6.99-1.41 14.64-2.57 7.64-1.16 19.52-3.26 26.4-4.66 14.06-2.86 18.08-3.63 29.5-5.66 4.4-.79 12.5-2.34 18-3.45 9.36-1.89 14.27-2.55 17.26-2.3.63.06.94 5.32 1.04 21.9 0 9.21-.01 19.34-.04 29.94l-.26 76.74-6.5 1.86c-3.58 1.02-8.53 2.3-11 2.84s-6.08 1.37-8 1.83c-3.87.93-19.66 4.4-30.5 6.7-3.85.82-8.8 2.11-11 2.88-2.2.76-5.02 1.4-6.26 1.41-1.25 0-3.05.41-4 .9-.96.5-3.99 1.36-6.74 1.91-2.75.56-7.7 1.7-11 2.53-8.35 2.09-15.17 3.63-20.77 4.67-2.63.49-6.23 1.34-8 1.89-1.78.55-13.58 3.46-26.23 6.47s-24.8 5.93-27 6.48-6.7 1.52-10 2.17c-3.3.64-6.78 1.58-7.74 2.08-.95.5-2.64.91-3.75.91s-9.5 1.8-18.63 4c-9.14 2.2-17.19 4-17.89 4-.77 0-1.3-2.11-1.75-7.01v-.01c-.08-.83-.15-1.74-.22-2.73zm77.27-195.25c-2.88-3.85-5.59-7-6.01-7-.43 0-.78-.56-.78-1.25-.01-.69-1.58-2.96-3.5-5.06-1.93-2.09-3.5-4.11-3.5-4.5-.01-.38-1.36-2.13-3-3.89-1.65-1.75-3-3.48-3-3.84s-2.92-4.44-6.5-9.07-6.5-8.81-6.5-9.28 3.71-1.08 8.25-1.35c4.88-.28 9.48-1.15 11.25-2.12 1.65-.89 3.55-1.63 4.22-1.63 1.84-.01 8.28-3.27 8.28-4.2 0-.44.56-.81 1.25-.82 1.83-.01 13.07-11.91 15.85-16.78l2.4-4.19 7.5-.03c13.55-.05 29.57-3.14 40.25-7.76 3.16-1.37 5.75-2.83 5.75-3.25s1.16-1.05 2.58-1.41c2.56-.64 19.42-16.63 19.42-18.41 0-.51 5.06-1.69 11.25-2.64 6.19-.94 23.39-3.69 38.23-6.12 14.83-2.42 28.15-4.4 29.59-4.4 1.93 0 3.76 1.37 7 5.25 2.42 2.89 4.74 5.4 5.16 5.58.42.19.77.89.77 1.57s1.01 2.13 2.25 3.23c1.24 1.09 3.15 3.25 4.25 4.81 1.1 1.55 2.9 3.85 4 5.1 1.1 1.26 2.67 3.3 3.5 4.53.83 1.24 2.49 3.42 3.71 4.84 1.21 1.43 4.99 6.19 8.4 10.59s7.03 8.81 8.04 9.79c1.02.98 1.86 2.11 1.87 2.5.02.39 1.59 2.45 3.5 4.57 1.92 2.12 3.48 4.15 3.48 4.5.01.35 2.26 3.11 5.02 6.14 2.75 3.03 4.88 6.17 4.73 6.99-.2 1.11-5.84 2.58-21.76 5.7-11.82 2.31-23.74 4.66-26.49 5.21s-15.8 3.06-29 5.58c-13.2 2.51-25.58 4.97-27.5 5.46-1.92.48-7.78 1.62-13 2.53-5.22.9-10.85 2.03-12.5 2.51s-8.62 1.86-15.5 3.06c-6.88 1.21-13.85 2.56-15.5 3.01s-8.62 1.8-15.5 3c-6.88 1.19-21.95 3.92-33.5 6.06-11.55 2.13-21.56 3.88-22.24 3.89-.68 0-3.59-3.15-6.47-7zm-263.29 7c-.34.55.31 1 1.44 1 1.08 0 1.98-.41 2.05-.93 4.51.55 11.16 1.43 17.51 2.32 42.05 5.93 72.49 9.8 78.22 9.95 5.89.15 6.38-.02 9.53-3.34 3.83-4.04 9.75-11.53 9.75-12.34 0-.31 1.12-1.77 2.5-3.25 1.38-1.49 2.5-3.06 2.5-3.49 0-.44 1.3-2.22 2.88-3.95s3.5-4.35 4.25-5.81 1.93-3.02 2.62-3.46 1.25-1.4 1.25-2.14.67-1.61 1.5-1.92c.83-.32 1.5-1.02 1.5-1.56s1.12-2.19 2.5-3.67c1.38-1.49 2.5-3.26 2.5-3.95 0-.68.67-1.51 1.5-1.82.83-.32 1.5-1.01 1.5-1.53 0-.53 1.35-2.31 3-3.96s3-3.66 3-4.47c0-.8.67-1.73 1.5-2.04.83-.32 1.5-1.27 1.5-2.11s.36-1.53.81-1.53c.84 0 7.15-8.51 7.25-9.78.03-.4 1.35-1.75 2.94-3 2.74-2.16 2.95-2.19 3.87-.47.54 1.01.91 39.04 1.04 104.22-.14-33.49-.45-48.97-.96-48.97-.71 0-1.01 8.85-.95 27.25.01 1.72.02 3.34.02 4.87.08 21.06.1 24.85-.31 24.9-.09.01-.2-.16-.33-.37-.05-.07-.1-.14-.15-.21-.68-.99-19.27-3.82-75.23-11.44-12.38-1.68-25.42-3.51-29-4.05-3.58-.55-13.02-1.87-21-2.95s-19-2.59-24.5-3.37-14.05-1.94-19-2.59c-4.95-.64-15.98-2.25-24.5-3.56-8.52-1.32-23.83-3.54-34-4.94-10.17-1.39-26.77-3.67-36.87-5.06-10.11-1.39-21.69-2.81-25.75-3.15l-7.1-.6c.12-11.54.28-18.95.47-19.07.87-.54 32.98 3.47 103.56 12.93 10.34 1.39 21.14 2.72 24 2.97.37.03.85.08 1.44.14-.1.09-.19.2-.25.3zm-72.52-584.2c-1.53 18.27-1.92 43.48-.71 57.2.1 1.09.25 2.38.45 3.76-1.32-7.28-1.54-12.57-1.56-27.13-.02-11.07.38-23.06.89-26.63.24-1.75.58-4.37.93-7.2zm426.24 19.13c.63-17.7.34-53.24-.87-53.64-.72-.25-.96-1.81-.63-4.22.19-1.4.08-3.7-.24-6.57 1.62 11.88 2.52 24.93 2.5 38.36-.01 8.75-.28 17.64-.76 26.07zm-379.29-116.39c-2.71-1.11-5.32-1.54-8.89-1.54-3.89 0-5.46.15-7.31 1.38.9-.77 1.89-1.57 2.98-2.43 2.16-1.7 5.83-1.01 12.87 2.42.12.06.24.12.35.17zm22.54 537.67c-.07 2.44.15 4.71.66 6.42.75 2.47.93 3.31 7.77 4.33-2.13-.25-3.8-.45-4.73-.57l-5.34-.69.73-3.6c.29-1.44.64-3.77.91-5.89zm208.06-28.81c3.23-.91 6.22-1.58 8.72-1.9 2.61-.34 4.75-.93 4.75-1.31s5.96-.69 13.23-.69h8.92l-5.66.19c-10.36.35-21.38 1.74-29.96 3.71zm130.28-212.31c-2.22.17-3.73.36-3.97.51-.7.43-11.77 1.29-20.41 1.66.7-.09 1.42-.18 2.18-.3 4.34-.64 11.04-1.33 14.89-1.52 1.84-.09 4.49-.22 7.31-.35zm-123.79 142.69c-.31-.27-.63-.56-.97-.89l-3.25-3.1 1.85-3.5c2.16-4.08 2.91-4.42 14.85-6.73 1.21-.23 2.53-.51 3.91-.83-1.88.45-3.7.85-5.41 1.19-11.33 2.29-13 3.39-13 8.58 0 2.16.74 3.97 2.02 5.28zm-84.02 122.26c-8.16-.7-22.25-2.1-38.49-3.81 19.65 2.03 29.08 2.72 30.47 2.28 1.04-.33 2.71-.16 3.71.39.64.36 3.19.87 6.47 1.33-.72-.06-1.45-.13-2.16-.19zm-258.41-257.54c.33 4.15.58 6.53 1.22 8.55-2.11-4.64-2.58-8.38-2.09-12.64.1-.93.08-2.05-.06-3.32.42 2.44.74 4.93.93 7.41zm484.13-4.64c-2.03 15.61-6.68 31.14-9.33 31.14 2.8 0 8.49-20.1 8.35-29.5-.02-1.1.29-2.74.68-3.64.5-1.15-.01-1.48-4.92-1.38l5.69-.27zm-443.79-40.22c-.1 2.09-.09 4.46-.02 7.5.05 2.03.11 2.93 1.01 3.46-2.67-.99-3.06-2.63-2-5.85.51-1.55.92-3.67 1.01-5.11zm92.1 248.03c-1.29 8.51-2.32 16.08-2.27 17.33.03.83-.41 3.03-.98 4.91-.3.99-.56 2.05-.76 3.12.54-5.02 1.05-8.32 2.48-16.53.55-3.19 1.06-6.12 1.53-8.83zm330.85-179.92c-7.11-2.21-22.26-5.35-30.21-6.38.39.01.81.02 1.23.04 3.77.18 7.25.56 7.73.86s3.5 1.02 6.72 1.62c3.06.56 9.45 2.27 14.53 3.86zm58.29 219.3c-3.07.4-6.71.92-9.79 1.39-3.54.5-6.86 1-8.24 1.24 1.85-.32 7.07-1.14 11.61-1.81s8.25-1.58 8.25-2.02c0-.45 1.91-.56 4.25-.25.62.08 1.21.12 1.78.13-.19.03-.36.07-.53.1-1.62.31-4.38.76-7.33 1.22zm4.69-67.17c.01.11.02.21.03.31.14 1.48-.23 3.58-.81 4.67-.42.77-.6 1.26-.43 1.63-.48-.47-.65-1.09-.65-2.01 0-.2.01-.4.03-.6.29-1.02.65-1.91.98-2.39.02-.01.03-.01.04-.02.43-.26.74-.9.81-1.59zm-157.5 133.11c1.48-.06 2.64-.53 2.64-1.11 0-.65.9-.88 2.17-.55 1.28.34 3.61-.26 6.23-1.41-3.88 1.85-7.77 3.08-10.38 3.08-.23 0-.45 0-.66-.01zm113.44-469.79c.74-5.63 1.13-10.66.91-12.29-.31-2.35-.08-3.95.61-4.18.11-.04.21-.35.3-.91-.49 6.3-1.1 12.19-1.82 17.38zm-345.8 330.93c.63.91 1 1.88 1 2.79 0 .82-.66 5.11-1.53 10.03 1.35-8.9 1.31-11.14.66-12.57-.04-.08-.08-.17-.13-.25zm-2.56-452.73c14.23 12.84 29.55 29.56 42.73 47.1-12.74-16.96-28.45-34.07-42.73-47.1zm347.39 20.69c-1.6-8.25-3.96-17.56-6.31-24.09-1.12-3.13-2.25-5.87-3.41-8.24 3.95 7.89 7.3 19.12 9.72 32.33zm-398.17-35.47c-2.69 3.85-5.64 9.33-8.26 15.18 1.07-2.46 2.18-4.84 3.29-7 1.73-3.37 3.24-5.92 4.97-8.18zm221.69 516.59c-.46.35-.95.75-1.45 1.19.52-.45 1.02-.87 1.49-1.24 2.81-2.19 7.49-4.72 12.85-7.1-5.43 2.58-10.73 5.46-12.89 7.15zm-31.78 40.3c3.89.23 4.48-.21 5.68-1.64.39-.47.76-1.02 1.05-1.56-.25.51-.56 1.04-.89 1.52-1.36 1.93-2.2 2.18-5.75 1.69zm153.18-241.02c-1.09 1.25-1.72 3.15-1.75 5.08 0-2.54.44-4.14 1.75-5.08zm-424.7 452.45c.09 25.47.31 44.61.56 46.12-.3-1.85-.49-21.44-.56-46.12zm123.94-302.94c-1.78 1.96-3.32 5.18-4.04 8.87.81-4.16 2.2-7.15 4.04-8.87zm-100.56-126.88c-3.22-3.64-6.36-7.35-8.56-10.12-1.65-2.07-3.15-3.99-4.52-5.78 3.94 5.13 8.52 10.7 13.08 15.9zm16.51-93.54c.58-2.69.84-5.12.57-5.4.27.28.03 2.71-.53 5.4-.57 2.72-.89 5.01-1.04 7.8.01-.15.01-.29.01-.42-.04-1.35.41-4.67.99-7.38zm244.19-160.18c2.43.13 4.72.29 6.85.46.04.01.07.03.11.04-2.55-.14-4.89-.31-6.96-.5zm-289.75 193.04c-1.5-3.94-3.31-7.48-5.03-9.39 1.82 2.03 3.56 5.35 5.03 9.39zm65.15-111.72c.6 2.6.98 4.8 1 5.79-.05-.25-.08-.51-.11-.77-.06-.61-.4-2.48-.89-5.02zm365.72 160.51c1.07.93 2.46 1.44 3.23 1.14-1.05.4-2.23-.11-3.23-1.14zm-131.8-238.54c.19 1.57-.3 3.88-1.37 7.4 1-3.29 1.46-5.73 1.37-7.4zm-232.51-27.81c-.55 2.75-1.19 6.76-1.46 9.12-.11.99-.28 2.45-.48 4.1.85-7.5 1.17-9.48 1.94-13.22zm464.54 407.96c.02-.07.04-.15.06-.22-.09.34-.17.64-.25.88-.27.84-.44 2.26-.45 3.55-.1-.94.09-2.5.44-3.55.06-.18.13-.41.2-.66zm-50.88-300.02c-1.37 4.93-2.51 9.8-2.59 11.11.08-1.31 1.21-6.18 2.58-11.11.3-1.06.56-2.01.8-2.86-.26.95-.52 1.91-.79 2.86zm-109.92 437.74c-.88-.39-1.43-1.11-2.08-2.37.63 1.21 1.25 1.96 2.08 2.37zm-66.21 266.19c-.26.37-.56.72-.87 1.02.3-.29.59-.63.84-.99.38-.54.67-1.79.88-5.16-.21 3.41-.49 4.62-.85 5.13zm47.44-436.8c-.49-.04-.95-.12-1.39-.23.44.11.91.19 1.39.23zm187.73 100.58c-.09-.28-.25-.56-.49-.85.24.29.41.58.49.85z" fill="#e79d46"/><path d="m575.33 685.95c-12.29-2.41-18.81-11.03-18.42-24.34.11-3.82.9-8.56 1.74-10.53s1.65-4.03 1.79-4.58.61-1.82 1.04-2.82c1.01-2.34-1.25-6.62-4.22-7.97-2.89-1.32-6.53.24-8.86 3.8-3.29 5.03-6.39 15.8-6.4 22.24 0 3.87-.42 6.25-1.1 6.25-2.59 0-9.79-10.24-10.54-15-1.22-7.79-1.27-10.33-.28-15.05 2.49-11.92 11.52-23.6 24.12-31.22 7.02-4.25 20.58-8.86 31.8-10.82 9.89-1.73 33.28-1.5 49.5.48 7.15.88 13.93 1.6 15.06 1.6 3.41.02 5.67-2.38 5.99-6.35.23-2.92-.18-4.01-1.95-5.16-2.82-1.85-16.86-5.48-21.19-5.48-2.57 0-3.75-.7-5.5-3.25-3.88-5.67-6.6-7.75-10.12-7.73-4.58.02-5.97 1.18-6.69 5.55l-.61 3.78-4.34.15h-8.92c-7.27 0-13.23.31-13.23.69s-2.14.97-4.75 1.31c-2.5.32-5.49.99-8.72 1.9-2.76.63-5.27 1.32-7.42 2.05-2.91 1-6.93 2.72-10.87 4.61-5.36 2.38-10.04 4.91-12.85 7.1-.47.37-.97.79-1.49 1.24-6.05 5.19-14.97 15.37-17.09 19.66-3.86 7.81-5.81 12.54-5.81 14.12 0 .47-.28 1.28-.7 2.13-.29.54-.66 1.09-1.05 1.56-1.2 1.43-1.79 1.87-5.68 1.64-2.07-.28-7.31-.82-12.41-1.28-3.28-.46-5.83-.97-6.47-1.33-1-.55-2.67-.72-3.71-.39-1.39.44-10.82-.25-30.47-2.28-11.07-1.17-23.13-2.48-35.01-3.81-7.7-.86-21.65-2.41-31-3.45-6.36-.71-13.05-1.48-17.6-2.01-6.84-1.02-7.02-1.86-7.77-4.33-.51-1.71-.73-3.98-.66-6.42.1-.78.19-1.54.25-2.21.11-1.07.21-2.05.3-2.97.2-1.07.46-2.13.76-3.12.57-1.88 1.01-4.08.98-4.91-.05-1.25.98-8.82 2.27-17.33 1.62-9.37 2.73-15.98 3.44-20.72.87-4.92 1.53-9.21 1.53-10.03 0-.91-.37-1.88-1-2.79-1.18-2.18-4.64-4.13-7.42-4.13-1.2 0-2.44.74-3.59 2-1.84 1.72-3.23 4.71-4.04 8.87-1.79 9.09-2.18 9.36-9.95 6.97-26.29-8.08-54.47-22.81-77.5-40.49-3.85-2.96-8.31-6.39-9.91-7.62-7.24-5.56-43.58-42.68-43.6-44.53 0-.38-1.47-2.28-3.25-4.2s-6.37-8.13-10.2-13.78c-7.45-11-7.13-10.79-17.59-11.6-8.94-.69-15.29-3.02-22.76-8.33-7.45-5.28-12.19-11.36-12.19-15.6 0-3.66 3.97-9.11 8.25-11.32 2.44-1.26 4.83-1.5 10.6-1.06 4.1.3 7.72.97 8.05 1.47.33.51 1.64 1.47 2.91 2.14 2.36 1.24 3.17.94 6.94-2.6 1.58-1.49 1.57-6.35-.03-8.33-3.42-4.25-13.58-7.99-21.65-7.98-7.47 0-11.87 1.37-16.07 4.98-1.93 1.65-4.05 3.01-4.73 3.01-2.55 0-2.78-9.29-.39-15.32.62-1.54 1.12-3.18 1.12-3.64 0-.45 2.01-3.06 4.47-5.8 6.35-7.05 12.57-9.56 22.44-9.03 4.18.22 9.16 1.14 11.09 2.04 4.71 2.21 9.43 5.08 9.83 6 .61 1.36 5.9.78 7.2-.79 2.39-2.87 1.96-8.18-.98-12.21-3.12-4.28-14.26-11.24-18.03-11.27-7.11-.04-6.26-4.74 1.55-8.56 4.47-2.19 7.11-2.73 14.45-2.96 5.6-.17 8.98.11 8.98.74 0 .56.65.77 1.44.46.78-.3 1.57-.24 1.75.15.17.38 2.33 1.71 4.81 2.95 3.96 1.99 7.7 5.11 12.35 10.29 1.72 1.91 3.53 5.45 5.03 9.39 1.36 3.74 2.5 8.1 3.28 12.65.14 1.27.16 2.39.06 3.32-.49 4.26-.02 8 2.09 12.64.64 2.02 1.65 3.7 3.49 6.45 1.91 2.86 4.33 6.19 7.05 9.72 1.37 1.79 2.87 3.71 4.52 5.78 2.2 2.77 5.34 6.48 8.56 10.12 2.75 3.15 5.5 6.17 8.09 8.88 5.01 5.23 11.26 12.57 13.89 16.32 7.75 11.04 17.47 20.82 33.24 33.47 4.91 3.94 18.53 12.69 26.35 16.94 8.73 4.74 26.38 12.35 29.12 12.55 1.03.08 1.88.55 1.88 1.04s.75.61 1.67.25c.92-.35 1.98-.13 2.37.49.38.63 2 1.2 3.58 1.28 1.58.07 3.14.49 3.46.92.31.44 2.11.89 4 1.02 1.88.12 3.67.55 3.97.95s4.43 1.03 9.18 1.39l8.64.66 3.06-3.06c2.94-2.94 4.17-7.22 2.07-7.22-.55 0-.89-.48-.75-1.07.32-1.38-5.02-3.35-13.25-4.88-32.9-6.12-77.91-32.3-97.48-56.7-9.94-12.38-22.09-37.76-19.55-40.81.7-.85 2.46-1.56 3.9-1.57 1.45-.02 4.43-.91 6.63-1.97s4.76-1.95 5.69-1.97c2.04-.04 4.81-3.72 4.81-6.39 0-1.05-1.01-2.79-2.25-3.87-2.32-2.02-5.38-2.05-19.9-.18-4.49.58-4.67.5-5.21-2.25-1.02-5.16-1.9-12.52-2.02-16.9l-.12-4.32 4.01.24c2.21.12 4.46.51 5.01.85.55.33 4.67.93 9.16 1.32 7.89.69 8.25.63 10.74-1.86 3.32-3.32 3.32-6.94-.01-9.57-2.86-2.24-16.23-6.57-23.63-7.64-1.61-.23-2.89-.5-3.86-.86-.9-.53-.96-1.43-1.01-3.46-.07-3.04-.08-5.41.02-7.5.01-.09.01-.18.01-.26.15-2.79.47-5.08 1.04-7.8.56-2.69.8-5.12.53-5.4-.27-.27-.07-1.01.45-1.63.52-.63 1.1-2.71 1.3-4.63s.62-3.93.93-4.46c.54-.91 2.11-6.81 2.38-8.96.07-.55.39-1.67.73-2.5.33-.83 2.26-6 4.28-11.5s5.42-13.78 7.55-18.39c3.71-8.04 4.65-12 3.2-13.45-.3-.29-.61-1.18-.8-2.15-.02-.99-.4-3.19-1-5.79-.5-2.56-1.15-5.8-1.84-9.09-.38-1.77-.7-3.36-.97-4.87-.2-1.38-.35-2.67-.45-3.76-1.21-13.72-.82-38.93.71-57.2.36-2.95.73-6.13 1.02-8.8.41-3.66.73-6.55 1-8.9.2-1.65.37-3.11.48-4.1.27-2.36.91-6.37 1.46-9.12.02-.13.05-.25.07-.38.57-2.75 1.22-6.35 1.45-8 .24-1.65.89-4.53 1.46-6.39.56-1.87.8-3.75.53-4.18-.26-.44-.08-1.04.42-1.35s1.2-2.16 1.57-4.12c.95-5.07 3.75-13.23 6.96-20.66 2.62-5.85 5.57-11.33 8.26-15.18 1.68-2.18 3.56-4.1 6.07-6.24 1.85-1.23 3.42-1.38 7.31-1.38 3.57 0 6.18.43 8.89 1.54 8.03 3.99 17.97 11.36 28.51 20.86 14.28 13.03 29.99 30.14 42.73 47.1 10 13.3 10.28 13.88 8.3 16.91-2.2 3.35-2.15 8.18.1 10.67 1.65 1.82 2.59 1.99 7.9 1.4.97-.1 2.05-.24 3.14-.4l2.11-.24 1.25 11.33c2.05 18.57 6.75 29.83 12.44 29.83 5.58 0 8.48-8.23 11.1-31.46.82-7.23 1.64-13.37 1.9-14.22 2.01-.26 3.98-.51 5.91-.73 3.01-.22 6.36-.39 9.93-.53l-.69 6.03c-2.74 23.84-2.3 47.15.98 52.71 2.78 4.7 9.71 6.1 13.45 2.71 2.84-2.57 6.85-12.5 9.98-24.72 1.59-6.21 4.73-17.05 6.96-24.09 1.96-6.17 3.61-11.44 3.99-12.72 3.56.1 7 .25 10.21.42 2.07.19 4.41.36 6.96.5 1.42.54 2.17 1.35 2.36 2.79.09 1.67-.37 4.11-1.37 7.4-4.9 16.1-5.84 30.11-2.3 34.16 2.26 2.58 7.51 2.22 11.06-.76 3.43-2.9 14.03-19.73 18.19-28.9 3.01-6.63 4.41-8.48 6.97-8.03.19.04.38.09.57.13.28.07.57.17.87.29 2.22.84 5.08 1.13 7.59.91.99-.03 1.88-.18 2.74-.51.75-.22 1.41-.52 1.91-.87 1.18-.82 4.53-4.53 7.45-8.25 1.01-1.28 2.07-2.6 3.18-3.96 9.14-11.08 20.67-23.83 32.17-35.77h.01c.09-.1.18-.19.27-.29 14.88-15.38 29.88-29.6 39.22-36.72 17.8-13.57 31.49-18.91 38.8-15.13 3.34 1.72 6.49 5.68 9.33 11.37 1.16 2.37 2.29 5.11 3.41 8.24 2.35 6.53 4.71 15.84 6.31 24.09.61 3.35 1.16 6.83 1.65 10.41.32 2.87.43 5.17.24 6.57-.33 2.41-.09 3.97.63 4.22 1.21.4 1.5 35.94.87 53.64-.17 3.03-.37 6-.6 8.89-.09.56-.19.87-.3.91-.69.23-.92 1.83-.61 4.18.22 1.62-.17 6.66-.91 12.28v.01c-.22 1.58-.45 3.1-.69 4.55-1.07 6.46-2.16 13.1-2.42 14.75-.22 1.34-1.18 5.27-2.3 9.46-.24.85-.5 1.8-.8 2.86-1.37 4.93-2.5 9.8-2.58 11.11-.01.05-.01.1-.01.14 0 1.06-.45 1.93-1 1.93-2.23 0-.88 10.14 2.9 21.68 6.1 18.66 9.93 40.89 10.21 59.32l.16 10.5-12.38.65c-13.24.7-31.95 3.1-38.2 4.89-4.91 1.4-7.69 4.22-7.69 7.81 0 5.52 4.53 7.55 14.43 6.41 8.64-.37 19.71-1.23 20.41-1.66.24-.15 1.75-.34 3.97-.51 3.08-.15 6.36-.31 9.03-.43l3.66-.18c4.91-.1 5.42.23 4.92 1.38-.39.9-.7 2.54-.68 3.64.14 9.4-5.55 29.5-8.35 29.5-.75 0-5.73-1.4-11.07-3.11-.14-.04-.29-.09-.44-.14-5.08-1.59-11.47-3.3-14.53-3.86-3.22-.6-6.24-1.32-6.72-1.62s-3.96-.68-7.73-.86c-.42-.02-.84-.03-1.23-.04-1.63-.22-2.96-.34-3.85-.35-1.23-.02-2.27.55-3.07 1.47-1.31.94-1.75 2.54-1.75 5.08v.03c-.02 1.97.58 3.98 1.98 5.38.09.09.18.17.27.25 1 1.03 2.18 1.54 3.23 1.14.83-.32 1.52-.1 1.52.49s.67.82 1.5.5c.83-.31 1.5-.13 1.5.41 0 .55 2.14 1.5 4.75 2.13s10.05 3.04 16.54 5.37c11.08 3.98 11.75 4.37 11.2 6.58-.49 1.99-3.77 7.44-5.5 9.15-.27.27-1.84 2.3-3.48 4.5-4.62 6.22-18.34 20.2-24.99 25.46-13 10.3-31.14 20.9-47.02 27.49-6.37 2.64-17.5 6.02-27.09 8.28-1.38.32-2.7.6-3.91.83-11.94 2.31-12.69 2.65-14.85 6.73l-1.85 3.5 3.25 3.1c.34.33.66.62.97.89.92.92 2.1 1.58 3.5 1.94.44.11.9.19 1.39.23.33.03.66.05 1 .05h.05.06c.3 0 .64-.01 1-.03 2.81-.12 7.28-.74 12.29-1.65.36-.07.72-.14 1.08-.2l.06-.01c5.42-1.02 11.37-2.35 16.55-3.75 11.21-3.05 14.02-2.67 28 3.8 14.79 6.85 25.55 14.44 39.35 27.76 19.84 19.16 30.52 37.82 33.76 59 3.59 23.45-7.83 41.42-33.15 52.2-7.14 3.03-8.12 3.18-22.96 3.47-8.53.17-16.25.33-17.17.36s-4.2 3.67-7.32 8.12c-3.11 4.44-7.46 9.83-9.67 11.97-2.57 2.49-6.5 5-10.44 6.88-2.62 1.15-4.95 1.75-6.23 1.41-1.27-.33-2.17-.1-2.17.55 0 .58-1.16 1.05-2.64 1.11-1.19-.02-2.03-.14-2.68-.43-.83-.41-1.45-1.16-2.08-2.37-1.5-2.89-2.42-16.06-1.25-17.94.36-.58.91-3.39 1.23-6.24.69-6.24-1.16-9.02-5.98-8.99-4.26.02-5.19.8-7.73 6.51-1.72 3.85-2.34 7.66-2.79 16.89-.32 6.66-1.02 12.01-1.58 12.13-.55.12-2.88-.15-5.17-.6zm-73.58-212c2.89-1.22 5.25-2.56 5.25-2.97 0-.42 1.17-1.06 2.61-1.42s5.93-4.01 9.98-8.11c12.28-12.45 18.69-29.16 20.87-54.47.08-.83.48-2.08.91-2.77.43-.7 1.03-3.66 1.33-6.58.5-4.84.29-5.6-2.33-8.48-1.58-1.73-4.31-3.43-6.08-3.77-3.44-.66-3.98-.23-12.27 9.7-2.21 2.65-6 5.4-10.41 7.54-6.2 3.02-7.84 3.38-15.34 3.38-6.93 0-9.34-.45-13.8-2.56-6.18-2.92-12.58-9.63-14.19-14.87l-1.1-3.59 4.91-2.11c2.7-1.17 4.91-2.51 4.91-2.99 0-.49.65-.88 1.45-.88 2.54 0 10.44-10.81 12.12-16.61 3.05-10.48-.32-14.5-15.07-17.96-10.78-2.53-33.36-2.7-38.5-.29-1.92.91-4.25 1.89-5.17 2.19-1.8.59-3.55 9.54-2.97 15.17.76 7.49 6.89 15.89 16.23 22.25 4.14 2.82 4.54 3.43 4.11 6.33-.3 2.06-2.12 4.91-5.08 7.95-3.82 3.93-5.63 4.98-10.41 6.03-5.39 1.19-6.17 1.12-11.43-1.06-3.27-1.36-6.93-3.84-8.71-5.91-7.5-8.71-9.96-9.86-13.74-6.44-3.18 2.88-2.37 8.27 2.2 14.66 4.16 5.81 14.48 14.11 16.21 13.04.54-.33 1.3-.09 1.69.54.4.64 2.71 1.49 5.14 1.91 4.33.73 4.44.85 5.09 5.23 1.3 8.9 5.67 21.45 8.76 25.19.59.7 3.08 3.82 5.55 6.93s6.18 6.69 8.26 7.95c2.07 1.26 4.01 2.63 4.29 3.04 1.05 1.49 11.27 5.69 12.61 5.17.75-.29 1.37-.06 1.37.51 0 1.64 3.69 2.05 15 1.68 8.02-.26 11.74-.86 15.75-2.55zm64.85-90.69c1.91 1.91 21.4-.23 21.4-2.34 0-.51.82-.92 1.83-.92 4.2 0 15.88-9.17 21.64-17 3.61-4.9 9.69-16.35 9.39-17.67-.1-.46.39-2.18 1.1-3.83.76-1.78 1.33-7.66 1.41-14.5.13-11.84-.53-17.83-2.53-22.7-.63-1.54-1.26-3.36-1.4-4.04-.15-.69-1.84-4.06-3.77-7.5-11.74-20.96-34.21-30.29-55.56-23.07-4.85 1.64-14.33 7.78-17.93 11.62-3.16 3.36-11.16 15.89-11.17 17.48-.01.7-.63 2.28-1.4 3.5-2.55 4.07-4.04 13.1-4.07 24.71-.04 13 2.11 21.86 7.76 31.89 6.32 11.23 21.26 23.07 29.63 23.49 1.61.08 3.26.48 3.67.88zm-195.66-7.25c4.07 1.18 17.09.35 22.55-1.43 10.86-3.54 23.04-14.88 29.39-27.33 1.19-2.34 1.92-4.25 1.62-4.25s.19-1.12 1.09-2.5 1.31-2.5.9-2.5c-.4 0-.19-.65.47-1.45 1.67-2.02 2.33-7.34 2.42-19.55.07-10.5-.62-16.98-2.06-19.28-.42-.67-.85-1.82-.97-2.55-.37-2.48-5.49-12.17-6.42-12.17-.51 0-.93-.58-.93-1.29 0-2.33-8.36-9.54-15.16-13.08-3.92-2.03-8.96-3.75-12.23-4.16-11.54-1.44-25.59 3.41-34.43 11.89-4.05 3.89-13.18 17.21-13.18 19.22 0 .51-.87 2.72-1.93 4.92-4.86 10.01-5.29 32.39-.86 44 3.31 8.68 8.05 16.4 12.98 21.16 4.39 4.24 12.11 9.01 16.75 10.35zm453.19 125.16c-3.28-4.31-8.34-9.97-11.24-12.58-5.51-4.95-19.24-13.54-24.39-15.26-1.65-.55-3.13-1.67-3.29-2.49-.07-.35-.02-.79.14-1.33 1.9-3.32 3.81-6.43 5.54-8.94 5.56-7.14 14.14-16.05 20.98-21.38 1.57-1.17 3.08-2.2 4.48-3.04 12.95-7.78 28.81-11.86 40.65-10.46 3.58.43 7.17.7 7.99.61.81-.08 1.71.17 2 .57.28.4 2.63 1.53 5.23 2.5 11.46 4.3 18.8 15.23 18.76 27.92-.05 14.5-8.66 23.14-33.69 33.79-2.79 1.18-5.72 2.77-8.6 4.6v.01c-3.99 2.54-7.91 5.58-11.3 8.74-.3.27-.61.54-.92.82-2.31 2.06-4.69 3.75-5.29 3.75s-3.77-3.53-7.05-7.83zm-26.38 83.37c-4.63-5.58-16.64-14.08-26.13-19.1-1.08-.57-2.13-1.1-3.14-1.57-2-.94-3.8-1.66-5.3-2.09-.32-.09-.63-.17-.92-.23h-.01l-.04-.01c-1.27-.28-2.07-.59-2.56-1.05-.17-.37.01-.86.43-1.63.58-1.09.95-3.19.81-4.67-.01-.1-.02-.2-.03-.31.03-.24.03-.48 0-.72-.01-.04-.01-.07-.02-.11.01-1.29.18-2.71.45-3.55.08-.24.16-.54.25-.88.33-1.15.66-2.73.86-4.18.2-1.5.6-3.73 1.02-5.74v-.01c.19-.89.39-1.75.57-2.5.04-.18.08-.36.12-.53.49-2.11.82-4.02.73-4.4-.08-.42.11-1.43.43-2.26.06-.17.18-.59.34-1.2.34-1.15.72-2.74 1.06-4.52.63-2.76 1.38-6.15 2.04-9.28.29.02 3.8 1.56 7.85 3.43 8.35 3.86 18.13 11.53 29.85 23.41l7.9 8.02-3.27 12.82c-.56 2.17-1.08 4.18-1.57 6.04-1.61 5.81-3.06 10.86-3.99 13.89-1.53 4.54-2.58 6.35-3.48 6.31-.83-.04-2.74-1.56-4.25-3.38zm-121.3-361.09c1.4-1.4 2.55-2.99 2.55-3.55 0-1.41-2.79-6.65-3.77-7.06-.44-.19-1.83-1.81-3.1-3.61-2.98-4.25-16.7-15.74-25.76-21.58-3.93-2.53-7.43-5.36-7.79-6.3-1.26-3.27 17.99-28.53 36.26-47.6 6.23-6.49 11.16-12.48 11.16-13.54 0-2.79-3.37-6.21-6.12-6.2-2.86 0-5.58 1.76-13.7 8.88-6.04 5.29-21.4 22.22-28.21 31.11-4.49 5.86-5.26 6.83-6.53 8.28-.59.67-3.63 4.96-6.75 9.53-6.61 9.66-7.3 13.49-3.14 17.64 1.4 1.4 3.16 2.55 3.91 2.55.76 0 1.52.35 1.71.79.18.43 4.16 3 8.83 5.71s8.65 5.28 8.83 5.71c.19.44.94.79 1.67.79s1.48.38 1.67.85c.18.47 4.38 4.22 9.33 8.35 4.95 4.12 9.86 8.47 10.9 9.65 2.52 2.83 4.94 2.72 8.05-.4zm-347.2-4.58c2.02-1.09 16.71-12.46 17.75-13.75.27-.34 1.73-1.26 3.23-2.03 1.51-.78 3.55-2.13 4.54-3s3.99-2.7 6.66-4.06c2.67-1.35 5.37-2.93 5.99-3.5.62-.56 4.72-2.83 9.11-5.03 10.27-5.16 11.05-6.93 6.91-15.71-7.09-15.01-35.12-53.07-42.8-58.1-3.38-2.22-5.93-2.13-8.11.28-2.57 2.84-2.19 6.49 1.09 10.66 17.31 21.93 33.38 46.07 33.38 50.14 0 .63-2.14 2.35-4.75 3.83-6.93 3.92-20.43 12.57-22.75 14.58-1.1.96-4.33 3.54-7.18 5.75-5.6 4.33-11.32 11.8-11.32 14.78 0 2.51 2.77 6.29 4.62 6.29.83 0 2.46-.51 3.63-1.13zm278 24.36c4.95-4.35-.07-11.65-11.97-17.44-5.91-2.87-7.99-3.34-16.2-3.64-10.32-.39-14.68.51-23.08 4.73-5.77 2.9-6.96 5.18-5.58 10.67.88 3.49 3.69 3.79 13.13 1.38 12.53-3.19 20.28-2.46 30.32 2.88 7.81 4.15 10 4.39 13.38 1.42zm-236.25-4.79c6.36-2.71 11.98-3.39 20-2.45 1.92.23 3.77.8 4.09 1.27 1.24 1.77 8.13 1.85 10.05.11 3.09-2.8 2.44-7.83-1.39-10.71-6.78-5.08-11.61-6.66-20.39-6.66-8.02 0-9.38.31-17.86 4.05-8.31 3.66-12.09 10.65-8.34 15.42 2.52 3.21 4.18 3.08 13.84-1.03zm364.52 383.44c.01-.02.02-.05.03-.08v-.01c.44-1.33 1.6-3.55 2.64-5.02.78-1.12 1.84-2.98 2.97-5.17.43-.79.85-1.59 1.23-2.35 1.45-2.89 3.07-5.25 3.6-5.25.52 0 .69-.79.38-1.75-.33-1.04-.22-1.33.29-.71.46.58 5.42 3.64 11.02 6.82 5.61 3.18 10.76 6.47 11.47 7.32.24.29.41.58.49.85.34 1.05-.48 1.94-2.4 2.65-1.21.2-2.31.38-3.21.55-.57-.01-1.16-.05-1.78-.13-2.34-.31-4.25-.2-4.25.25 0 .44-3.71 1.35-8.25 2.02s-9.76 1.49-11.61 1.81c-.1.02-.2.03-.3.05-1.69.19-2.39.14-2.6-.21-.03-.06-.05-.12-.06-.19.01-.32.13-.77.32-1.39zm-247.02-158.88c-.07.11-.2.22-.39.31-2.59.54-4.79.69-6.68.46-.87-.19-1.43-.46-1.43-.77 0-.55 2.05-1 4.56-1 2.78 0 4.32.39 3.94 1z" fill="#fa8818"/><path d="m527.5 954.3c-1.65-.22-9.75-1.74-18-3.37-8.25-1.64-17.7-3.45-21-4.04-3.3-.58-8.7-1.68-12-2.44s-11.4-2.35-18-3.55c-13.54-2.46-20.18-3.72-53.5-10.2-12.92-2.51-25.64-4.87-28.25-5.25-2.61-.37-4.75-1.01-4.75-1.41 0-.41-1.24-.79-2.75-.86s-5-.55-7.75-1.08c-7.39-1.4-22.15-4.05-29-5.19-3.3-.56-7.58-1.41-9.5-1.91-1.92-.49-9.8-2.09-17.5-3.54s-19.62-3.79-26.5-5.2c-17.12-3.5-25.17-5.02-34.15-6.43l-7.65-1.21-.59-3.56c-.3-1.85-.49-21.44-.56-46.12-.08-30.15 0-67.89.23-90.21l7.1.6c4.06.34 15.64 1.76 25.75 3.15 10.1 1.39 26.7 3.67 36.87 5.06 10.17 1.4 25.48 3.62 34 4.94 8.52 1.31 19.55 2.92 24.5 3.56 4.95.65 13.5 1.81 19 2.59s16.52 2.29 24.5 3.37 17.42 2.4 21 2.95c3.58.54 16.62 2.37 29 4.05 55.96 7.62 74.55 10.45 75.23 11.44l.15.21c.13.21.24.38.33.37.41-.05.39-3.84.31-24.9 0-1.53-.01-3.15-.02-4.87-.06-18.4.24-27.25.95-27.25.51 0 .82 15.48.96 48.97.02 8.71.03 17.91.04 27.56.07 87.59.01 116.99-.63 127.09-.21 3.37-.5 4.62-.88 5.16-.25.36-.54.7-.84.99-.7.7-1.45 1.14-1.91 1.08-.65-.08-2.54-.33-4.19-.55zm-71.5-204.33c-3.02-.42-14.27-1.95-25-3.39s-26.02-3.51-34-4.58c-7.98-1.08-23.27-3.1-34-4.49s-24.45-3.21-30.5-4.04-16.4-2.17-23-2.96c-6.6-.8-15.15-1.88-19-2.42-3.85-.53-20.95-2.79-38-5.02-17.05-2.22-37.98-4.97-46.5-6.09s-19.32-2.47-24-2.99c-8.07-.9-20.16-2.6-24.5-3.45-1.1-.21-2.37-.42-2.82-.46-1.63-.16.65-4.5 4.44-8.44 2.13-2.23 3.88-4.58 3.88-5.23 0-.66.68-1.46 1.5-1.77.82-.32 1.5-1.16 1.5-1.87s.9-1.85 2-2.54c1.1-.68 2-1.67 2-2.18 0-.52 1.57-2.65 3.5-4.74 1.92-2.1 3.49-4.15 3.5-4.56 0-.41.79-1.62 1.75-2.68 3.05-3.36 4.65-5.33 8.54-10.5 2.08-2.77 4.44-5.4 5.25-5.85.8-.45 1.46-1.59 1.46-2.53s.9-2.27 2-2.96c1.1-.68 2-1.92 2-2.74s.46-1.49 1.03-1.49 1.32-.75 1.67-1.67c.36-.92 1.36-2.42 2.22-3.34 4.13-4.34 8.08-9.27 8.08-10.09 0-.49.79-1.76 1.75-2.82s3.19-3.68 4.96-5.83c2.57-3.13 3.77-3.85 6-3.59 19.62 2.32 71.27 8.12 72.79 8.18 1.1.04 14.38 1.67 29.5 3.61 15.12 1.93 29.98 3.76 33 4.06 3.02.29 15.4 1.67 27.5 3.06 29.15 3.34 90.51 9.99 101 10.94 2.75.25 8.15.7 12 1.01 13.91 1.12 14.28 1.24 15.52 5.31.61 2.02 2.25 6 3.63 8.84 2.72 5.61 2.55 6.68-2.05 12.48-1.15 1.46-3.22 4.15-4.6 5.97s-3.29 4.12-4.25 5.1-1.75 2.21-1.75 2.75c0 .53-1.35 2.5-3 4.38s-3 3.71-3 4.07c0 .37-.46 1.21-1.02 1.87-.56.67-1.97 2.33-3.13 3.71s-3.61 4.81-5.44 7.64c-1.83 2.82-3.91 5.76-4.62 6.52-.71.77-2.35 2.9-3.65 4.73-1.31 1.84-3.03 4.08-3.84 4.97-1.37 1.54-6.97 9.23-10.3 14.16-2.31 3.43-4.03 4.99-5.32 4.85-.65-.07-3.66-.48-6.68-.9zm-90.5 6.03c.06-.1.15-.21.25-.3.88.09 1.98.22 3.24.37-.07.52-.97.93-2.05.93-1.13 0-1.78-.45-1.44-1z" fill="#f6ad54"/><path d="m0 512v-512h512 512v512 512h-512-512zm591 452.49c23.92-5.71 47.55-11.32 52.5-12.48 159.99-37.55 152.92-35.82 156.77-38.41 1.76-1.19 4.21-3.95 5.45-6.13l2.25-3.97.01-81.18.02-81.18 5.25-1.05c2.89-.58 10.2-1.92 16.25-2.98 46.64-8.19 58.28-10.45 60.23-11.7 3.1-1.99 5.53-7.02 4.68-9.71-.86-2.74-4.56-7.61-30.93-40.7-47.48-59.57-49.57-62.31-48.9-63.92 1.55-3.7 6.75-21.58 9.91-34.08 9.46-37.43 13.51-47.69 22.75-57.59 5.89-6.3 6.35-6.57 31.8-18.81 20.39-9.79 29.96-23.7 29.96-43.51 0-14.06-4.64-24.59-15.41-34.93-11.88-11.41-28.99-16.41-48.5-14.18-27.4 3.13-54.16 20.64-70.86 46.36-12.89 19.85-19.36 40.32-29.22 92.4-3.14 16.62-6.16 28.19-10.7 41.01-2.59 7.32-4.31 9.25-4.31 4.86 0-6.56-7.85-25.68-15.32-37.31-13.84-21.57-37.4-42.63-60.41-54.01l-7.23-3.58 11.77-7.14c25.18-15.27 43.2-32.45 57.54-54.86 3.66-5.73 5.4-7.64 6.56-7.2.88.33 5.87 3.02 11.09 5.98 12.7 7.2 14.16 7.5 17.97 3.69 3.52-3.51 3.86-6.85 1.08-10.39-1.86-2.36-18.77-12.79-20.74-12.79-.51 0-1.71-.57-2.67-1.28-1.65-1.2-1.57-1.81 1.23-10.25 3.11-9.34 6.13-22.59 6.13-26.87 0-1.36.38-2.72.85-3.01s6.12.59 12.55 1.95 12.8 2.2 14.17 1.85c4.98-1.25 7-7.7 3.83-12.23-2.08-2.97-4.63-3.92-17.9-6.63l-11-2.26-.23-7.88c-.64-22.17-4.93-49.55-10.77-68.81l-3.52-11.62 2.96-11.23c7.43-28.16 10.3-52.51 10.31-87.23.01-46.24-6.53-81.16-18.72-99.95-12.54-19.32-29.71-22.44-53.8-9.78-24.23 12.73-62.06 48.23-90.88 85.26l-7.41 9.54-4.47-1.34c-8.5-2.55-23.52-5.12-36.86-6.3-17.37-1.53-61.28-.63-73.11 1.5-13.72 2.47-12.54 2.99-20.68-9.19-24.32-36.38-63.68-74.48-86.17-83.42-4.42-1.75-7.71-2.25-15.15-2.28-11.6-.04-15.58 1.73-24.33 10.81-17.78 18.44-31.36 69.57-33.57 126.35-.87 22.52.07 42.65 2.52 53.8 2.92 13.34 2.88 14.27-1.14 22.9-7.85 16.85-15.16 43.91-17.56 64.93-1.36 11.94-1.89 12.67-9.25 12.67-2.78 0-3.8-.84-7.84-6.4-11.98-16.53-31.12-24.71-50.98-21.82-17.48 2.55-29.29 12.38-33.75 28.1-.49 1.71-2.15 2.92-5.92 4.33-7.14 2.66-16.33 11.3-19.79 18.61-4.06 8.56-5.37 14.7-5.38 25.27-.04 32.41 19.76 56.88 50.65 62.6l9.17 1.7 4.01 6.05c12.29 18.59 41.55 50.02 60.65 65.15 28.8 22.81 63.75 41.04 95.82 49.97 4.39 1.22 5.73 2.02 5.48 3.27-.25 1.31-3.14 2.11-13.8 3.81-7.42 1.18-23.84 3.81-36.49 5.84-12.65 2.04-28.17 4.52-34.5 5.53-45.47 7.23-50.59 8.17-53.09 9.77-1.49.94-5.14 4.87-8.11 8.72s-12.1 15.55-20.29 26c-55.03 70.22-54.47 69.47-55.17 73.77-.46 2.84-.05 4.02 2.3 6.64 3.3 3.67 4.45 3.92 42.86 9.02 27.6 3.67 36.94 4.95 41.22 5.63l3.22.52.28 82.71.28 82.71 2.5 4.41c4.72 8.32.26 7.13 93.5 25.04 12.1 2.33 33.48 6.46 47.5 9.19 57.21 11.14 166.62 32.24 177 34.15 3.7.68 4.8.45 52-10.8zm-335.2-575.74c-1.34-1.79-2.8-3.86-3.25-4.61-1.08-1.83-4.53-22.36-3.92-23.35.27-.43 1.97-.79 3.78-.79h3.29l.65 8.44c.36 4.64 1.33 11.65 2.15 15.57 1.77 8.39 1.74 7.99.62 7.99-.49 0-1.98-1.46-3.32-3.25zm310.8-5.49c-.41-.4-2.06-.8-3.67-.88-8.37-.42-23.31-12.26-29.63-23.49-5.65-10.03-7.8-18.89-7.76-31.89.03-11.61 1.52-20.64 4.07-24.71.77-1.22 1.39-2.8 1.4-3.5.01-1.59 8.01-14.12 11.17-17.48 3.6-3.84 13.08-9.98 17.93-11.62 21.35-7.22 43.82 2.11 55.56 23.07 1.93 3.44 3.62 6.81 3.77 7.5.14.68.77 2.5 1.4 4.04 2 4.87 2.66 10.86 2.53 22.7-.08 6.84-.65 12.72-1.41 14.5-.71 1.65-1.2 3.37-1.1 3.83.3 1.32-5.78 12.77-9.39 17.67-5.76 7.83-17.44 17-21.64 17-1.01 0-1.83.41-1.83.92 0 2.11-19.49 4.25-21.4 2.34zm10.83-20.36c5.78-1.61 14.62-10.84 17.62-18.41 3.39-8.53 3.41-23.4.05-31.87-3.04-7.64-10.09-15.03-15.79-16.55-14.68-3.91-29.78 10.09-32.07 29.74-2.89 24.7 11.44 42.29 30.19 37.09zm-206.49 13.11c-4.64-1.34-12.36-6.11-16.75-10.35-4.93-4.76-9.67-12.48-12.98-21.16-4.43-11.61-4-33.99.86-44 1.06-2.2 1.93-4.41 1.93-4.92 0-2.01 9.13-15.33 13.18-19.22 8.84-8.48 22.89-13.33 34.43-11.89 3.27.41 8.31 2.13 12.23 4.16 6.8 3.54 15.16 10.75 15.16 13.08 0 .71.42 1.29.93 1.29.93 0 6.05 9.69 6.42 12.17.12.73.55 1.88.97 2.55 1.44 2.3 2.13 8.78 2.06 19.28-.09 12.21-.75 17.53-2.42 19.55-.66.8-.87 1.45-.47 1.45.41 0 0 1.12-.9 2.5s-1.39 2.5-1.09 2.5-.43 1.91-1.62 4.25c-6.35 12.45-18.53 23.79-29.39 27.33-5.46 1.78-18.48 2.61-22.55 1.43zm32.58-18.88c5.5-2.5 12.91-11.03 15.57-17.93 1.41-3.64 2.37-8.83 2.67-14.34.67-12.24-2.05-20.35-9.25-27.61-5.19-5.23-5.23-5.25-11.54-5.25-10.95 0-17.85 4.91-23.41 16.65-8.96 18.92-2.88 43.55 12.06 48.88 5.27 1.88 9.13 1.77 13.9-.4z" fill="#fefefe"/></svg>