<svg xmlns="http://www.w3.org/2000/svg" viewBox="0 0 64 64" width="64" height="64">
  <defs>
    <linearGradient id="cf-main" x1="0" y1="0" x2="1" y2="1">
      <stop offset="0%" stop-color="#F6821F"/>
      <stop offset="100%" stop-color="#FAAD3F"/>
    </linearGradient>
    <linearGradient id="cf-accent" x1="0" y1="0" x2="1" y2="0.5">
      <stop offset="0%" stop-color="#F6821F"/>
      <stop offset="100%" stop-color="#F9A825"/>
    </linearGradient>
  </defs>
  <!-- Cloudflare stylized cloud/shield icon -->
  <!-- Main larger cloud body -->
  <path d="M42.5 44H15.5C11.4 44 8 40.6 8 36.5c0-3.5 2.5-6.5 5.9-7.2 -0.1-0.5-0.1-1-0.1-1.5 0-4.4 3.6-8 8-8 1.1 0 2.2 0.2 3.2 0.7C27.2 16.2 31.2 13 36 13c6.3 0 11.5 4.8 12 10.9 3.6 0.7 6.3 3.9 6.3 7.6C54.3 36.1 49.5 44 42.5 44z" fill="url(#cf-main)"/>
  <!-- Front/lower cloud layer for depth -->
  <path d="M44 46H16c-3.3 0-6-2.7-6-6 0-2.8 1.9-5.1 4.5-5.7 -0.1-0.4-0.1-0.9-0.1-1.3 0-3.9 3.1-7 7-7 0.9 0 1.7 0.2 2.5 0.5C25.8 23 29.6 20 34 20c5.5 0 10 4.2 10.5 9.5C48 30.2 51 33.2 51 37c0 5-3.2 9-7 9z" fill="url(#cf-accent)"/>
</svg>